<svg xmlns="http://www.w3.org/2000/svg" xmlns:xlink="http://www.w3.org/1999/xlink" width="2000" height="840" viewBox="0 0 1000 420" role="img" aria-labelledby="title"><title id="title">What are font ligatures?</title><rect x="0" y="0" width="1000" height="420" rx="0" fill="#f6efdf" stroke="none" stroke-width="1"/><rect x="554" y="0" width="446" height="420" rx="0" fill="#102f45" stroke="none" stroke-width="1"/><g transform="translate(64 59) scale(1) translate(-16 -38.875)">
<defs>
<g>
<g id="cover-0-glyph-0-0">
<path d="M 3.027344 -15.398438 L 6.4375 -15.398438 L 9.632812 -6.578125 L 8.726562 -6.578125 L 11.929688 -15.398438 L 15.34375 -15.398438 L 17.171875 0 L 14.328125 0 L 12.84375 -12.96875 L 13.472656 -12.890625 L 10.328125 -4.410156 L 8.039062 -4.410156 L 4.90625 -12.890625 L 5.523438 -12.96875 L 4.042969 0 L 1.207031 0 Z M 3.027344 -15.398438 "/>
</g>
<g id="cover-0-glyph-0-1">
<path d="M 6.546875 0.21875 C 4.851562 0.21875 3.535156 -0.300781 2.601562 -1.335938 C 1.667969 -2.375 1.199219 -3.828125 1.199219 -5.695312 C 1.199219 -7.785156 1.707031 -9.410156 2.722656 -10.574219 C 3.738281 -11.738281 5.148438 -12.320312 6.960938 -12.320312 C 8.667969 -12.320312 9.992188 -11.800781 10.929688 -10.769531 C 11.867188 -9.734375 12.339844 -8.28125 12.339844 -6.414062 C 12.339844 -4.316406 11.832031 -2.6875 10.816406 -1.523438 C 9.800781 -0.363281 8.378906 0.21875 6.546875 0.21875 Z M 6.757812 -2.339844 C 7.417969 -2.339844 7.941406 -2.460938 8.328125 -2.707031 C 8.710938 -2.949219 8.992188 -3.34375 9.167969 -3.886719 C 9.339844 -4.425781 9.429688 -5.15625 9.429688 -6.070312 C 9.429688 -6.976562 9.339844 -7.699219 9.164062 -8.234375 C 8.988281 -8.769531 8.710938 -9.15625 8.324219 -9.398438 C 7.941406 -9.640625 7.421875 -9.761719 6.761719 -9.761719 C 6.101562 -9.761719 5.582031 -9.636719 5.199219 -9.390625 C 4.816406 -9.148438 4.539062 -8.757812 4.363281 -8.21875 C 4.1875 -7.683594 4.097656 -6.957031 4.097656 -6.039062 C 4.097656 -5.125 4.1875 -4.398438 4.363281 -3.863281 C 4.539062 -3.328125 4.816406 -2.941406 5.199219 -2.699219 C 5.582031 -2.460938 6.101562 -2.339844 6.757812 -2.339844 Z M 6.757812 -2.339844 "/>
</g>
<g id="cover-0-glyph-0-2">
<path d="M 9.269531 -7.945312 C 9.269531 -8.640625 9.136719 -9.140625 8.863281 -9.457031 C 8.59375 -9.769531 8.148438 -9.929688 7.53125 -9.929688 C 6.875 -9.929688 6.289062 -9.730469 5.769531 -9.339844 C 5.253906 -8.945312 4.636719 -8.242188 3.921875 -7.226562 L 3.617188 -8.777344 C 4.203125 -9.925781 4.90625 -10.800781 5.722656 -11.410156 C 6.542969 -12.015625 7.476562 -12.320312 8.53125 -12.320312 C 9.652344 -12.320312 10.519531 -11.988281 11.140625 -11.324219 C 11.757812 -10.65625 12.066406 -9.699219 12.066406 -8.453125 L 12.066406 0 L 9.269531 0 Z M 1.832031 -12.101562 L 4.039062 -12.101562 L 4.632812 -9.082031 L 4.632812 0 L 1.832031 0 Z M 1.832031 -12.101562 "/>
</g>
<g id="cover-0-glyph-0-3">
<path d="M 1.980469 -15.398438 L 4.890625 -15.398438 L 4.890625 -1.640625 L 3.976562 -2.558594 L 11.589844 -2.558594 L 11.589844 0 L 1.980469 0 Z M 1.980469 -15.398438 "/>
</g>
<g id="cover-0-glyph-0-4">
<path d="M 1.832031 -12.101562 L 4.632812 -12.101562 L 4.632812 0 L 1.832031 0 Z M 1.710938 -17.519531 L 4.753906 -17.519531 L 4.753906 -14.542969 L 1.710938 -14.542969 Z M 1.710938 -17.519531 "/>
</g>
<g id="cover-0-glyph-0-5">
<path d="M 5.960938 0.21875 C 5.203125 0.21875 4.457031 0.140625 3.726562 -0.0117188 C 2.992188 -0.167969 2.269531 -0.410156 1.550781 -0.742188 L 1.550781 -3.121094 C 2.335938 -2.796875 3.066406 -2.554688 3.738281 -2.386719 C 4.410156 -2.222656 5.089844 -2.140625 5.773438 -2.140625 C 6.589844 -2.140625 7.167969 -2.246094 7.503906 -2.460938 C 7.84375 -2.671875 8.011719 -2.960938 8.011719 -3.324219 C 8.011719 -3.632812 7.90625 -3.890625 7.695312 -4.089844 C 7.484375 -4.292969 7.21875 -4.453125 6.894531 -4.566406 C 6.570312 -4.683594 6.113281 -4.820312 5.523438 -4.980469 C 4.679688 -5.195312 3.988281 -5.414062 3.445312 -5.648438 C 2.902344 -5.878906 2.433594 -6.234375 2.046875 -6.71875 C 1.65625 -7.203125 1.460938 -7.855469 1.460938 -8.675781 C 1.460938 -9.816406 1.882812 -10.707031 2.726562 -11.351562 C 3.570312 -11.996094 4.734375 -12.320312 6.214844 -12.320312 C 6.894531 -12.320312 7.582031 -12.253906 8.285156 -12.121094 C 8.988281 -11.988281 9.699219 -11.789062 10.421875 -11.515625 L 10.421875 -9.113281 C 9.738281 -9.402344 9.039062 -9.617188 8.324219 -9.753906 C 7.605469 -9.890625 6.945312 -9.960938 6.34375 -9.960938 C 5.605469 -9.960938 5.085938 -9.855469 4.785156 -9.648438 C 4.480469 -9.4375 4.328125 -9.144531 4.328125 -8.769531 C 4.328125 -8.425781 4.441406 -8.140625 4.667969 -7.921875 C 4.890625 -7.703125 5.171875 -7.535156 5.503906 -7.414062 C 5.839844 -7.296875 6.304688 -7.164062 6.910156 -7.019531 C 7.753906 -6.804688 8.441406 -6.589844 8.972656 -6.375 C 9.507812 -6.15625 9.964844 -5.808594 10.347656 -5.328125 C 10.730469 -4.84375 10.921875 -4.195312 10.921875 -3.382812 C 10.921875 -2.234375 10.484375 -1.347656 9.613281 -0.722656 C 8.742188 -0.09375 7.523438 0.21875 5.960938 0.21875 Z M 5.960938 0.21875 "/>
</g>
<g id="cover-0-glyph-0-6">
<path d="M 8.722656 -3.457031 L 8.722656 -7.597656 C 8.722656 -8.167969 8.640625 -8.621094 8.480469 -8.957031 C 8.316406 -9.289062 8.0625 -9.53125 7.710938 -9.679688 C 7.363281 -9.828125 6.894531 -9.90625 6.308594 -9.90625 C 5.714844 -9.90625 5.078125 -9.824219 4.398438 -9.660156 C 3.71875 -9.496094 3.050781 -9.25 2.394531 -8.917969 L 2.394531 -11.386719 C 4.046875 -12.007812 5.554688 -12.320312 6.917969 -12.320312 C 8.378906 -12.320312 9.511719 -11.949219 10.316406 -11.210938 C 11.117188 -10.476562 11.519531 -9.449219 11.519531 -8.132812 L 11.519531 -2.339844 L 11.34375 -4.277344 L 12.128906 0 L 9.425781 0 Z M 4.9375 0.21875 C 3.742188 0.21875 2.828125 -0.0820312 2.195312 -0.683594 C 1.5625 -1.285156 1.242188 -2.125 1.242188 -3.199219 C 1.242188 -4.617188 1.859375 -5.691406 3.089844 -6.425781 C 4.324219 -7.15625 6.269531 -7.523438 8.925781 -7.523438 L 8.925781 -5.722656 C 7.222656 -5.722656 5.992188 -5.554688 5.242188 -5.222656 C 4.488281 -4.890625 4.113281 -4.363281 4.113281 -3.636719 C 4.113281 -3.179688 4.257812 -2.824219 4.542969 -2.574219 C 4.832031 -2.320312 5.265625 -2.195312 5.851562 -2.195312 C 6.628906 -2.195312 7.277344 -2.40625 7.789062 -2.828125 C 8.304688 -3.25 8.765625 -3.832031 9.179688 -4.582031 L 9.347656 -2.476562 C 8.8125 -1.550781 8.1875 -0.871094 7.476562 -0.433594 C 6.765625 0.00390625 5.917969 0.21875 4.9375 0.21875 Z M 4.9375 0.21875 "/>
</g>
</g>
</defs>
<g fill="#102f45" fill-opacity="1">
<use xlink:href="#cover-0-glyph-0-0" x="16" y="38.875"/>
<use xlink:href="#cover-0-glyph-0-1" x="34.234375" y="38.875"/>
<use xlink:href="#cover-0-glyph-0-2" x="47.765625" y="38.875"/>
<use xlink:href="#cover-0-glyph-0-1" x="61.5625" y="38.875"/>
<use xlink:href="#cover-0-glyph-0-3" x="75.09375" y="38.875"/>
<use xlink:href="#cover-0-glyph-0-4" x="87.375" y="38.875"/>
<use xlink:href="#cover-0-glyph-0-5" x="93.84375" y="38.875"/>
<use xlink:href="#cover-0-glyph-0-6" x="106.078125" y="38.875"/>
</g>
</g><g transform="translate(64 116) scale(1) translate(-16 -30.5625)">
<defs>
<g>
<g id="cover-1-glyph-0-0">
<path d="M 3.039062 -9.402344 L 4.789062 -9.402344 L 4.789062 0 L 3.039062 0 Z M 0.320312 -9.800781 L 7.507812 -9.800781 L 7.507812 -8.257812 L 0.320312 -8.257812 Z M 0.320312 -9.800781 "/>
</g>
<g id="cover-1-glyph-0-1">
<path d="M 3.292969 -3.796875 L 5.042969 -3.796875 L 5.042969 0 L 3.292969 0 Z M 0.078125 -9.800781 L 2.050781 -9.800781 L 4.464844 -4.136719 L 3.863281 -4.136719 L 6.28125 -9.800781 L 8.25 -9.800781 L 4.789062 -2.542969 L 3.546875 -2.542969 Z M 0.078125 -9.800781 "/>
</g>
<g id="cover-1-glyph-0-2">
<path d="M 1.289062 -9.800781 L 4.683594 -9.800781 C 5.808594 -9.800781 6.671875 -9.527344 7.269531 -8.984375 C 7.871094 -8.441406 8.167969 -7.664062 8.167969 -6.652344 C 8.167969 -5.535156 7.84375 -4.660156 7.1875 -4.039062 C 6.535156 -3.414062 5.601562 -3.101562 4.386719 -3.101562 L 2.457031 -3.101562 L 2.457031 -4.644531 L 4.535156 -4.644531 C 5.191406 -4.644531 5.65625 -4.78125 5.929688 -5.054688 C 6.207031 -5.328125 6.347656 -5.792969 6.347656 -6.449219 C 6.347656 -7.105469 6.210938 -7.566406 5.933594 -7.839844 C 5.660156 -8.113281 5.199219 -8.25 4.542969 -8.25 L 2.457031 -8.25 L 3.039062 -8.792969 L 3.039062 0 L 1.289062 0 Z M 1.289062 -9.800781 "/>
</g>
<g id="cover-1-glyph-0-3">
<path d="M 1.289062 -9.800781 L 7.832031 -9.800781 L 7.832031 -8.257812 L 2.449219 -8.257812 L 3.039062 -8.859375 L 3.039062 -5.257812 L 2.449219 -5.855469 L 7.367188 -5.855469 L 7.367188 -4.316406 L 2.449219 -4.316406 L 3.039062 -4.90625 L 3.039062 -0.949219 L 2.449219 -1.539062 L 7.832031 -1.539062 L 7.832031 0 L 1.289062 0 Z M 1.289062 -9.800781 "/>
</g>
<g id="cover-1-glyph-0-4">
</g>
<g id="cover-1-glyph-0-5">
<path d="M 4.15625 -4.503906 L 4.15625 -5.410156 L 6.476562 -9.800781 L 8.457031 -9.800781 L 5.269531 -4.464844 L 5.269531 -5.457031 L 8.523438 0 L 6.542969 0 Z M 3.773438 -5.457031 L 3.773438 -4.464844 L 0.585938 -9.800781 L 2.570312 -9.800781 L 4.894531 -5.410156 L 4.894531 -4.503906 L 2.507812 0 L 0.527344 0 Z M 3.773438 -5.457031 "/>
</g>
<g id="cover-1-glyph-0-6">
<path d="M 1.289062 -9.800781 L 3.039062 -9.800781 L 3.039062 -0.964844 L 2.460938 -1.539062 L 7.367188 -1.539062 L 7.367188 0 L 1.289062 0 Z M 1.289062 -9.800781 "/>
</g>
<g id="cover-1-glyph-0-7">
<path d="M 0.417969 0 C 0.71875 -1.664062 1.125 -3.355469 1.632812 -5.082031 C 2.140625 -6.808594 2.707031 -8.382812 3.328125 -9.800781 L 5.359375 -9.800781 C 5.972656 -8.414062 6.53125 -6.859375 7.042969 -5.136719 C 7.550781 -3.417969 7.960938 -1.703125 8.269531 0 L 6.4375 0 C 6.121094 -1.730469 5.785156 -3.277344 5.429688 -4.632812 C 5.074219 -5.988281 4.632812 -7.386719 4.105469 -8.832031 L 4.554688 -8.832031 C 4.027344 -7.390625 3.585938 -5.988281 3.234375 -4.625 C 2.878906 -3.261719 2.546875 -1.71875 2.234375 0 Z M 2.023438 -3.382812 L 6.660156 -3.382812 L 6.660156 -1.90625 L 2.023438 -1.90625 Z M 2.023438 -3.382812 "/>
</g>
<g id="cover-1-glyph-0-8">
<path d="M 1.289062 -9.800781 L 3.039062 -9.800781 L 3.039062 0 L 1.289062 0 Z M 1.289062 -9.800781 "/>
</g>
<g id="cover-1-glyph-0-9">
<path d="M 1.289062 -9.800781 L 3.230469 -9.800781 L 7 -2.375 L 6.742188 -2.308594 L 6.742188 -9.800781 L 8.492188 -9.800781 L 8.492188 0 L 6.550781 0 L 2.773438 -7.425781 L 3.039062 -7.488281 L 3.039062 0 L 1.289062 0 Z M 1.289062 -9.800781 "/>
</g>
<g id="cover-1-glyph-0-10">
<path d="M 1.289062 -9.800781 L 4.675781 -9.800781 C 5.996094 -9.800781 7.003906 -9.40625 7.699219 -8.613281 C 8.390625 -7.824219 8.738281 -6.679688 8.738281 -5.183594 C 8.738281 -3.507812 8.367188 -2.222656 7.628906 -1.335938 C 6.886719 -0.445312 5.808594 0 4.390625 0 L 1.289062 0 Z M 2.441406 -1.546875 L 4.460938 -1.546875 C 5.066406 -1.546875 5.546875 -1.65625 5.902344 -1.875 C 6.257812 -2.09375 6.515625 -2.445312 6.675781 -2.929688 C 6.835938 -3.414062 6.914062 -4.070312 6.914062 -4.898438 C 6.914062 -5.730469 6.835938 -6.386719 6.675781 -6.875 C 6.515625 -7.363281 6.257812 -7.714844 5.902344 -7.933594 C 5.546875 -8.152344 5.070312 -8.257812 4.46875 -8.257812 L 2.441406 -8.257812 L 3.039062 -8.851562 L 3.039062 -0.957031 Z M 2.441406 -1.546875 "/>
</g>
</g>
</defs>
<g fill="#416378" fill-opacity="1">
<use xlink:href="#cover-1-glyph-0-0" x="16" y="30.5625"/>
<use xlink:href="#cover-1-glyph-0-1" x="23.828125" y="30.5625"/>
<use xlink:href="#cover-1-glyph-0-2" x="32.15625" y="30.5625"/>
<use xlink:href="#cover-1-glyph-0-3" x="40.9375" y="30.5625"/>
<use xlink:href="#cover-1-glyph-0-4" x="49.828125" y="30.5625"/>
<use xlink:href="#cover-1-glyph-0-3" x="54.046875" y="30.5625"/>
<use xlink:href="#cover-1-glyph-0-5" x="62.9375" y="30.5625"/>
<use xlink:href="#cover-1-glyph-0-2" x="72" y="30.5625"/>
<use xlink:href="#cover-1-glyph-0-6" x="80.78125" y="30.5625"/>
<use xlink:href="#cover-1-glyph-0-7" x="88.59375" y="30.5625"/>
<use xlink:href="#cover-1-glyph-0-8" x="97.28125" y="30.5625"/>
<use xlink:href="#cover-1-glyph-0-9" x="101.609375" y="30.5625"/>
<use xlink:href="#cover-1-glyph-0-3" x="111.390625" y="30.5625"/>
<use xlink:href="#cover-1-glyph-0-10" x="120.28125" y="30.5625"/>
</g>
</g><g transform="translate(61 205) scale(1) translate(-16 -80.484375)">
<defs>
<g>
<g id="cover-2-glyph-0-0">
<path d="M 12.605469 0 C 10.292969 -7.097656 8.339844 -14.414062 6.746094 -21.957031 C 5.15625 -29.503906 4.078125 -36.648438 3.511719 -43.398438 L 11.085938 -43.398438 C 11.636719 -36.871094 12.449219 -30.605469 13.523438 -24.605469 C 14.597656 -18.609375 16.070312 -12.117188 17.941406 -5.136719 L 15.339844 -4.453125 L 25.898438 -34.125 L 30.386719 -34.125 L 40.945312 -4.453125 L 38.34375 -5.136719 C 40.214844 -12.117188 41.6875 -18.609375 42.761719 -24.605469 C 43.835938 -30.605469 44.648438 -36.871094 45.199219 -43.398438 L 52.773438 -43.398438 C 52.207031 -36.648438 51.128906 -29.503906 49.539062 -21.957031 C 47.945312 -14.414062 45.992188 -7.097656 43.679688 0 L 35.859375 0 L 26.996094 -25.234375 L 29.25 -25.234375 L 20.300781 0 Z M 12.605469 0 "/>
</g>
<g id="cover-2-glyph-0-1">
<path d="M 5.351562 -45.878906 L 12.34375 -45.878906 L 12.34375 0 L 5.351562 0 Z M 26.859375 -22.894531 C 26.859375 -24.90625 26.453125 -26.382812 25.640625 -27.328125 C 24.828125 -28.269531 23.515625 -28.742188 21.695312 -28.742188 C 19.796875 -28.742188 18.050781 -28.140625 16.460938 -26.945312 C 14.871094 -25.746094 12.953125 -23.605469 10.707031 -20.519531 L 9.941406 -24.824219 C 11.664062 -28.019531 13.710938 -30.46875 16.078125 -32.167969 C 18.449219 -33.871094 21.085938 -34.71875 23.992188 -34.71875 C 27.148438 -34.71875 29.582031 -33.816406 31.289062 -32.011719 C 33 -30.207031 33.851562 -27.554688 33.851562 -24.054688 L 33.851562 0 L 26.859375 0 Z M 26.859375 -22.894531 "/>
</g>
<g id="cover-2-glyph-0-2">
<path d="M 25.003906 -10.125 L 25.003906 -22.148438 C 25.003906 -23.679688 24.757812 -24.914062 24.269531 -25.847656 C 23.78125 -26.785156 23.027344 -27.472656 22.007812 -27.90625 C 20.988281 -28.339844 19.652344 -28.554688 18 -28.554688 C 16.316406 -28.554688 14.503906 -28.320312 12.554688 -27.84375 C 10.605469 -27.367188 8.6875 -26.660156 6.800781 -25.726562 L 6.800781 -32.054688 C 11.320312 -33.832031 15.507812 -34.71875 19.367188 -34.71875 C 23.375 -34.71875 26.484375 -33.710938 28.6875 -31.691406 C 30.894531 -29.671875 31.996094 -26.871094 31.996094 -23.289062 L 31.996094 -7.042969 L 31.5 -12.480469 L 33.792969 0 L 27.007812 0 Z M 13.949219 0.621094 C 10.65625 0.621094 8.113281 -0.21875 6.324219 -1.902344 C 4.53125 -3.582031 3.636719 -5.917969 3.636719 -8.90625 C 3.636719 -12.863281 5.371094 -15.855469 8.84375 -17.890625 C 12.316406 -19.921875 17.875 -20.9375 25.519531 -20.9375 L 25.519531 -16.386719 C 20.289062 -16.386719 16.519531 -15.886719 14.210938 -14.890625 C 11.90625 -13.890625 10.753906 -12.261719 10.753906 -10.003906 C 10.753906 -8.574219 11.199219 -7.472656 12.085938 -6.699219 C 12.972656 -5.929688 14.304688 -5.542969 16.082031 -5.542969 C 18.53125 -5.542969 20.527344 -6.207031 22.070312 -7.535156 C 23.613281 -8.863281 24.949219 -10.636719 26.078125 -12.855469 L 26.636719 -7.519531 C 25.066406 -4.75 23.277344 -2.703125 21.265625 -1.375 C 19.253906 -0.0429688 16.816406 0.621094 13.949219 0.621094 Z M 13.949219 0.621094 "/>
</g>
<g id="cover-2-glyph-0-3">
<path d="M 19.65625 0.621094 C 16.222656 0.621094 13.589844 -0.507812 11.75 -2.761719 C 9.90625 -5.011719 8.988281 -8.179688 8.988281 -12.257812 L 8.988281 -34.101562 L 10.351562 -41.726562 L 15.980469 -41.726562 L 15.980469 -12.941406 C 15.980469 -10.488281 16.40625 -8.683594 17.261719 -7.527344 C 18.117188 -6.371094 19.507812 -5.792969 21.4375 -5.792969 C 23.449219 -5.792969 25.425781 -6.371094 27.367188 -7.527344 L 27.367188 -1.21875 C 24.875 0.0078125 22.304688 0.621094 19.65625 0.621094 Z M 1.714844 -32.695312 L 9.113281 -34.101562 L 27.367188 -34.101562 L 27.367188 -27.933594 L 1.714844 -27.933594 Z M 1.714844 -32.695312 "/>
</g>
<g id="cover-2-glyph-0-4">
</g>
<g id="cover-2-glyph-0-5">
<path d="M 5.351562 -34.101562 L 10.75 -34.101562 L 12.34375 -25.648438 L 12.34375 0 L 5.351562 0 Z M 10.378906 -24.964844 C 11.425781 -27.03125 12.800781 -28.886719 14.503906 -30.527344 C 16.203125 -32.164062 18.054688 -33.453125 20.058594 -34.390625 C 22.066406 -35.328125 24.050781 -35.796875 26.023438 -35.796875 L 26.023438 -28.183594 C 23.101562 -28.003906 20.371094 -27.347656 17.828125 -26.210938 C 15.285156 -25.074219 13.003906 -23.484375 10.980469 -21.449219 Z M 10.378906 -24.964844 "/>
</g>
<g id="cover-2-glyph-0-6">
<path d="M 18.929688 0.621094 C 13.984375 0.621094 10.175781 -0.8125 7.511719 -3.679688 C 4.84375 -6.542969 3.511719 -10.644531 3.511719 -15.976562 C 3.511719 -19.804688 4.136719 -23.121094 5.382812 -25.925781 C 6.628906 -28.730469 8.472656 -30.898438 10.910156 -32.425781 C 13.351562 -33.957031 16.285156 -34.71875 19.714844 -34.71875 C 25.339844 -34.71875 29.21875 -32.855469 31.355469 -29.128906 C 33.488281 -25.402344 34.316406 -20.507812 33.832031 -14.445312 L 8.332031 -14.445312 L 8.332031 -19.863281 L 29.320312 -19.863281 L 26.800781 -17.214844 C 26.800781 -20.050781 26.566406 -22.277344 26.097656 -23.886719 C 25.628906 -25.5 24.847656 -26.667969 23.753906 -27.398438 C 22.660156 -28.128906 21.140625 -28.492188 19.199219 -28.492188 C 16.183594 -28.492188 14.015625 -27.621094 12.695312 -25.878906 C 11.371094 -24.140625 10.710938 -21.179688 10.710938 -17.007812 C 10.710938 -14.199219 11.023438 -11.964844 11.652344 -10.304688 C 12.277344 -8.644531 13.253906 -7.449219 14.585938 -6.710938 C 15.914062 -5.972656 17.660156 -5.605469 19.820312 -5.605469 C 21.777344 -5.605469 23.765625 -5.867188 25.792969 -6.390625 C 27.820312 -6.914062 29.726562 -7.652344 31.519531 -8.601562 L 31.519531 -2.375 C 29.699219 -1.410156 27.679688 -0.671875 25.460938 -0.15625 C 23.242188 0.363281 21.066406 0.621094 18.929688 0.621094 Z M 18.929688 0.621094 "/>
</g>
</g>
</defs>
<g fill="#102f45" fill-opacity="1">
<use xlink:href="#cover-2-glyph-0-0" x="16" y="80.484375"/>
<use xlink:href="#cover-2-glyph-0-1" x="72.296875" y="80.484375"/>
<use xlink:href="#cover-2-glyph-0-2" x="111.234375" y="80.484375"/>
<use xlink:href="#cover-2-glyph-0-3" x="148.8125" y="80.484375"/>
<use xlink:href="#cover-2-glyph-0-4" x="179.1875" y="80.484375"/>
<use xlink:href="#cover-2-glyph-0-2" x="197.65625" y="80.484375"/>
<use xlink:href="#cover-2-glyph-0-5" x="235.234375" y="80.484375"/>
<use xlink:href="#cover-2-glyph-0-6" x="262.015625" y="80.484375"/>
</g>
</g><g transform="translate(61 277) scale(0.9534883720930233) translate(-16 -80.484375)">
<defs>
<g>
<g id="cover-3-glyph-0-0">
<path d="M 8.824219 -32.261719 C 8.824219 -35.59375 9.417969 -38.308594 10.613281 -40.402344 C 11.804688 -42.496094 13.6875 -44.046875 16.257812 -45.054688 C 18.828125 -46.058594 22.222656 -46.5625 26.4375 -46.5625 L 26.4375 -40.605469 C 23.476562 -40.605469 21.253906 -40.378906 19.773438 -39.933594 C 18.292969 -39.484375 17.261719 -38.691406 16.683594 -37.546875 C 16.105469 -36.402344 15.816406 -34.695312 15.816406 -32.425781 L 15.816406 0 L 8.824219 0 Z M 2.5625 -32.957031 L 26.398438 -32.957031 L 26.398438 -27.105469 L 2.5625 -27.105469 Z M 2.5625 -32.957031 "/>
</g>
<g id="cover-3-glyph-0-1">
<path d="M 18.390625 0.621094 C 13.652344 0.621094 9.988281 -0.839844 7.398438 -3.761719 C 4.808594 -6.683594 3.511719 -10.789062 3.511719 -16.078125 C 3.511719 -21.976562 4.925781 -26.554688 7.75 -29.820312 C 10.574219 -33.085938 14.519531 -34.71875 19.585938 -34.71875 C 24.355469 -34.71875 28.042969 -33.265625 30.640625 -30.359375 C 33.238281 -27.453125 34.535156 -23.351562 34.535156 -18.0625 C 34.535156 -12.136719 33.125 -7.542969 30.296875 -4.277344 C 27.472656 -1.011719 23.503906 0.621094 18.390625 0.621094 Z M 18.992188 -5.792969 C 21.03125 -5.792969 22.644531 -6.164062 23.839844 -6.90625 C 25.03125 -7.644531 25.898438 -8.839844 26.441406 -10.488281 C 26.984375 -12.140625 27.253906 -14.351562 27.253906 -17.132812 C 27.253906 -19.886719 26.980469 -22.070312 26.4375 -23.691406 C 25.894531 -25.308594 25.027344 -26.480469 23.835938 -27.210938 C 22.644531 -27.941406 21.03125 -28.308594 19 -28.308594 C 16.964844 -28.308594 15.355469 -27.933594 14.175781 -27.191406 C 12.996094 -26.449219 12.132812 -25.261719 11.589844 -23.628906 C 11.046875 -21.996094 10.773438 -19.789062 10.773438 -17.007812 C 10.773438 -14.226562 11.046875 -12.027344 11.589844 -10.40625 C 12.132812 -8.785156 12.996094 -7.609375 14.175781 -6.882812 C 15.355469 -6.15625 16.960938 -5.792969 18.992188 -5.792969 Z M 18.992188 -5.792969 "/>
</g>
<g id="cover-3-glyph-0-2">
<path d="M 26.859375 -22.894531 C 26.859375 -24.90625 26.453125 -26.382812 25.640625 -27.328125 C 24.828125 -28.269531 23.515625 -28.742188 21.695312 -28.742188 C 19.796875 -28.742188 18.050781 -28.140625 16.460938 -26.945312 C 14.871094 -25.746094 12.953125 -23.605469 10.707031 -20.519531 L 9.941406 -24.613281 C 11.679688 -27.894531 13.722656 -30.398438 16.078125 -32.125 C 18.433594 -33.855469 21.105469 -34.71875 24.097656 -34.71875 C 27.199219 -34.71875 29.597656 -33.8125 31.300781 -32 C 33.003906 -30.1875 33.851562 -27.539062 33.851562 -24.054688 L 33.851562 0 L 26.859375 0 Z M 5.351562 -34.101562 L 10.792969 -34.101562 L 12.34375 -25.648438 L 12.34375 0 L 5.351562 0 Z M 5.351562 -34.101562 "/>
</g>
<g id="cover-3-glyph-0-3">
<path d="M 19.65625 0.621094 C 16.222656 0.621094 13.589844 -0.507812 11.75 -2.761719 C 9.90625 -5.011719 8.988281 -8.179688 8.988281 -12.257812 L 8.988281 -34.101562 L 10.351562 -41.726562 L 15.980469 -41.726562 L 15.980469 -12.941406 C 15.980469 -10.488281 16.40625 -8.683594 17.261719 -7.527344 C 18.117188 -6.371094 19.507812 -5.792969 21.4375 -5.792969 C 23.449219 -5.792969 25.425781 -6.371094 27.367188 -7.527344 L 27.367188 -1.21875 C 24.875 0.0078125 22.304688 0.621094 19.65625 0.621094 Z M 1.714844 -32.695312 L 9.113281 -34.101562 L 27.367188 -34.101562 L 27.367188 -27.933594 L 1.714844 -27.933594 Z M 1.714844 -32.695312 "/>
</g>
<g id="cover-3-glyph-0-4">
</g>
<g id="cover-3-glyph-0-5">
<path d="M 14.078125 0.621094 C 11.210938 0.621094 9.015625 -0.246094 7.492188 -1.976562 C 5.96875 -3.703125 5.207031 -6.238281 5.207031 -9.574219 L 5.207031 -45.878906 L 12.199219 -45.878906 L 12.199219 -9.882812 C 12.199219 -8.421875 12.492188 -7.375 13.078125 -6.742188 C 13.664062 -6.109375 14.636719 -5.792969 16 -5.792969 C 17.65625 -5.792969 19.15625 -6.207031 20.507812 -7.03125 L 20.507812 -0.992188 C 18.5625 0.0820312 16.421875 0.621094 14.078125 0.621094 Z M 14.078125 0.621094 "/>
</g>
<g id="cover-3-glyph-0-6">
<path d="M 5.351562 -34.101562 L 12.34375 -34.101562 L 12.34375 0 L 5.351562 0 Z M 4.898438 -48.859375 L 12.796875 -48.859375 L 12.796875 -40.980469 L 4.898438 -40.980469 Z M 4.898438 -48.859375 "/>
</g>
<g id="cover-3-glyph-0-7">
<path d="M 18.269531 12.648438 C 13.476562 12.648438 9.660156 11.816406 6.828125 10.15625 C 4 8.5 2.582031 6.140625 2.582031 3.082031 C 2.582031 1.289062 3.105469 -0.429688 4.152344 -2.074219 C 5.199219 -3.722656 7.019531 -5.054688 9.605469 -6.074219 L 15.484375 -4.273438 C 13.515625 -3.738281 12.082031 -2.976562 11.1875 -1.992188 C 10.292969 -1.007812 9.84375 0.15625 9.84375 1.507812 C 9.84375 3.242188 10.601562 4.5625 12.117188 5.464844 C 13.628906 6.367188 15.894531 6.816406 18.910156 6.816406 C 21.085938 6.816406 22.90625 6.59375 24.375 6.144531 C 25.839844 5.699219 26.925781 5.085938 27.628906 4.308594 C 28.328125 3.53125 28.679688 2.652344 28.679688 1.675781 C 28.679688 0.546875 28.242188 -0.3125 27.371094 -0.898438 C 26.496094 -1.480469 25.394531 -1.875 24.074219 -2.074219 C 22.75 -2.273438 20.976562 -2.449219 18.742188 -2.601562 C 15.960938 -2.796875 13.742188 -3.046875 12.089844 -3.355469 C 10.433594 -3.667969 9.019531 -4.28125 7.839844 -5.195312 C 6.664062 -6.113281 6.074219 -7.480469 6.074219 -9.300781 C 6.074219 -10.648438 6.4375 -11.886719 7.167969 -13.007812 C 7.898438 -14.132812 8.941406 -15.160156 10.289062 -16.097656 L 14.386719 -14.878906 C 13.742188 -14.203125 13.246094 -13.535156 12.902344 -12.875 C 12.558594 -12.214844 12.382812 -11.578125 12.382812 -10.972656 C 12.382812 -10.09375 12.765625 -9.429688 13.53125 -8.992188 C 14.296875 -8.550781 15.25 -8.261719 16.394531 -8.125 C 17.535156 -7.984375 19.132812 -7.875 21.1875 -7.792969 C 24.300781 -7.667969 26.828125 -7.425781 28.769531 -7.070312 C 30.714844 -6.710938 32.394531 -5.929688 33.8125 -4.722656 C 35.234375 -3.515625 35.941406 -1.6875 35.941406 0.765625 C 35.941406 3.136719 35.257812 5.210938 33.886719 6.996094 C 32.515625 8.78125 30.503906 10.167969 27.851562 11.160156 C 25.199219 12.152344 22.003906 12.648438 18.269531 12.648438 Z M 18.683594 -12.957031 C 14.371094 -12.957031 11.015625 -13.871094 8.617188 -15.695312 C 6.21875 -17.519531 5.019531 -20.058594 5.019531 -23.3125 C 5.019531 -26.894531 6.324219 -29.703125 8.925781 -31.734375 C 11.53125 -33.765625 15.136719 -34.78125 19.738281 -34.78125 C 24.066406 -34.78125 27.4375 -33.855469 29.855469 -32.003906 C 32.273438 -30.148438 33.484375 -27.554688 33.484375 -24.222656 C 33.484375 -20.695312 32.175781 -17.933594 29.558594 -15.945312 C 26.9375 -13.953125 23.3125 -12.957031 18.683594 -12.957031 Z M 19.304688 -18.644531 C 21.835938 -18.644531 23.65625 -19.050781 24.757812 -19.863281 C 25.859375 -20.675781 26.410156 -21.988281 26.410156 -23.808594 C 26.410156 -25.652344 25.851562 -26.996094 24.734375 -27.835938 C 23.621094 -28.675781 21.78125 -29.09375 19.222656 -29.09375 C 16.6875 -29.09375 14.871094 -28.695312 13.769531 -27.898438 C 12.667969 -27.097656 12.117188 -25.789062 12.117188 -23.972656 C 12.117188 -22.101562 12.671875 -20.742188 13.789062 -19.902344 C 14.902344 -19.0625 16.742188 -18.644531 19.304688 -18.644531 Z M 25.605469 -31.039062 L 28.578125 -40.175781 L 36.085938 -40.175781 L 28.957031 -30.007812 Z M 25.605469 -31.039062 "/>
</g>
<g id="cover-3-glyph-0-8">
<path d="M 25.003906 -10.125 L 25.003906 -22.148438 C 25.003906 -23.679688 24.757812 -24.914062 24.269531 -25.847656 C 23.78125 -26.785156 23.027344 -27.472656 22.007812 -27.90625 C 20.988281 -28.339844 19.652344 -28.554688 18 -28.554688 C 16.316406 -28.554688 14.503906 -28.320312 12.554688 -27.84375 C 10.605469 -27.367188 8.6875 -26.660156 6.800781 -25.726562 L 6.800781 -32.054688 C 11.320312 -33.832031 15.507812 -34.71875 19.367188 -34.71875 C 23.375 -34.71875 26.484375 -33.710938 28.6875 -31.691406 C 30.894531 -29.671875 31.996094 -26.871094 31.996094 -23.289062 L 31.996094 -7.042969 L 31.5 -12.480469 L 33.792969 0 L 27.007812 0 Z M 13.949219 0.621094 C 10.65625 0.621094 8.113281 -0.21875 6.324219 -1.902344 C 4.53125 -3.582031 3.636719 -5.917969 3.636719 -8.90625 C 3.636719 -12.863281 5.371094 -15.855469 8.84375 -17.890625 C 12.316406 -19.921875 17.875 -20.9375 25.519531 -20.9375 L 25.519531 -16.386719 C 20.289062 -16.386719 16.519531 -15.886719 14.210938 -14.890625 C 11.90625 -13.890625 10.753906 -12.261719 10.753906 -10.003906 C 10.753906 -8.574219 11.199219 -7.472656 12.085938 -6.699219 C 12.972656 -5.929688 14.304688 -5.542969 16.082031 -5.542969 C 18.53125 -5.542969 20.527344 -6.207031 22.070312 -7.535156 C 23.613281 -8.863281 24.949219 -10.636719 26.078125 -12.855469 L 26.636719 -7.519531 C 25.066406 -4.75 23.277344 -2.703125 21.265625 -1.375 C 19.253906 -0.0429688 16.816406 0.621094 13.949219 0.621094 Z M 13.949219 0.621094 "/>
</g>
<g id="cover-3-glyph-0-9">
<path d="M 12.074219 -11.207031 C 12.074219 -9.195312 12.480469 -7.71875 13.292969 -6.773438 C 14.105469 -5.832031 15.421875 -5.359375 17.238281 -5.359375 C 19.140625 -5.359375 20.886719 -5.957031 22.476562 -7.15625 C 24.066406 -8.355469 25.984375 -10.496094 28.226562 -13.578125 L 28.992188 -9.484375 C 27.257812 -6.207031 25.210938 -3.703125 22.855469 -1.972656 C 20.5 -0.246094 17.828125 0.621094 14.839844 0.621094 C 11.738281 0.621094 9.335938 -0.285156 7.636719 -2.097656 C 5.933594 -3.910156 5.082031 -6.558594 5.082031 -10.046875 L 5.082031 -34.101562 L 12.074219 -34.101562 Z M 33.585938 0 L 28.144531 0 L 26.59375 -8.453125 L 26.59375 -34.101562 L 33.585938 -34.101562 Z M 33.585938 0 "/>
</g>
<g id="cover-3-glyph-0-10">
<path d="M 5.351562 -34.101562 L 10.75 -34.101562 L 12.34375 -25.648438 L 12.34375 0 L 5.351562 0 Z M 10.378906 -24.964844 C 11.425781 -27.03125 12.800781 -28.886719 14.503906 -30.527344 C 16.203125 -32.164062 18.054688 -33.453125 20.058594 -34.390625 C 22.066406 -35.328125 24.050781 -35.796875 26.023438 -35.796875 L 26.023438 -28.183594 C 23.101562 -28.003906 20.371094 -27.347656 17.828125 -26.210938 C 15.285156 -25.074219 13.003906 -23.484375 10.980469 -21.449219 Z M 10.378906 -24.964844 "/>
</g>
<g id="cover-3-glyph-0-11">
<path d="M 18.929688 0.621094 C 13.984375 0.621094 10.175781 -0.8125 7.511719 -3.679688 C 4.84375 -6.542969 3.511719 -10.644531 3.511719 -15.976562 C 3.511719 -19.804688 4.136719 -23.121094 5.382812 -25.925781 C 6.628906 -28.730469 8.472656 -30.898438 10.910156 -32.425781 C 13.351562 -33.957031 16.285156 -34.71875 19.714844 -34.71875 C 25.339844 -34.71875 29.21875 -32.855469 31.355469 -29.128906 C 33.488281 -25.402344 34.316406 -20.507812 33.832031 -14.445312 L 8.332031 -14.445312 L 8.332031 -19.863281 L 29.320312 -19.863281 L 26.800781 -17.214844 C 26.800781 -20.050781 26.566406 -22.277344 26.097656 -23.886719 C 25.628906 -25.5 24.847656 -26.667969 23.753906 -27.398438 C 22.660156 -28.128906 21.140625 -28.492188 19.199219 -28.492188 C 16.183594 -28.492188 14.015625 -27.621094 12.695312 -25.878906 C 11.371094 -24.140625 10.710938 -21.179688 10.710938 -17.007812 C 10.710938 -14.199219 11.023438 -11.964844 11.652344 -10.304688 C 12.277344 -8.644531 13.253906 -7.449219 14.585938 -6.710938 C 15.914062 -5.972656 17.660156 -5.605469 19.820312 -5.605469 C 21.777344 -5.605469 23.765625 -5.867188 25.792969 -6.390625 C 27.820312 -6.914062 29.726562 -7.652344 31.519531 -8.601562 L 31.519531 -2.375 C 29.699219 -1.410156 27.679688 -0.671875 25.460938 -0.15625 C 23.242188 0.363281 21.066406 0.621094 18.929688 0.621094 Z M 18.929688 0.621094 "/>
</g>
<g id="cover-3-glyph-0-12">
<path d="M 16.660156 0.621094 C 14.578125 0.621094 12.515625 0.410156 10.476562 -0.0117188 C 8.4375 -0.429688 6.453125 -1.101562 4.523438 -2.027344 L 4.523438 -8.128906 C 6.621094 -7.21875 8.605469 -6.535156 10.476562 -6.082031 C 12.351562 -5.625 14.246094 -5.398438 16.164062 -5.398438 C 18.601562 -5.398438 20.339844 -5.742188 21.386719 -6.429688 C 22.433594 -7.121094 22.957031 -8.042969 22.957031 -9.199219 C 22.957031 -10.148438 22.648438 -10.929688 22.027344 -11.542969 C 21.40625 -12.15625 20.625 -12.632812 19.683594 -12.976562 C 18.738281 -13.320312 17.40625 -13.726562 15.683594 -14.195312 C 13.300781 -14.804688 11.347656 -15.429688 9.824219 -16.078125 C 8.304688 -16.726562 6.996094 -17.730469 5.910156 -19.09375 C 4.820312 -20.457031 4.277344 -22.296875 4.277344 -24.613281 C 4.277344 -27.714844 5.417969 -30.171875 7.699219 -31.992188 C 9.980469 -33.8125 13.160156 -34.71875 17.238281 -34.71875 C 19.097656 -34.71875 21.007812 -34.535156 22.964844 -34.160156 C 24.921875 -33.789062 26.851562 -33.226562 28.753906 -32.46875 L 28.753906 -26.324219 C 26.824219 -27.179688 24.933594 -27.789062 23.085938 -28.152344 C 21.238281 -28.519531 19.46875 -28.699219 17.773438 -28.699219 C 15.460938 -28.699219 13.824219 -28.359375 12.859375 -27.679688 C 11.894531 -26.996094 11.414062 -26.050781 11.414062 -24.839844 C 11.414062 -23.765625 11.75 -22.890625 12.417969 -22.21875 C 13.085938 -21.542969 13.910156 -21.027344 14.894531 -20.667969 C 15.878906 -20.308594 17.261719 -19.917969 19.039062 -19.492188 C 21.40625 -18.898438 23.335938 -18.300781 24.824219 -17.691406 C 26.3125 -17.085938 27.585938 -16.113281 28.648438 -14.769531 C 29.710938 -13.425781 30.238281 -11.609375 30.238281 -9.324219 C 30.238281 -6.222656 29.054688 -3.789062 26.683594 -2.023438 C 24.3125 -0.261719 20.972656 0.621094 16.660156 0.621094 Z M 16.660156 0.621094 "/>
</g>
<g id="cover-3-glyph-0-13">
<path d="M 9.898438 -9.429688 L 18.75 -9.429688 L 18.75 0 L 9.898438 0 Z M 11.429688 -22.839844 C 15.890625 -22.839844 19.203125 -23.375 21.359375 -24.449219 C 23.511719 -25.523438 24.589844 -27.105469 24.589844 -29.199219 C 24.589844 -30.988281 23.792969 -32.484375 22.195312 -33.683594 C 20.597656 -34.878906 18.113281 -35.785156 14.746094 -36.398438 C 11.378906 -37.011719 7.082031 -37.316406 1.859375 -37.316406 L 1.859375 -44.019531 C 11.535156 -44.019531 18.96875 -42.800781 24.164062 -40.363281 C 29.359375 -37.921875 31.957031 -34.421875 31.957031 -29.863281 C 31.957031 -27.476562 31.242188 -25.417969 29.816406 -23.683594 C 28.390625 -21.945312 26.390625 -20.613281 23.8125 -19.683594 C 21.234375 -18.753906 18.253906 -18.273438 14.863281 -18.246094 L 17.179688 -20.480469 L 16.578125 -13.394531 L 12.070312 -13.394531 Z M 11.429688 -22.839844 "/>
</g>
</g>
</defs>
<g fill="#102f45" fill-opacity="1">
<use xlink:href="#cover-3-glyph-0-0" x="16" y="80.484375"/>
<use xlink:href="#cover-3-glyph-0-1" x="44.078125" y="80.484375"/>
<use xlink:href="#cover-3-glyph-0-2" x="82.140625" y="80.484375"/>
<use xlink:href="#cover-3-glyph-0-3" x="121.078125" y="80.484375"/>
<use xlink:href="#cover-3-glyph-0-4" x="151.453125" y="80.484375"/>
<use xlink:href="#cover-3-glyph-0-5" x="169.921875" y="80.484375"/>
<use xlink:href="#cover-3-glyph-0-6" x="192.296875" y="80.484375"/>
<use xlink:href="#cover-3-glyph-0-7" x="209.96875" y="80.484375"/>
<use xlink:href="#cover-3-glyph-0-8" x="249.03125" y="80.484375"/>
<use xlink:href="#cover-3-glyph-0-3" x="286.609375" y="80.484375"/>
<use xlink:href="#cover-3-glyph-0-9" x="316.984375" y="80.484375"/>
<use xlink:href="#cover-3-glyph-0-10" x="355.921875" y="80.484375"/>
<use xlink:href="#cover-3-glyph-0-11" x="382.703125" y="80.484375"/>
<use xlink:href="#cover-3-glyph-0-12" x="420.515625" y="80.484375"/>
<use xlink:href="#cover-3-glyph-0-13" x="454.1875" y="80.484375"/>
</g>
</g><g transform="translate(64 365) scale(1) translate(-16 -30.5625)">
<defs>
<g>
<g id="cover-4-glyph-0-0">
<path d="M 1.230469 -7.699219 L 2.367188 -7.699219 L 2.707031 -5.796875 L 2.707031 0 L 1.230469 0 Z M 5.703125 -5.214844 C 5.703125 -5.671875 5.617188 -6.011719 5.449219 -6.238281 C 5.28125 -6.464844 5.011719 -6.578125 4.640625 -6.578125 C 4.253906 -6.578125 3.898438 -6.4375 3.566406 -6.152344 C 3.234375 -5.867188 2.839844 -5.367188 2.378906 -4.652344 L 2.214844 -5.542969 C 2.558594 -6.285156 2.980469 -6.855469 3.472656 -7.25 C 3.964844 -7.644531 4.515625 -7.839844 5.125 -7.839844 C 5.769531 -7.839844 6.273438 -7.636719 6.636719 -7.226562 C 6.996094 -6.816406 7.179688 -6.21875 7.179688 -5.4375 L 7.179688 0 L 5.703125 0 Z M 10.175781 -5.214844 C 10.175781 -5.671875 10.089844 -6.011719 9.921875 -6.238281 C 9.753906 -6.464844 9.484375 -6.578125 9.113281 -6.578125 C 8.726562 -6.578125 8.371094 -6.4375 8.039062 -6.152344 C 7.707031 -5.867188 7.3125 -5.367188 6.851562 -4.652344 L 6.6875 -5.542969 C 7.03125 -6.285156 7.453125 -6.855469 7.945312 -7.25 C 8.4375 -7.644531 8.988281 -7.839844 9.597656 -7.839844 C 10.242188 -7.839844 10.746094 -7.636719 11.109375 -7.226562 C 11.46875 -6.816406 11.652344 -6.21875 11.652344 -5.4375 L 11.652344 0 L 10.175781 0 Z M 10.175781 -5.214844 "/>
</g>
<g id="cover-4-glyph-0-1">
<path d="M 4.144531 0.140625 C 3.082031 0.140625 2.257812 -0.191406 1.679688 -0.847656 C 1.097656 -1.507812 0.808594 -2.4375 0.808594 -3.632812 C 0.808594 -4.964844 1.125 -6 1.757812 -6.734375 C 2.394531 -7.472656 3.277344 -7.839844 4.417969 -7.839844 C 5.492188 -7.839844 6.320312 -7.511719 6.898438 -6.855469 C 7.480469 -6.203125 7.769531 -5.273438 7.769531 -4.078125 C 7.769531 -2.738281 7.453125 -1.699219 6.820312 -0.964844 C 6.1875 -0.226562 5.292969 0.140625 4.144531 0.140625 Z M 4.28125 -1.214844 C 4.761719 -1.214844 5.144531 -1.300781 5.425781 -1.476562 C 5.707031 -1.648438 5.914062 -1.929688 6.039062 -2.316406 C 6.167969 -2.703125 6.234375 -3.21875 6.234375 -3.871094 C 6.234375 -4.515625 6.167969 -5.027344 6.039062 -5.40625 C 5.910156 -5.785156 5.707031 -6.058594 5.425781 -6.230469 C 5.144531 -6.398438 4.761719 -6.484375 4.285156 -6.484375 C 3.804688 -6.484375 3.425781 -6.398438 3.144531 -6.222656 C 2.867188 -6.050781 2.664062 -5.769531 2.535156 -5.390625 C 2.40625 -5.007812 2.34375 -4.492188 2.34375 -3.839844 C 2.34375 -3.1875 2.40625 -2.671875 2.535156 -2.292969 C 2.664062 -1.914062 2.867188 -1.640625 3.144531 -1.46875 C 3.425781 -1.300781 3.804688 -1.214844 4.28125 -1.214844 Z M 4.28125 -1.214844 "/>
</g>
<g id="cover-4-glyph-0-2">
<path d="M 6.148438 -5.226562 C 6.148438 -5.6875 6.054688 -6.027344 5.867188 -6.25 C 5.675781 -6.46875 5.375 -6.578125 4.953125 -6.578125 C 4.519531 -6.578125 4.113281 -6.4375 3.738281 -6.15625 C 3.363281 -5.875 2.910156 -5.375 2.378906 -4.652344 L 2.214844 -5.542969 C 2.617188 -6.289062 3.085938 -6.859375 3.625 -7.25 C 4.164062 -7.644531 4.769531 -7.839844 5.449219 -7.839844 C 6.140625 -7.839844 6.679688 -7.640625 7.058594 -7.238281 C 7.4375 -6.835938 7.625 -6.242188 7.625 -5.457031 L 7.625 0 L 6.148438 0 Z M 1.230469 -7.699219 L 2.367188 -7.699219 L 2.707031 -5.796875 L 2.707031 0 L 1.230469 0 Z M 1.230469 -7.699219 "/>
</g>
<g id="cover-4-glyph-0-3">
<path d="M 3.128906 0.140625 C 2.507812 0.140625 2.027344 -0.0507812 1.695312 -0.429688 C 1.359375 -0.808594 1.195312 -1.363281 1.195312 -2.101562 L 1.195312 -10.359375 L 2.667969 -10.359375 L 2.667969 -2.15625 C 2.667969 -1.824219 2.738281 -1.582031 2.871094 -1.433594 C 3.003906 -1.289062 3.222656 -1.214844 3.53125 -1.214844 C 3.90625 -1.214844 4.242188 -1.308594 4.542969 -1.5 L 4.542969 -0.21875 C 4.113281 0.0195312 3.644531 0.140625 3.128906 0.140625 Z M 3.128906 0.140625 "/>
</g>
<g id="cover-4-glyph-0-4">
<path d="M 1.230469 -7.699219 L 2.707031 -7.699219 L 2.707031 0 L 1.230469 0 Z M 1.113281 -10.972656 L 2.820312 -10.972656 L 2.820312 -9.253906 L 1.113281 -9.253906 Z M 1.113281 -10.972656 "/>
</g>
<g id="cover-4-glyph-0-5">
<path d="M 3.746094 0.140625 C 3.28125 0.140625 2.820312 0.09375 2.363281 0 C 1.90625 -0.09375 1.464844 -0.242188 1.039062 -0.449219 L 1.039062 -1.757812 C 1.5 -1.550781 1.9375 -1.398438 2.359375 -1.296875 C 2.78125 -1.195312 3.207031 -1.144531 3.636719 -1.144531 C 4.203125 -1.144531 4.609375 -1.230469 4.855469 -1.394531 C 5.105469 -1.558594 5.226562 -1.78125 5.226562 -2.058594 C 5.226562 -2.28125 5.15625 -2.464844 5.011719 -2.609375 C 4.871094 -2.75 4.691406 -2.863281 4.472656 -2.941406 C 4.257812 -3.023438 3.953125 -3.117188 3.554688 -3.222656 C 3.015625 -3.363281 2.574219 -3.503906 2.234375 -3.648438 C 1.890625 -3.796875 1.597656 -4.023438 1.351562 -4.328125 C 1.105469 -4.636719 0.984375 -5.054688 0.984375 -5.574219 C 0.984375 -6.265625 1.234375 -6.8125 1.738281 -7.222656 C 2.242188 -7.632812 2.949219 -7.839844 3.859375 -7.839844 C 4.273438 -7.839844 4.703125 -7.796875 5.140625 -7.714844 C 5.578125 -7.628906 6.007812 -7.503906 6.421875 -7.332031 L 6.421875 -6.019531 C 5.984375 -6.214844 5.566406 -6.355469 5.171875 -6.433594 C 4.773438 -6.515625 4.382812 -6.554688 4 -6.554688 C 3.453125 -6.554688 3.0625 -6.472656 2.832031 -6.308594 C 2.601562 -6.140625 2.488281 -5.914062 2.488281 -5.625 C 2.488281 -5.371094 2.5625 -5.164062 2.71875 -5.003906 C 2.875 -4.84375 3.066406 -4.722656 3.292969 -4.640625 C 3.519531 -4.558594 3.839844 -4.464844 4.25 -4.367188 C 4.78125 -4.234375 5.21875 -4.101562 5.550781 -3.964844 C 5.886719 -3.828125 6.171875 -3.609375 6.410156 -3.308594 C 6.648438 -3.003906 6.765625 -2.597656 6.765625 -2.082031 C 6.765625 -1.394531 6.503906 -0.855469 5.976562 -0.457031 C 5.453125 -0.0585938 4.707031 0.140625 3.746094 0.140625 Z M 3.746094 0.140625 "/>
</g>
<g id="cover-4-glyph-0-6">
<path d="M 5.695312 -2.328125 L 5.695312 -5.085938 C 5.695312 -5.421875 5.636719 -5.695312 5.523438 -5.90625 C 5.410156 -6.117188 5.234375 -6.273438 5 -6.375 C 4.765625 -6.472656 4.464844 -6.523438 4.089844 -6.523438 C 3.710938 -6.523438 3.296875 -6.46875 2.851562 -6.359375 C 2.410156 -6.25 1.972656 -6.089844 1.542969 -5.878906 L 1.542969 -7.234375 C 2.546875 -7.636719 3.484375 -7.839844 4.359375 -7.839844 C 5.25 -7.839844 5.941406 -7.617188 6.433594 -7.167969 C 6.925781 -6.71875 7.171875 -6.097656 7.171875 -5.300781 L 7.171875 -1.640625 L 7.058594 -2.867188 L 7.585938 0 L 6.148438 0 Z M 3.15625 0.140625 C 2.417969 0.140625 1.847656 -0.046875 1.445312 -0.425781 C 1.039062 -0.804688 0.835938 -1.328125 0.835938 -2 C 0.835938 -2.886719 1.226562 -3.558594 2.011719 -4.015625 C 2.796875 -4.46875 4.0625 -4.699219 5.804688 -4.699219 L 5.804688 -3.730469 C 4.574219 -3.730469 3.6875 -3.613281 3.144531 -3.382812 C 2.601562 -3.148438 2.332031 -2.765625 2.332031 -2.230469 C 2.332031 -1.890625 2.4375 -1.628906 2.644531 -1.449219 C 2.855469 -1.269531 3.167969 -1.175781 3.585938 -1.175781 C 4.167969 -1.175781 4.636719 -1.335938 4.996094 -1.652344 C 5.355469 -1.96875 5.660156 -2.382812 5.914062 -2.898438 L 6.046875 -1.761719 C 5.6875 -1.117188 5.28125 -0.640625 4.824219 -0.328125 C 4.371094 -0.015625 3.8125 0.140625 3.15625 0.140625 Z M 3.15625 0.140625 "/>
</g>
<g id="cover-4-glyph-0-7">
<path d="M 1.050781 -2.070312 L 2.988281 -2.070312 L 2.988281 0 L 1.050781 0 Z M 1.050781 -2.070312 "/>
</g>
<g id="cover-4-glyph-0-8">
<path d="M 3.8125 0.140625 C 2.878906 0.140625 2.148438 -0.203125 1.617188 -0.890625 C 1.085938 -1.578125 0.820312 -2.539062 0.820312 -3.78125 C 0.820312 -4.628906 0.945312 -5.355469 1.191406 -5.96875 C 1.4375 -6.578125 1.792969 -7.042969 2.25 -7.363281 C 2.707031 -7.679688 3.25 -7.839844 3.871094 -7.839844 C 4.449219 -7.839844 4.941406 -7.703125 5.347656 -7.429688 C 5.757812 -7.15625 6.089844 -6.765625 6.347656 -6.265625 L 6.375 -4.949219 C 6.046875 -5.519531 5.707031 -5.921875 5.355469 -6.15625 C 5.003906 -6.394531 4.597656 -6.511719 4.132812 -6.511719 C 3.515625 -6.511719 3.066406 -6.308594 2.78125 -5.90625 C 2.5 -5.5 2.355469 -4.832031 2.355469 -3.894531 C 2.355469 -2.960938 2.5 -2.277344 2.792969 -1.839844 C 3.085938 -1.40625 3.523438 -1.1875 4.113281 -1.1875 C 4.652344 -1.1875 5.085938 -1.339844 5.414062 -1.648438 C 5.742188 -1.957031 6.054688 -2.367188 6.351562 -2.882812 L 6.414062 -1.789062 C 6.183594 -1.15625 5.847656 -0.675781 5.40625 -0.351562 C 4.964844 -0.0234375 4.433594 0.140625 3.8125 0.140625 Z M 6.132812 -1.917969 L 6.132812 -10.359375 L 7.605469 -10.359375 L 7.605469 0 L 6.46875 0 Z M 6.132812 -1.917969 "/>
</g>
<g id="cover-4-glyph-0-9">
<path d="M 4.273438 0.140625 C 3.171875 0.140625 2.316406 -0.183594 1.714844 -0.832031 C 1.109375 -1.480469 0.808594 -2.40625 0.808594 -3.609375 C 0.808594 -4.46875 0.949219 -5.214844 1.230469 -5.847656 C 1.511719 -6.484375 1.925781 -6.972656 2.472656 -7.320312 C 3.019531 -7.667969 3.675781 -7.839844 4.441406 -7.839844 C 5.695312 -7.839844 6.5625 -7.425781 7.042969 -6.59375 C 7.523438 -5.757812 7.714844 -4.660156 7.617188 -3.296875 L 1.84375 -3.296875 L 1.84375 -4.472656 L 6.695312 -4.472656 L 6.121094 -3.890625 C 6.121094 -4.546875 6.066406 -5.066406 5.957031 -5.441406 C 5.847656 -5.816406 5.660156 -6.085938 5.402344 -6.257812 C 5.144531 -6.429688 4.789062 -6.511719 4.332031 -6.511719 C 3.621094 -6.511719 3.109375 -6.308594 2.800781 -5.90625 C 2.488281 -5.5 2.332031 -4.8125 2.332031 -3.839844 C 2.332031 -3.1875 2.40625 -2.667969 2.554688 -2.28125 C 2.703125 -1.894531 2.929688 -1.617188 3.238281 -1.445312 C 3.546875 -1.273438 3.949219 -1.1875 4.449219 -1.1875 C 4.902344 -1.1875 5.355469 -1.25 5.804688 -1.371094 C 6.253906 -1.496094 6.683594 -1.671875 7.089844 -1.898438 L 7.089844 -0.558594 C 6.675781 -0.332031 6.226562 -0.160156 5.734375 -0.0390625 C 5.242188 0.0820312 4.757812 0.140625 4.273438 0.140625 Z M 4.273438 0.140625 "/>
</g>
<g id="cover-4-glyph-0-10">
<path d="M 3.28125 0 C 2.667969 -1.234375 2.117188 -2.519531 1.628906 -3.855469 C 1.140625 -5.1875 0.757812 -6.46875 0.480469 -7.699219 L 2.058594 -7.699219 C 2.316406 -6.5 2.628906 -5.359375 2.992188 -4.28125 C 3.355469 -3.199219 3.832031 -1.972656 4.425781 -0.601562 L 3.8125 -0.601562 C 4.410156 -1.972656 4.890625 -3.195312 5.25 -4.277344 C 5.605469 -5.355469 5.917969 -6.496094 6.175781 -7.699219 L 7.769531 -7.699219 C 7.488281 -6.46875 7.105469 -5.1875 6.617188 -3.855469 C 6.128906 -2.519531 5.578125 -1.234375 4.964844 0 Z M 3.28125 0 "/>
</g>
</g>
</defs>
<g fill="#416378" fill-opacity="1">
<use xlink:href="#cover-4-glyph-0-0" x="16" y="30.5625"/>
<use xlink:href="#cover-4-glyph-0-1" x="28.828125" y="30.5625"/>
<use xlink:href="#cover-4-glyph-0-2" x="37.40625" y="30.5625"/>
<use xlink:href="#cover-4-glyph-0-1" x="46.203125" y="30.5625"/>
<use xlink:href="#cover-4-glyph-0-3" x="54.78125" y="30.5625"/>
<use xlink:href="#cover-4-glyph-0-4" x="59.765625" y="30.5625"/>
<use xlink:href="#cover-4-glyph-0-5" x="63.703125" y="30.5625"/>
<use xlink:href="#cover-4-glyph-0-6" x="71.359375" y="30.5625"/>
<use xlink:href="#cover-4-glyph-0-7" x="79.796875" y="30.5625"/>
<use xlink:href="#cover-4-glyph-0-8" x="83.84375" y="30.5625"/>
<use xlink:href="#cover-4-glyph-0-9" x="92.671875" y="30.5625"/>
<use xlink:href="#cover-4-glyph-0-10" x="101.015625" y="30.5625"/>
</g>
</g><g transform="translate(678.5 179) scale(1) translate(-16 -147.046875)">
<defs>
<g>
<g id="cover-5-glyph-0-0">
<path d="M 30.167969 -88.199219 L 50.46875 -88.199219 L 44.667969 -30.414062 L 35.972656 -30.414062 Z M 30.828125 -20.417969 L 49.8125 -20.417969 L 49.8125 0 L 30.828125 0 Z M 30.828125 -20.417969 "/>
</g>
<g id="cover-5-glyph-0-1">
<path d="M 7.761719 -58.554688 L 72.878906 -58.554688 L 72.878906 -46.816406 L 7.761719 -46.816406 Z M 7.761719 -34.074219 L 72.878906 -34.074219 L 72.878906 -22.339844 L 7.761719 -22.339844 Z M 7.761719 -34.074219 "/>
</g>
</g>
</defs>
<g fill="#f6efdf" fill-opacity="1">
<use xlink:href="#cover-5-glyph-0-0" x="16" y="147.046875"/>
<use xlink:href="#cover-5-glyph-0-1" x="96.640625" y="147.046875"/>
</g>
</g><path d="M744 214L759 229L774 214 M759 203V229" fill="none" stroke="#a9c5d5" stroke-width="3" stroke-linecap="round" stroke-linejoin="round" /><g transform="translate(678.5 354) scale(1) translate(-16 -147.046875)">
<defs>
<g>
<g id="cover-6-glyph-0-0">
</g>
<g id="cover-6-glyph-0-1">
<path d="M -64.261719 -58.554688 L 64.261719 -58.554688 L 64.261719 -46.816406 L -64.261719 -46.816406 Z M -64.261719 -34.074219 L 64.261719 -34.074219 L 64.261719 -22.339844 L -64.261719 -22.339844 Z M 12.292969 -77.757812 L 24.613281 -77.757812 L -12.292969 -3.132812 L -24.515625 -3.132812 Z M 12.292969 -77.757812 "/>
</g>
</g>
</defs>
<g fill="#f4cc50" fill-opacity="1">
<use xlink:href="#cover-6-glyph-0-0" x="16" y="147.046875"/>
<use xlink:href="#cover-6-glyph-0-1" x="96.640625" y="147.046875"/>
</g>
</g></svg>
