<?xml version="1.0" encoding="UTF-8" standalone="no"?>
<!DOCTYPE svg PUBLIC "-//W3C//DTD SVG 1.1//EN" "http://www.w3.org/Graphics/SVG/1.1/DTD/svg11.dtd">
<svg width="100%" height="100%" viewBox="0 0 2219 582" version="1.1" xmlns="http://www.w3.org/2000/svg" xmlns:xlink="http://www.w3.org/1999/xlink" xml:space="preserve" xmlns:serif="http://www.serif.com/" fill="var(--icon-primary, currentColor)" style="fill-rule:evenodd;clip-rule:evenodd;stroke-linejoin:round;stroke-miterlimit:2;">
    <g transform="matrix(1,0,0,1,-79.7,-838.388385)">
        <g>
            <g transform="matrix(1.464218,0,0,1.789453,-566.398987,281.947275)">
                <path d="M463.569,311.608C469.837,322.822 475.892,338.034 481.735,357.246L478.23,357.246L474.644,345.836L448.35,345.836L444.765,357.246L441.259,357.246C447.102,338.034 453.157,322.822 459.425,311.608L463.569,311.608ZM473.768,343.228C470.049,332.188 465.959,322.365 461.497,313.759C457.035,322.365 452.945,332.188 449.227,343.228L473.768,343.228Z" style="fill-rule:nonzero;"/>
            </g>
            <g transform="matrix(1.464218,0,0,1.789453,-566.398987,281.947275)">
                <path d="M497.671,311.608L513.288,311.608C523.912,311.608 529.224,315.237 529.224,322.496C529.224,327.929 526.355,331.471 520.619,333.123C527.949,334.166 531.614,337.991 531.614,344.597C531.614,348.77 530.167,351.921 527.272,354.051C524.377,356.181 520.087,357.246 514.404,357.246L497.671,357.246L497.671,311.608ZM514.882,354.638C519.556,354.638 522.943,353.855 525.041,352.291C527.139,350.726 528.188,348.227 528.188,344.793C528.188,341.359 527.152,338.849 525.081,337.263C523.009,335.676 519.716,334.883 515.2,334.883L501.018,334.883L501.018,354.638L514.882,354.638ZM512.491,332.275C517.113,332.275 520.486,331.547 522.611,330.091C524.735,328.635 525.798,326.321 525.798,323.148C525.798,320.018 524.775,317.747 522.73,316.335C520.685,314.922 517.378,314.216 512.81,314.216L501.018,314.216L501.018,332.275L512.491,332.275Z" style="fill-rule:nonzero;"/>
            </g>
            <g transform="matrix(1.464218,0,0,1.789453,-566.398987,281.947275)">
                <path d="M578.784,330.385C578.784,319.171 573.897,313.564 564.123,313.564C558.546,313.564 554.482,315.259 551.932,318.649C549.382,322.039 548.108,327.429 548.108,334.818C548.108,341.946 549.369,347.14 551.892,350.4C554.416,353.66 558.413,355.29 563.884,355.29C566.434,355.29 569.222,354.909 572.25,354.149C575.278,353.388 578.173,352.291 580.935,350.856L580.935,353.986C578.332,355.246 575.451,356.213 572.29,356.887C569.129,357.561 566.168,357.898 563.406,357.898C550.923,357.898 544.681,350.422 544.681,335.47C544.681,319.127 551.268,310.956 564.442,310.956C570.285,310.956 574.707,312.586 577.708,315.846C580.709,319.106 582.21,323.952 582.21,330.385L578.784,330.385Z" style="fill-rule:nonzero;"/>
            </g>
            <g transform="matrix(1.464218,0,0,1.789453,-566.398987,281.947275)">
                <path d="M598.305,311.608L612.647,311.608C620.031,311.608 625.409,313.379 628.782,316.921C632.155,320.464 633.842,326.103 633.842,333.84C633.842,341.968 632.049,347.901 628.463,351.639C624.878,355.377 619.154,357.246 611.293,357.246L598.305,357.246L598.305,311.608ZM611.93,354.638C616.498,354.638 620.124,353.975 622.806,352.649C625.489,351.324 627.428,349.205 628.623,346.293C629.818,343.38 630.416,339.425 630.416,334.427C630.416,329.428 629.818,325.473 628.623,322.561C627.428,319.649 625.502,317.53 622.846,316.204C620.19,314.879 616.578,314.216 612.01,314.216L601.652,314.216L601.652,354.638L611.93,354.638Z" style="fill-rule:nonzero;"/>
            </g>
            <g transform="matrix(1.464218,0,0,1.789453,-566.398987,281.947275)">
                <path d="M651.371,311.608L683.88,311.608L683.88,314.216L654.717,314.216L654.717,332.275L681.25,332.275L681.25,334.883L654.717,334.883L654.717,354.638L683.88,354.638L683.88,357.246L651.371,357.246L651.371,311.608Z" style="fill-rule:nonzero;"/>
            </g>
            <g transform="matrix(1.464218,0,0,1.789453,-566.398987,281.947275)">
                <path d="M701.568,311.608L732.882,311.608L732.882,314.216L704.915,314.216L704.915,333.579L730.253,333.579L730.253,336.187L704.915,336.187L704.915,357.246L701.568,357.246L701.568,311.608Z" style="fill-rule:nonzero;"/>
            </g>
            <g transform="matrix(1.464218,0,0,1.789453,-566.398987,281.947275)">
                <path d="M767.223,357.898C761.221,357.898 756.64,355.996 753.479,352.193C750.318,348.39 748.738,342.75 748.738,335.274C748.738,319.062 755.909,310.956 770.251,310.956C774.554,310.956 778.83,311.738 783.079,313.303L783.079,316.432C778.936,314.52 774.501,313.564 769.773,313.564C763.505,313.564 759.003,315.237 756.268,318.584C753.532,321.931 752.164,327.277 752.164,334.622C752.164,341.837 753.426,347.086 755.949,350.367C758.472,353.649 762.39,355.29 767.702,355.29C770.198,355.29 772.681,354.931 775.151,354.214C777.622,353.497 779.945,352.443 782.123,351.052L782.123,338.078L768.897,338.078L768.897,335.47L785.47,335.47L785.47,352.03C782.814,353.899 779.906,355.344 776.745,356.365C773.584,357.387 770.411,357.898 767.223,357.898Z" style="fill-rule:nonzero;"/>
            </g>
            <g transform="matrix(1.464218,0,0,1.789453,-566.398987,281.947275)">
                <path d="M831.205,334.883L805.708,334.883L805.708,357.246L802.362,357.246L802.362,311.608L805.708,311.608L805.708,332.275L831.205,332.275L831.205,311.608L834.552,311.608L834.552,357.246L831.205,357.246L831.205,334.883Z" style="fill-rule:nonzero;"/>
            </g>
            <g transform="matrix(1.464218,0,0,1.789453,-566.398987,281.947275)">
                <path d="M851.125,354.638L867.778,354.638L867.778,314.216L851.125,314.216L851.125,311.608L887.777,311.608L887.777,314.216L871.124,314.216L871.124,354.638L887.777,354.638L887.777,357.246L851.125,357.246L851.125,354.638Z" style="fill-rule:nonzero;"/>
            </g>
            <g transform="matrix(1.464218,0,0,1.789453,-566.398987,281.947275)">
                <path d="M903.633,354.833C913.46,354.833 920.631,353.442 925.146,350.661C929.661,347.879 931.919,343.467 931.919,337.426L931.919,314.216L907.697,314.216L907.697,311.608L935.265,311.608L935.265,337.035C935.265,343.859 932.609,348.987 927.298,352.421C921.986,355.855 914.097,357.572 903.633,357.572L903.633,354.833Z" style="fill-rule:nonzero;"/>
            </g>
            <g transform="matrix(1.464218,0,0,1.789453,-566.398987,281.947275)">
                <path d="M968.173,334.818L959.01,334.818L959.01,357.246L955.663,357.246L955.663,311.608L959.01,311.608L959.01,332.21L968.252,332.21L985.543,311.608L989.447,311.608L970.961,333.449L990.084,357.246L986.18,357.246L968.173,334.818Z" style="fill-rule:nonzero;"/>
            </g>
            <g transform="matrix(1.464218,0,0,1.789453,-566.398987,281.947275)">
                <path d="M1007.693,311.608L1011.04,311.608L1011.04,354.638L1043.23,354.638L1043.23,357.246L1007.693,357.246L1007.693,311.608Z" style="fill-rule:nonzero;"/>
            </g>
            <g transform="matrix(1.464218,0,0,1.789453,-566.398987,281.947275)">
                <path d="M1056.934,311.608L1061.476,311.608L1073.428,332.21L1085.38,311.608L1089.921,311.608L1092.391,357.246L1089.045,357.246L1086.894,315.324L1074.623,336.057L1072.233,336.057L1059.962,315.324L1057.811,357.246L1054.464,357.246L1056.934,311.608Z" style="fill-rule:nonzero;"/>
            </g>
            <g transform="matrix(1.464218,0,0,1.789453,-566.398987,281.947275)">
                <path d="M1106.415,311.608L1110.16,311.608L1139.083,352.617L1139.083,311.608L1142.429,311.608L1142.429,357.246L1138.685,357.246L1109.761,316.237L1109.761,357.246L1106.415,357.246L1106.415,311.608Z" style="fill-rule:nonzero;"/>
            </g>
            <g transform="matrix(1.464218,0,0,1.789453,-566.398987,281.947275)">
                <path d="M1174.699,357.898C1168.697,357.898 1164.182,356.018 1161.154,352.258C1158.126,348.498 1156.612,342.902 1156.612,335.47C1156.612,327.342 1158.259,321.224 1161.552,317.117C1164.846,313.01 1169.733,310.956 1176.213,310.956C1182.162,310.956 1186.651,312.836 1189.679,316.595C1192.707,320.355 1194.221,325.951 1194.221,333.384C1194.221,341.511 1192.587,347.629 1189.32,351.737C1186.053,355.844 1181.18,357.898 1174.699,357.898ZM1175.337,355.29C1180.702,355.29 1184.619,353.595 1187.089,350.204C1189.559,346.814 1190.794,341.425 1190.794,334.036C1190.794,326.907 1189.586,321.713 1187.169,318.454C1184.752,315.194 1180.888,313.564 1175.576,313.564C1170.158,313.564 1166.214,315.259 1163.743,318.649C1161.273,322.039 1160.038,327.429 1160.038,334.818C1160.038,341.946 1161.26,347.14 1163.704,350.4C1166.147,353.66 1170.025,355.29 1175.337,355.29Z" style="fill-rule:nonzero;"/>
            </g>
            <g transform="matrix(1.464218,0,0,1.789453,-566.398987,281.947275)">
                <path d="M1211.272,311.608L1227.526,311.608C1233.21,311.608 1237.512,312.716 1240.434,314.933C1243.356,317.15 1244.816,320.431 1244.816,324.778C1244.816,329.689 1243.249,333.394 1240.115,335.894C1236.981,338.393 1232.333,339.643 1226.172,339.643L1214.618,339.643L1214.618,357.246L1211.272,357.246L1211.272,311.608ZM1226.65,337.035C1231.749,337.035 1235.481,336.133 1237.844,334.329C1240.208,332.525 1241.39,329.646 1241.39,325.69C1241.39,321.692 1240.235,318.78 1237.924,316.954C1235.613,315.129 1231.988,314.216 1227.048,314.216L1214.618,314.216L1214.618,337.035L1226.65,337.035Z" style="fill-rule:nonzero;"/>
            </g>
            <g transform="matrix(1.464218,0,0,1.789453,-566.398987,281.947275)">
                <path d="M1296.607,365.852C1292.092,365.852 1288.746,365.145 1286.568,363.733C1284.39,362.32 1283.248,360.093 1283.142,357.05C1281.176,357.615 1279.025,357.898 1276.688,357.898C1270.685,357.898 1266.17,356.018 1263.142,352.258C1260.115,348.498 1258.601,342.902 1258.601,335.47C1258.601,327.342 1260.247,321.224 1263.541,317.117C1266.834,313.01 1271.721,310.956 1278.202,310.956C1284.151,310.956 1288.64,312.836 1291.667,316.595C1294.695,320.355 1296.209,325.951 1296.209,333.384C1296.209,345.38 1292.65,352.986 1285.532,356.202C1285.691,358.68 1286.608,360.429 1288.281,361.451C1289.954,362.472 1292.73,362.983 1296.607,362.983L1296.607,365.852ZM1277.325,355.29C1282.69,355.29 1286.608,353.595 1289.078,350.204C1291.548,346.814 1292.783,341.425 1292.783,334.036C1292.783,326.907 1291.574,321.713 1289.157,318.454C1286.741,315.194 1282.876,313.564 1277.564,313.564C1272.146,313.564 1268.202,315.259 1265.732,318.649C1263.262,322.039 1262.027,327.429 1262.027,334.818C1262.027,341.946 1263.249,347.14 1265.692,350.4C1268.136,353.66 1272.013,355.29 1277.325,355.29Z" style="fill-rule:nonzero;"/>
            </g>
            <g transform="matrix(1.464218,0,0,1.789453,-566.398987,281.947275)">
                <path d="M1312.862,311.608L1329.754,311.608C1335.066,311.608 1339.023,312.64 1341.626,314.705C1344.229,316.769 1345.53,319.888 1345.53,324.06C1345.53,331.449 1341.759,335.861 1334.216,337.295L1346.805,357.246L1342.901,357.246L1330.63,337.687C1330.099,337.73 1329.355,337.752 1328.399,337.752L1316.208,337.752L1316.208,357.246L1312.862,357.246L1312.862,311.608ZM1328.877,335.144C1333.552,335.144 1336.925,334.285 1338.996,332.569C1341.068,330.852 1342.104,328.146 1342.104,324.452C1342.104,320.801 1341.108,318.182 1339.116,316.595C1337.124,315.009 1333.844,314.216 1329.276,314.216L1316.208,314.216L1316.208,335.144L1328.877,335.144Z" style="fill-rule:nonzero;"/>
            </g>
            <g transform="matrix(1.464218,0,0,1.789453,-566.398987,281.947275)">
                <path d="M1362.9,352.421C1367.574,354.334 1372.621,355.29 1378.039,355.29C1383.032,355.29 1386.724,354.497 1389.114,352.91C1391.504,351.324 1392.7,349.161 1392.7,346.423C1392.7,344.38 1392.089,342.718 1390.867,341.435C1389.645,340.153 1388.145,339.164 1386.365,338.469C1384.586,337.774 1382.129,336.991 1378.995,336.122C1375.436,335.122 1372.594,334.177 1370.469,333.286C1368.345,332.395 1366.539,331.091 1365.051,329.374C1363.564,327.657 1362.82,325.408 1362.82,322.626C1362.82,318.845 1364.308,315.954 1367.282,313.955C1370.257,311.956 1374.692,310.956 1380.588,310.956C1382.926,310.956 1385.117,311.13 1387.162,311.477C1389.207,311.825 1391.319,312.39 1393.496,313.173L1393.496,316.237C1389.353,314.455 1384.891,313.564 1380.11,313.564C1370.868,313.564 1366.246,316.519 1366.246,322.431C1366.246,324.778 1366.91,326.679 1368.238,328.135C1369.566,329.591 1371.2,330.7 1373.139,331.46C1375.077,332.221 1377.667,333.014 1380.907,333.84C1384.307,334.753 1387.003,335.611 1388.995,336.415C1390.987,337.219 1392.673,338.393 1394.054,339.936C1395.435,341.479 1396.126,343.511 1396.126,346.032C1396.126,349.726 1394.532,352.628 1391.345,354.736C1388.158,356.844 1383.563,357.898 1377.561,357.898C1372.355,357.898 1367.468,357.094 1362.9,355.485L1362.9,352.421Z" style="fill-rule:nonzero;"/>
            </g>
            <g transform="matrix(1.464218,0,0,1.789453,-566.398987,281.947275)">
                <path d="M1428.714,314.216L1410.468,314.216L1410.468,311.608L1450.307,311.608L1450.307,314.216L1432.061,314.216L1432.061,357.246L1428.714,357.246L1428.714,314.216Z" style="fill-rule:nonzero;"/>
            </g>
            <g transform="matrix(1.464218,0,0,1.789453,-566.398987,281.947275)">
                <path d="M1481.063,357.898C1475.273,357.898 1471.037,356.626 1468.354,354.084C1465.672,351.541 1464.331,347.553 1464.331,342.12L1464.331,311.608L1467.677,311.608L1467.677,341.468C1467.677,346.249 1468.766,349.748 1470.944,351.965C1473.122,354.181 1476.601,355.29 1481.382,355.29C1486.162,355.29 1489.642,354.171 1491.82,351.932C1493.998,349.694 1495.086,346.14 1495.086,341.272L1495.086,311.608L1498.433,311.608L1498.433,340.62C1498.433,346.662 1497.065,351.052 1494.33,353.79C1491.594,356.528 1487.172,357.898 1481.063,357.898Z" style="fill-rule:nonzero;"/>
            </g>
            <g transform="matrix(1.464218,0,0,1.789453,-566.398987,281.947275)">
                <path d="M1530.304,357.246C1524.036,346.032 1517.981,330.819 1512.138,311.608L1515.644,311.608C1518.353,320.605 1520.969,328.45 1523.492,335.144C1526.015,341.837 1528.976,348.488 1532.376,355.094C1535.776,348.488 1538.737,341.837 1541.26,335.144C1543.783,328.45 1546.399,320.605 1549.108,311.608L1552.614,311.608C1546.771,330.819 1540.716,346.032 1534.448,357.246L1530.304,357.246Z" style="fill-rule:nonzero;"/>
            </g>
            <g transform="matrix(1.464218,0,0,1.789453,-566.398987,281.947275)">
                <path d="M1569.825,357.246C1565.628,340.99 1563.53,325.777 1563.53,311.608L1566.877,311.608C1566.877,325.69 1568.709,340.077 1572.375,354.768L1582.255,323.343L1584.486,323.343L1594.366,354.768C1598.031,340.077 1599.864,325.69 1599.864,311.608L1603.21,311.608C1603.21,325.777 1601.112,340.99 1596.916,357.246L1592.135,357.246L1583.37,328.82L1574.606,357.246L1569.825,357.246Z" style="fill-rule:nonzero;"/>
            </g>
            <g transform="matrix(1.464218,0,0,1.789453,-566.398987,281.947275)">
                <path d="M1634.364,336.187L1618.11,357.246L1614.525,357.246L1632.373,334.101L1615.003,311.608L1618.588,311.608L1634.364,332.014L1650.141,311.608L1653.726,311.608L1636.356,334.101L1654.204,357.246L1650.619,357.246L1634.364,336.187Z" style="fill-rule:nonzero;"/>
            </g>
            <g transform="matrix(1.464218,0,0,1.789453,-566.398987,281.947275)">
                <path d="M1683.685,340.36L1665.678,311.608L1669.343,311.608L1685.359,337.295L1701.374,311.608L1705.039,311.608L1687.032,340.36L1687.032,357.246L1683.685,357.246L1683.685,340.36Z" style="fill-rule:nonzero;"/>
            </g>
            <g transform="matrix(1.464218,0,0,1.789453,-566.398987,281.947275)">
                <path d="M1717.788,354.442L1750.934,314.216L1718.425,314.216L1718.425,311.608L1754.281,311.608L1754.281,314.411L1721.134,354.638L1754.918,354.638L1754.918,357.246L1717.788,357.246L1717.788,354.442Z" style="fill-rule:nonzero;"/>
            </g>
            <g transform="matrix(1.464218,0,0,1.789453,-566.398987,281.947275)">
                <path d="M457.354,434.737C453.423,434.737 450.395,433.933 448.27,432.324C446.146,430.716 445.083,428.434 445.083,425.479C445.083,421.306 447.354,418.242 451.896,416.286C456.438,414.33 463.33,413.352 472.572,413.352L472.572,409.31C472.572,406.094 471.749,403.757 470.102,402.301C468.456,400.845 465.747,400.117 461.975,400.117C457.035,400.117 452.387,401.378 448.031,403.899L448.031,401.16C452.653,398.77 457.487,397.575 462.533,397.575C466.889,397.575 470.182,398.542 472.413,400.476C474.644,402.41 475.76,405.268 475.76,409.049L475.76,422.936L478.309,434.085L475.122,434.085L473.21,425.935C471.829,428.804 469.81,430.988 467.154,432.487C464.498,433.987 461.232,434.737 457.354,434.737ZM448.35,425.218C448.35,427.391 449.174,429.097 450.82,430.336C452.467,431.575 454.751,432.194 457.673,432.194C460.594,432.194 463.197,431.586 465.481,430.369C467.765,429.152 469.518,427.565 470.74,425.609C471.962,423.653 472.572,421.589 472.572,419.415L472.572,415.699C464.445,415.699 458.376,416.449 454.366,417.949C450.355,419.448 448.35,421.871 448.35,425.218Z" style="fill-rule:nonzero;"/>
            </g>
            <g transform="matrix(1.464218,0,0,1.789453,-566.398987,281.947275)">
                <path d="M514.802,397.575C519.583,397.575 523.208,399.041 525.678,401.975C528.148,404.909 529.383,409.18 529.383,414.786C529.383,421.35 527.644,426.315 524.164,429.684C520.685,433.052 515.493,434.737 508.587,434.737C504.709,434.737 500.938,434.302 497.273,433.433L497.273,385.839L500.46,385.839L500.46,405.724C501.788,403.073 503.674,401.052 506.117,399.661C508.561,398.27 511.456,397.575 514.802,397.575ZM514.085,400.117C509.835,400.117 506.502,401.552 504.085,404.42C501.668,407.289 500.46,411.179 500.46,416.09L500.46,431.346C503.381,431.912 506.197,432.194 508.906,432.194C520.38,432.194 526.116,426.522 526.116,415.178C526.116,405.137 522.106,400.117 514.085,400.117Z" style="fill-rule:nonzero;"/>
            </g>
            <g transform="matrix(1.464218,0,0,1.789453,-566.398987,281.947275)">
                <path d="M564.92,434.737C552.968,434.737 546.992,428.869 546.992,417.134C546.992,410.484 548.519,405.561 551.574,402.366C554.628,399.172 559.183,397.575 565.239,397.575C570.179,397.575 573.99,398.726 576.672,401.03C579.355,403.334 580.696,406.724 580.696,411.201L577.429,411.201C577.429,407.332 576.407,404.518 574.362,402.758C572.317,400.997 569.116,400.117 564.76,400.117C559.608,400.117 555.903,401.399 553.645,403.964C551.388,406.528 550.259,410.657 550.259,416.351C550.259,421.871 551.428,425.892 553.765,428.413C556.102,430.934 559.873,432.194 565.079,432.194C567.788,432.194 570.311,431.868 572.649,431.216C574.986,430.564 577.297,429.521 579.581,428.087L579.581,431.086C575.172,433.52 570.285,434.737 564.92,434.737Z" style="fill-rule:nonzero;"/>
            </g>
            <g transform="matrix(1.464218,0,0,1.789453,-566.398987,281.947275)">
                <path d="M613.364,434.737C608.052,434.737 604.068,433.226 601.413,430.206C598.757,427.185 597.429,422.61 597.429,416.482C597.429,410.31 598.77,405.615 601.452,402.399C604.135,399.183 608.106,397.575 613.364,397.575C619.951,397.575 624.493,399.9 626.989,404.551L626.989,385.839L630.176,385.839L630.176,434.085L627.786,434.085L627.228,426.848C624.679,432.107 620.057,434.737 613.364,434.737ZM613.763,432.194C618.384,432.194 621.744,430.955 623.842,428.478C625.94,426 626.989,421.98 626.989,416.416C626.989,410.809 625.94,406.691 623.842,404.062C621.744,401.432 618.384,400.117 613.763,400.117C609.194,400.117 605.875,401.345 603.803,403.801C601.731,406.257 600.695,410.244 600.695,415.764C600.695,421.415 601.745,425.566 603.843,428.217C605.941,430.868 609.248,432.194 613.763,432.194Z" style="fill-rule:nonzero;"/>
            </g>
            <g transform="matrix(1.464218,0,0,1.789453,-566.398987,281.947275)">
                <path d="M665.952,434.737C660.056,434.737 655.634,433.302 652.686,430.434C649.738,427.565 648.263,423.11 648.263,417.068C648.263,410.636 649.857,405.778 653.044,402.497C656.231,399.215 660.879,397.575 666.988,397.575C672.406,397.575 676.403,398.998 678.98,401.845C681.556,404.692 682.844,409.006 682.844,414.786L682.764,417.525L651.53,417.525C651.69,422.654 652.951,426.381 655.315,428.706C657.679,431.031 661.384,432.194 666.43,432.194C671.37,432.194 676.124,431.064 680.693,428.804L680.693,431.672C676.018,433.715 671.105,434.737 665.952,434.737ZM679.577,415.047C679.471,411.483 679.006,408.625 678.183,406.474C677.359,404.322 676.005,402.725 674.119,401.682C672.233,400.639 669.67,400.117 666.43,400.117C661.49,400.117 657.825,401.312 655.435,403.703C653.044,406.094 651.743,409.875 651.53,415.047L679.577,415.047Z" style="fill-rule:nonzero;"/>
            </g>
            <g transform="matrix(1.464218,0,0,1.789453,-566.398987,281.947275)">
                <path d="M697.425,398.227L710.811,398.227C710.97,395.01 711.927,392.457 713.68,390.566C715.432,388.675 718.155,387.295 721.847,386.426C725.538,385.557 730.492,385.122 736.707,385.122L736.707,387.599C730.97,387.599 726.481,387.925 723.241,388.577C720.001,389.229 717.677,390.316 716.269,391.837C714.861,393.358 714.104,395.488 713.998,398.227L736.308,398.227L736.308,400.704L713.998,400.704L713.998,434.085L710.811,434.085L710.811,400.704L697.425,400.704L697.425,398.227Z" style="fill-rule:nonzero;"/>
            </g>
            <g transform="matrix(1.464218,0,0,1.789453,-566.398987,281.947275)">
                <path d="M748.738,444.647C760.584,444.647 769.428,443.929 775.271,442.495C781.114,441.061 784.036,438.822 784.036,435.78C784.036,433.346 782.017,431.564 777.98,430.434C773.943,429.304 767.144,428.739 757.582,428.739L755.192,426.848L758.539,417.851C756.414,417.025 754.794,415.862 753.678,414.363C752.563,412.863 752.005,411.07 752.005,408.984C752.005,405.376 753.413,402.573 756.228,400.574C759.043,398.574 762.947,397.575 767.941,397.575C771.234,397.575 774.049,398.053 776.387,399.009L779.813,391.446L784.115,391.446L778.378,400.052C781.247,401.878 782.681,404.507 782.681,407.941C782.681,411.461 781.273,414.211 778.458,416.188C775.643,418.166 771.739,419.155 766.745,419.155C764.408,419.155 762.363,418.937 760.61,418.503L758.778,426.457C765.311,426.457 770.65,426.739 774.793,427.304C778.936,427.869 782.057,428.826 784.155,430.173C786.253,431.52 787.302,433.368 787.302,435.715C787.302,439.626 784.222,442.506 778.06,444.353C771.898,446.2 762.124,447.124 748.738,447.124L748.738,444.647ZM767.303,416.677C771.553,416.677 774.66,416.014 776.626,414.689C778.591,413.363 779.574,411.244 779.574,408.332C779.574,405.42 778.604,403.312 776.665,402.008C774.727,400.704 771.632,400.052 767.383,400.052C763.133,400.052 760.039,400.704 758.1,402.008C756.161,403.312 755.192,405.42 755.192,408.332C755.192,411.244 756.161,413.363 758.1,414.689C760.039,416.014 763.107,416.677 767.303,416.677Z" style="fill-rule:nonzero;"/>
            </g>
            <g transform="matrix(1.464218,0,0,1.789453,-566.398987,281.947275)">
                <path d="M817.102,447.385C811.472,447.385 806.943,446.429 803.517,444.516C800.091,442.604 798.378,440.018 798.378,436.758C798.378,434.932 798.949,433.085 800.091,431.216C801.233,429.347 803.132,427.587 805.788,425.935C804.938,425.109 804.513,424.066 804.513,422.806C804.513,421.719 804.699,420.752 805.071,419.904C805.443,419.057 806.053,418.068 806.903,416.938C803.61,415.156 801.963,412.505 801.963,408.984C801.963,405.376 803.464,402.573 806.465,400.574C809.466,398.574 813.623,397.575 818.935,397.575C822.653,397.575 825.734,398.074 828.178,399.074L831.604,391.446L835.906,391.446L830.169,400.052C831.604,400.965 832.719,402.084 833.516,403.41C834.313,404.735 834.711,406.246 834.711,407.941C834.711,411.461 833.211,414.211 830.209,416.188C827.208,418.166 823.052,419.155 817.74,419.155C814.34,419.155 811.418,418.72 808.975,417.851C807.86,419.546 807.302,421.089 807.302,422.48C807.302,423.566 807.846,424.392 808.935,424.957C810.024,425.522 811.392,425.913 813.039,426.131C814.685,426.348 816.969,426.565 819.891,426.783C823.822,427.043 827.009,427.38 829.452,427.793C831.896,428.206 833.994,429.01 835.747,430.206C837.5,431.401 838.376,433.15 838.376,435.454C838.376,437.584 837.54,439.561 835.866,441.387C834.193,443.212 831.75,444.668 828.536,445.755C825.322,446.842 821.511,447.385 817.102,447.385ZM818.297,416.612C827.115,416.612 831.524,413.874 831.524,408.397C831.524,405.659 830.422,403.594 828.217,402.204C826.013,400.813 822.733,400.117 818.377,400.117C809.612,400.117 805.23,402.834 805.23,408.267C805.23,411.049 806.332,413.135 808.537,414.526C810.741,415.917 813.995,416.612 818.297,416.612ZM801.645,436.367C801.645,438.931 803.039,440.985 805.828,442.528C808.616,444.071 812.64,444.842 817.899,444.842C821.67,444.842 824.858,444.429 827.46,443.603C830.063,442.778 831.989,441.68 833.237,440.311C834.485,438.942 835.11,437.453 835.11,435.845C835.11,434.02 834.392,432.64 832.958,431.705C831.524,430.771 829.784,430.151 827.739,429.847C825.694,429.543 822.945,429.282 819.493,429.065C816.624,428.891 814.327,428.695 812.6,428.478C810.874,428.261 809.373,427.891 808.099,427.369C806.027,428.63 804.433,430.043 803.318,431.607C802.202,433.172 801.645,434.758 801.645,436.367Z" style="fill-rule:nonzero;"/>
            </g>
            <g transform="matrix(1.464218,0,0,1.789453,-566.398987,281.947275)">
                <path d="M867.459,447.45C863.953,447.45 860.129,446.776 855.985,445.429L855.985,442.56C860.075,444.169 863.98,444.973 867.698,444.973C872.373,444.973 875.918,443.712 878.335,441.191C880.752,438.67 881.961,435.28 881.961,431.02L881.961,427.369C879.411,432.281 874.869,434.737 868.335,434.737C863.024,434.737 859.04,433.226 856.384,430.206C853.728,427.185 852.4,422.61 852.4,416.482C852.4,410.31 853.741,405.615 856.424,402.399C859.106,399.183 863.13,397.575 868.495,397.575C875.241,397.575 879.809,400.052 882.2,405.007L882.678,398.227L885.148,398.227L885.148,431.281C885.148,436.193 883.567,440.115 880.407,443.049C877.246,445.983 872.93,447.45 867.459,447.45ZM869.053,432.194C873.515,432.194 876.781,430.955 878.853,428.478C880.925,426 881.961,421.958 881.961,416.351C881.961,410.744 880.898,406.637 878.773,404.029C876.649,401.421 873.222,400.117 868.495,400.117C864.033,400.117 860.779,401.345 858.734,403.801C856.689,406.257 855.667,410.266 855.667,415.83C855.667,421.48 856.729,425.62 858.854,428.25C860.979,430.879 864.378,432.194 869.053,432.194Z" style="fill-rule:nonzero;"/>
            </g>
            <g transform="matrix(1.464218,0,0,1.789453,-566.398987,281.947275)">
                <path d="M933.353,408.071C933.353,405.159 932.716,403.105 931.441,401.91C930.166,400.715 928.041,400.117 925.067,400.117C922.092,400.117 919.303,400.834 916.7,402.269C914.097,403.703 911.203,406.267 908.015,409.962L908.015,434.085L904.828,434.085L904.828,385.839L908.015,385.839L908.015,406.898C910.565,403.768 913.274,401.432 916.143,399.889C919.011,398.346 922.198,397.575 925.704,397.575C929.422,397.575 932.158,398.389 933.911,400.019C935.664,401.649 936.54,404.094 936.54,407.354L936.54,434.085L933.353,434.085L933.353,408.071Z" style="fill-rule:nonzero;"/>
            </g>
            <g transform="matrix(1.464218,0,0,1.789453,-566.398987,281.947275)">
                <path d="M957.018,431.607L972.396,431.607L972.396,400.704L959.408,400.704L959.408,398.227L975.583,398.227L975.583,431.607L987.295,431.607L987.295,434.085L957.018,434.085L957.018,431.607ZM970.483,384.47L977.495,384.47L977.495,390.729L970.483,390.729L970.483,384.47Z" style="fill-rule:nonzero;"/>
            </g>
            <g transform="matrix(1.464218,0,0,1.789453,-566.398987,281.947275)">
                <path d="M1023.788,400.704L1010.004,400.704L1010.004,398.227L1026.975,398.227L1026.975,434.085L1023.788,434.085L1023.788,400.704ZM1021.876,384.47L1028.888,384.47L1028.888,390.729L1021.876,390.729L1021.876,384.47Z" style="fill-rule:nonzero;"/>
            </g>
            <g transform="matrix(1.464218,0,0,1.789453,-566.398987,281.947275)">
                <path d="M1058.767,444.647C1066.522,444.647 1072.246,443.288 1075.938,440.572C1079.63,437.855 1081.475,434.346 1081.475,430.043L1081.475,400.704L1058.767,400.704L1058.767,398.227L1084.663,398.227L1084.663,429.651C1084.663,433.129 1083.64,436.193 1081.595,438.844C1079.55,441.495 1076.575,443.538 1072.671,444.973C1068.767,446.407 1064.132,447.124 1058.767,447.124L1058.767,444.647ZM1078.766,384.47L1085.778,384.47L1085.778,390.729L1078.766,390.729L1078.766,384.47Z" style="fill-rule:nonzero;"/>
            </g>
            <g transform="matrix(1.464218,0,0,1.789453,-566.398987,281.947275)">
                <path d="M1124.263,416.742L1113.028,416.742L1113.028,434.085L1109.841,434.085L1109.841,385.839L1113.028,385.839L1113.028,414.265L1124.103,414.265L1139.083,398.227L1142.828,398.227L1126.733,415.504L1143.465,434.085L1139.72,434.085L1124.263,416.742Z" style="fill-rule:nonzero;"/>
            </g>
            <g transform="matrix(1.464218,0,0,1.789453,-566.398987,281.947275)">
                <path d="M1185.536,434.737C1180.914,434.737 1177.461,433.52 1175.177,431.086C1172.893,428.652 1171.751,424.892 1171.751,419.807L1171.751,388.317L1154.222,388.317L1154.222,385.839L1174.938,385.839L1174.938,419.285C1174.938,423.805 1175.815,427.087 1177.568,429.13C1179.321,431.173 1182.136,432.194 1186.014,432.194C1188.032,432.194 1189.891,431.988 1191.591,431.575C1193.291,431.162 1194.964,430.499 1196.611,429.586L1196.611,432.324C1193.317,433.933 1189.626,434.737 1185.536,434.737Z" style="fill-rule:nonzero;"/>
            </g>
            <g transform="matrix(1.464218,0,0,1.789453,-566.398987,281.947275)">
                <path d="M1242.904,408.658C1242.904,405.702 1242.492,403.54 1241.669,402.171C1240.846,400.802 1239.531,400.117 1237.725,400.117C1235.919,400.117 1234.246,400.802 1232.705,402.171C1231.165,403.54 1229.624,405.746 1228.084,408.788L1228.084,434.085L1224.897,434.085L1224.897,408.658C1224.897,405.702 1224.485,403.54 1223.662,402.171C1222.838,400.802 1221.524,400.117 1219.718,400.117C1217.912,400.117 1216.238,400.802 1214.698,402.171C1213.157,403.54 1211.617,405.746 1210.077,408.788L1210.077,434.085L1206.889,434.085L1206.889,398.227L1209.359,398.227L1209.917,405.333C1212.573,400.161 1216.026,397.575 1220.275,397.575C1222.453,397.575 1224.193,398.227 1225.494,399.53C1226.796,400.834 1227.606,402.769 1227.925,405.333C1230.58,400.161 1234.033,397.575 1238.283,397.575C1243.488,397.575 1246.091,401.139 1246.091,408.267L1246.091,434.085L1242.904,434.085L1242.904,408.658Z" style="fill-rule:nonzero;"/>
            </g>
            <g transform="matrix(1.464218,0,0,1.789453,-566.398987,281.947275)">
                <path d="M1290.313,408.071C1290.313,405.159 1289.675,403.105 1288.4,401.91C1287.126,400.715 1285.001,400.117 1282.026,400.117C1279.052,400.117 1276.263,400.834 1273.66,402.269C1271.057,403.703 1268.162,406.267 1264.975,409.962L1264.975,434.085L1261.788,434.085L1261.788,398.227L1264.258,398.227L1264.895,407.028C1267.445,403.855 1270.167,401.486 1273.062,399.922C1275.957,398.357 1279.158,397.575 1282.664,397.575C1286.382,397.575 1289.118,398.389 1290.871,400.019C1292.623,401.649 1293.5,404.094 1293.5,407.354L1293.5,434.085L1290.313,434.085L1290.313,408.071Z" style="fill-rule:nonzero;"/>
            </g>
            <g transform="matrix(1.464218,0,0,1.789453,-566.398987,281.947275)">
                <path d="M1327.602,434.737C1322.237,434.737 1318.174,433.215 1315.411,430.173C1312.649,427.13 1311.268,422.697 1311.268,416.873C1311.268,404.007 1317.244,397.575 1329.196,397.575C1334.614,397.575 1338.704,399.096 1341.466,402.138C1344.229,405.181 1345.61,409.592 1345.61,415.373C1345.61,428.282 1339.607,434.737 1327.602,434.737ZM1328.399,432.194C1333.233,432.194 1336.765,430.868 1338.996,428.217C1341.227,425.566 1342.343,421.415 1342.343,415.764C1342.343,410.201 1341.241,406.202 1339.036,403.768C1336.832,401.334 1333.286,400.117 1328.399,400.117C1323.618,400.117 1320.113,401.443 1317.882,404.094C1315.651,406.746 1314.535,410.875 1314.535,416.482C1314.535,422.045 1315.637,426.055 1317.842,428.51C1320.046,430.966 1323.565,432.194 1328.399,432.194Z" style="fill-rule:nonzero;"/>
            </g>
            <g transform="matrix(1.464218,0,0,1.789453,-566.398987,281.947275)">
                <path d="M1380.509,397.575C1385.821,397.575 1389.805,399.085 1392.461,402.106C1395.117,405.126 1396.445,409.701 1396.445,415.83C1396.445,422.002 1395.103,426.696 1392.421,429.912C1389.738,433.129 1385.768,434.737 1380.509,434.737C1373.922,434.737 1369.38,432.411 1366.884,427.761L1366.884,446.472L1363.697,446.472L1363.697,398.227L1366.087,398.227L1366.645,405.463C1369.194,400.204 1373.816,397.575 1380.509,397.575ZM1380.11,400.117C1375.489,400.117 1372.129,401.356 1370.031,403.833C1367.933,406.311 1366.884,410.331 1366.884,415.895C1366.884,421.502 1367.933,425.62 1370.031,428.25C1372.129,430.879 1375.489,432.194 1380.11,432.194C1384.679,432.194 1387.999,430.966 1390.07,428.51C1392.142,426.055 1393.178,422.067 1393.178,416.547C1393.178,410.896 1392.129,406.746 1390.03,404.094C1387.932,401.443 1384.626,400.117 1380.11,400.117Z" style="fill-rule:nonzero;"/>
            </g>
            <g transform="matrix(1.464218,0,0,1.789453,-566.398987,281.947275)">
                <path d="M1428.077,434.737C1423.296,434.737 1419.671,433.27 1417.201,430.336C1414.731,427.402 1413.496,423.132 1413.496,417.525C1413.496,410.962 1415.235,405.996 1418.715,402.627C1422.194,399.259 1427.386,397.575 1434.292,397.575C1438.169,397.575 1441.941,398.009 1445.606,398.878L1445.606,446.472L1442.419,446.472L1442.419,426.587C1441.091,429.238 1439.205,431.26 1436.762,432.65C1434.318,434.041 1431.423,434.737 1428.077,434.737ZM1428.794,432.194C1433.043,432.194 1436.377,430.76 1438.794,427.891C1441.211,425.022 1442.419,421.132 1442.419,416.221L1442.419,400.965C1439.497,400.4 1436.682,400.117 1433.973,400.117C1422.499,400.117 1416.763,405.789 1416.763,417.134C1416.763,427.174 1420.773,432.194 1428.794,432.194Z" style="fill-rule:nonzero;"/>
            </g>
            <g transform="matrix(1.464218,0,0,1.789453,-566.398987,281.947275)">
                <path d="M1462.1,431.607L1475.804,431.607L1475.804,400.704L1463.853,400.704L1463.853,398.227L1478.274,398.227L1478.832,405.659C1481.382,403.008 1484.781,400.856 1489.031,399.204C1493.28,397.553 1497.61,396.727 1502.019,396.727L1502.019,399.465C1497.875,399.465 1493.745,400.258 1489.628,401.845C1485.512,403.431 1481.966,405.572 1478.991,408.267L1478.991,431.607L1497.716,431.607L1497.716,434.085L1462.1,434.085L1462.1,431.607Z" style="fill-rule:nonzero;"/>
            </g>
            <g transform="matrix(1.464218,0,0,1.789453,-566.398987,281.947275)">
                <path d="M1524.807,400.704L1512.855,400.704L1512.855,398.227L1527.277,398.227L1527.834,405.659C1530.384,403.008 1533.784,400.856 1538.033,399.204C1542.283,397.553 1546.612,396.727 1551.021,396.727L1551.021,399.465C1546.877,399.465 1542.747,400.258 1538.631,401.845C1534.514,403.431 1530.968,405.572 1527.994,408.267L1527.994,434.085L1524.807,434.085L1524.807,400.704Z" style="fill-rule:nonzero;"/>
            </g>
            <g transform="matrix(1.464218,0,0,1.789453,-566.398987,281.947275)">
                <path d="M1568.948,429.325C1573.782,431.238 1578.51,432.194 1583.131,432.194C1587.115,432.194 1590.037,431.575 1591.896,430.336C1593.755,429.097 1594.685,427.435 1594.685,425.348C1594.685,423.74 1594.153,422.447 1593.091,421.469C1592.029,420.491 1590.727,419.741 1589.187,419.22C1587.646,418.698 1585.495,418.112 1582.733,417.46C1579.705,416.808 1577.262,416.156 1575.402,415.504C1573.543,414.852 1571.976,413.863 1570.701,412.537C1569.427,411.212 1568.789,409.462 1568.789,407.289C1568.789,404.42 1569.971,402.084 1572.335,400.28C1574.699,398.476 1578.457,397.575 1583.609,397.575C1588.018,397.575 1592.161,398.357 1596.039,399.922L1596.039,402.595C1591.843,400.943 1587.54,400.117 1583.131,400.117C1579.2,400.117 1576.372,400.737 1574.645,401.975C1572.919,403.214 1572.056,404.855 1572.056,406.898C1572.056,408.549 1572.6,409.897 1573.689,410.94C1574.778,411.983 1576.119,412.787 1577.713,413.352C1579.307,413.917 1581.458,414.504 1584.167,415.112C1587.142,415.764 1589.545,416.416 1591.378,417.068C1593.211,417.72 1594.764,418.698 1596.039,420.002C1597.314,421.306 1597.951,423.023 1597.951,425.153C1597.951,427.935 1596.756,430.227 1594.366,432.031C1591.976,433.835 1588.045,434.737 1582.573,434.737C1580.183,434.737 1577.926,434.53 1575.801,434.117C1573.676,433.704 1571.392,433.02 1568.948,432.064L1568.948,429.325Z" style="fill-rule:nonzero;"/>
            </g>
            <g transform="matrix(1.464218,0,0,1.789453,-566.398987,281.947275)">
                <path d="M1640.659,434.737C1635.985,434.737 1632.558,433.759 1630.381,431.803C1628.203,429.847 1627.114,426.891 1627.114,422.936L1627.114,400.704L1615.003,400.704L1615.003,398.944L1627.114,398.227L1628.309,390.207L1630.301,390.207L1630.301,398.227L1651.416,398.227L1651.416,400.704L1630.301,400.704L1630.301,422.545C1630.301,426.066 1631.098,428.554 1632.691,430.01C1634.285,431.466 1636.994,432.194 1640.818,432.194C1644.377,432.194 1647.91,431.499 1651.416,430.108L1651.416,432.846C1647.804,434.106 1644.218,434.737 1640.659,434.737Z" style="fill-rule:nonzero;"/>
            </g>
            <g transform="matrix(1.464218,0,0,1.789453,-566.398987,281.947275)">
                <path d="M1672.451,424.24C1672.451,427.152 1673.088,429.206 1674.363,430.401C1675.638,431.596 1677.763,432.194 1680.737,432.194C1683.712,432.194 1686.501,431.477 1689.104,430.043C1691.706,428.608 1694.601,426.044 1697.789,422.349L1697.789,398.227L1700.976,398.227L1700.976,434.085L1698.506,434.085L1697.868,425.283C1695.319,428.456 1692.596,430.825 1689.701,432.39C1686.806,433.954 1683.606,434.737 1680.1,434.737C1676.382,434.737 1673.646,433.922 1671.893,432.292C1670.14,430.662 1669.264,428.217 1669.264,424.957L1669.264,398.227L1672.451,398.227L1672.451,424.24Z" style="fill-rule:nonzero;"/>
            </g>
            <g transform="matrix(1.464218,0,0,1.789453,-566.398987,281.947275)">
                <path d="M1755.316,398.227C1751.279,409.745 1745.596,421.697 1738.265,434.085L1734.441,434.085C1727.11,421.697 1721.427,409.745 1717.389,398.227L1720.895,398.227C1724.667,409.484 1729.819,420.567 1736.353,431.477C1742.887,420.567 1748.039,409.484 1751.811,398.227L1755.316,398.227Z" style="fill-rule:nonzero;"/>
            </g>
            <g transform="matrix(1.464218,0,0,1.789453,-566.398987,281.947275)">
                <path d="M1775.236,434.085C1773.324,428.434 1771.797,422.447 1770.655,416.123C1769.512,409.799 1768.835,403.833 1768.623,398.227L1771.81,398.227C1772.022,404.312 1772.554,409.875 1773.403,414.917C1774.253,419.959 1775.502,425.37 1777.148,431.151L1786.55,408.136L1788.144,408.136L1797.546,431.151C1799.193,425.37 1800.441,419.959 1801.291,414.917C1802.141,409.875 1802.672,404.312 1802.884,398.227L1806.072,398.227C1805.859,403.833 1805.182,409.799 1804.04,416.123C1802.898,422.447 1801.371,428.434 1799.458,434.085L1795.952,434.085L1787.347,412.896L1778.742,434.085L1775.236,434.085Z" style="fill-rule:nonzero;"/>
            </g>
            <g transform="matrix(1.464218,0,0,1.789453,-566.398987,281.947275)">
                <path d="M1838.341,417.916L1823.76,434.085L1820.015,434.085L1836.19,416.09L1820.653,398.227L1824.398,398.227L1838.341,414.2L1852.285,398.227L1856.03,398.227L1840.493,416.09L1856.667,434.085L1852.923,434.085L1838.341,417.916Z" style="fill-rule:nonzero;"/>
            </g>
            <g transform="matrix(1.464218,0,0,1.789453,-566.398987,281.947275)">
                <path d="M1872.683,444.647C1876.507,444.647 1879.668,443.821 1882.165,442.169C1884.661,440.518 1886.812,437.823 1888.619,434.085L1886.945,434.085L1870.133,398.227L1873.559,398.227L1889.336,432.65L1905.112,398.227L1908.538,398.227L1891.407,434.867C1889.495,438.996 1886.985,442.071 1883.878,444.092C1880.77,446.114 1877.039,447.124 1872.683,447.124L1872.683,444.647Z" style="fill-rule:nonzero;"/>
            </g>
            <g transform="matrix(1.464218,0,0,1.789453,-566.398987,281.947275)">
                <path d="M1923.916,431.086L1952.839,400.704L1924.554,400.704L1924.554,398.227L1956.027,398.227L1956.027,401.226L1927.103,431.607L1956.664,431.607L1956.664,434.085L1923.916,434.085L1923.916,431.086Z" style="fill-rule:nonzero;"/>
            </g>
        </g>
        <g>
            <g transform="matrix(1.464218,0,0,1.789453,-566.398987,281.947275)">
                <path d="M446.358,531.833L476.636,531.833L476.636,534.441L446.358,534.441L446.358,531.833ZM463.569,500.213C466.968,506.255 470.182,513.187 473.21,521.011C476.238,528.834 479.08,537.114 481.735,545.851L478.23,545.851C475.361,536.375 472.612,528.172 469.983,521.239C467.353,514.306 464.206,507.406 460.541,500.539L462.453,500.539C458.788,507.406 455.641,514.306 453.011,521.239C450.382,528.172 447.633,536.375 444.765,545.851L441.259,545.851C443.915,537.114 446.757,528.834 449.784,521.011C452.812,513.187 456.026,506.255 459.425,500.213L463.569,500.213Z" style="fill-rule:nonzero;"/>
            </g>
            <g transform="matrix(1.464218,0,0,1.789453,-566.398987,281.947275)">
                <path d="M497.671,500.213L513.288,500.213C518.6,500.213 522.584,501.126 525.24,502.951C527.896,504.777 529.224,507.493 529.224,511.101C529.224,514.23 528.294,516.729 526.435,518.598C524.576,520.467 521.761,521.706 517.989,522.315L517.75,521.467C522.371,521.684 525.837,522.771 528.148,524.727C530.459,526.683 531.614,529.508 531.614,533.203C531.614,537.375 530.167,540.526 527.272,542.656C524.377,544.786 520.087,545.851 514.404,545.851L497.671,545.851L497.671,500.213ZM499.344,543.243L514.882,543.243C519.556,543.243 522.942,542.46 525.041,540.896C527.139,539.331 528.188,536.832 528.188,533.398C528.188,529.964 527.152,527.454 525.081,525.868C523.009,524.281 519.715,523.488 515.2,523.488L499.663,523.488L499.663,520.88L512.491,520.88C517.113,520.88 520.486,520.152 522.61,518.696C524.735,517.24 525.798,514.926 525.798,511.753C525.798,508.623 524.775,506.352 522.73,504.94C520.685,503.527 517.378,502.821 512.81,502.821L499.344,502.821L501.018,501.061L501.018,544.808L499.344,543.243Z" style="fill-rule:nonzero;"/>
            </g>
            <g transform="matrix(1.464218,0,0,1.789453,-566.398987,281.947275)">
                <path d="M578.784,518.99C578.784,513.383 577.562,509.178 575.119,506.374C572.675,503.571 569.01,502.169 564.123,502.169C560.405,502.169 557.364,502.919 555,504.418C552.636,505.918 550.896,508.221 549.781,511.329C548.665,514.437 548.108,518.468 548.108,523.423C548.108,528.204 548.665,532.094 549.781,535.093C550.896,538.092 552.609,540.309 554.92,541.743C557.231,543.178 560.219,543.895 563.884,543.895C566.434,543.895 569.222,543.515 572.25,542.754C575.278,541.993 578.173,540.896 580.935,539.461L580.935,542.591C578.332,543.851 575.451,544.818 572.29,545.492C569.129,546.166 566.168,546.503 563.406,546.503C559.263,546.503 555.797,545.666 553.008,543.993C550.219,542.319 548.134,539.82 546.753,536.495C545.372,533.17 544.681,529.03 544.681,524.075C544.681,518.642 545.412,514.111 546.873,510.481C548.333,506.852 550.524,504.125 553.446,502.299C556.368,500.474 560.033,499.561 564.442,499.561C568.319,499.561 571.573,500.289 574.202,501.745C576.832,503.201 578.824,505.363 580.178,508.232C581.533,511.101 582.21,514.687 582.21,518.99L578.784,518.99Z" style="fill-rule:nonzero;"/>
            </g>
            <g transform="matrix(1.464218,0,0,1.789453,-566.398987,281.947275)">
                <path d="M598.305,500.213L612.647,500.213C620.031,500.213 625.409,501.984 628.782,505.526C632.155,509.069 633.842,514.708 633.842,522.445C633.842,530.573 632.049,536.506 628.463,540.244C624.878,543.982 619.154,545.851 611.293,545.851L598.305,545.851L598.305,500.213ZM599.341,543.243L611.93,543.243C616.498,543.243 620.124,542.58 622.806,541.254C625.489,539.929 627.427,537.81 628.623,534.898C629.818,531.986 630.415,528.03 630.415,523.032C630.415,518.033 629.818,514.078 628.623,511.166C627.427,508.254 625.502,506.135 622.846,504.809C620.19,503.484 616.578,502.821 612.01,502.821L599.341,502.821L601.651,501.126L601.651,544.873L599.341,543.243Z" style="fill-rule:nonzero;"/>
            </g>
            <g transform="matrix(1.464218,0,0,1.789453,-566.398987,281.947275)">
                <path d="M651.371,500.213L683.88,500.213L683.88,502.821L653.203,502.821L654.717,501.647L654.717,544.416L653.203,543.243L683.88,543.243L683.88,545.851L651.371,545.851L651.371,500.213ZM653.203,520.88L681.25,520.88L681.25,523.488L653.203,523.488L653.203,520.88Z" style="fill-rule:nonzero;"/>
            </g>
            <g transform="matrix(1.464218,0,0,1.789453,-566.398987,281.947275)">
                <path d="M701.568,500.213L732.882,500.213L732.882,502.821L704.118,502.821L704.915,501.517L704.915,545.851L701.568,545.851L701.568,500.213ZM704.118,522.184L730.252,522.184L730.252,524.792L704.118,524.792L704.118,522.184Z" style="fill-rule:nonzero;"/>
            </g>
            <g transform="matrix(1.464218,0,0,1.789453,-566.398987,281.947275)">
                <path d="M767.223,546.503C761.221,546.503 756.639,544.601 753.479,540.798C750.318,536.995 748.738,531.355 748.738,523.879C748.738,518.533 749.521,514.056 751.088,510.449C752.655,506.841 755.032,504.125 758.22,502.299C761.407,500.474 765.417,499.561 770.251,499.561C772.588,499.561 774.793,499.757 776.864,500.148C778.936,500.539 781.008,501.126 783.079,501.908L783.079,505.038C780.954,504.038 778.79,503.31 776.585,502.853C774.381,502.397 772.11,502.169 769.773,502.169C765.576,502.169 762.19,502.908 759.614,504.386C757.038,505.863 755.152,508.145 753.957,511.231C752.762,514.317 752.164,518.316 752.164,523.227C752.164,528.052 752.722,531.986 753.837,535.028C754.953,538.071 756.653,540.309 758.937,541.743C761.221,543.178 764.142,543.895 767.701,543.895C770.57,543.895 773.412,543.417 776.227,542.46C779.042,541.504 781.672,540.113 784.115,538.288L782.123,541.678L782.123,524.988L784.673,526.683L768.896,526.683L768.896,524.075L785.47,524.075L785.47,540.635C782.814,542.504 779.905,543.949 776.745,544.971C773.584,545.992 770.41,546.503 767.223,546.503Z" style="fill-rule:nonzero;"/>
            </g>
            <g transform="matrix(1.464218,0,0,1.789453,-566.398987,281.947275)">
                <path d="M832.799,500.213L836.145,500.213L836.145,545.851L832.799,545.851L832.799,500.213ZM800.768,500.213L804.114,500.213L804.114,545.851L800.768,545.851L800.768,500.213ZM803.636,520.88L833.675,520.88L833.675,523.488L803.636,523.488L803.636,520.88Z" style="fill:rgb(242,13,13);fill-rule:nonzero;"/>
            </g>
            <g transform="matrix(1.464218,0,0,1.789453,-566.398987,281.947275)">
                <path d="M867.777,501.517L871.124,501.517L871.124,544.808L867.777,544.808L867.777,501.517ZM851.125,543.243L887.777,543.243L887.777,545.851L851.125,545.851L851.125,543.243ZM851.125,500.213L887.777,500.213L887.777,502.821L851.125,502.821L851.125,500.213Z" style="fill-rule:nonzero;"/>
            </g>
            <g transform="matrix(1.464218,0,0,1.789453,-566.398987,281.947275)">
                <path d="M903.633,543.438C913.46,543.438 920.631,542.048 925.146,539.267C929.661,536.486 931.918,532.074 931.918,526.031L931.918,500.995L934.07,502.821L907.696,502.821L907.696,500.213L935.265,500.213L935.265,525.64C935.265,532.443 932.609,537.566 927.297,541.01C921.985,544.455 914.097,546.177 903.633,546.177L903.633,543.438Z" style="fill-rule:nonzero;"/>
            </g>
            <g transform="matrix(1.464218,0,0,1.789453,-566.398987,281.947275)">
                <path d="M967.136,522.119L985.542,500.213L989.446,500.213L969.925,523.293L969.925,520.815L990.084,545.851L986.179,545.851L967.136,522.119ZM955.663,500.213L959.009,500.213L959.009,545.851L955.663,545.851L955.663,500.213ZM957.256,520.815L969.049,520.815L969.049,523.423L957.256,523.423L957.256,520.815Z" style="fill-rule:nonzero;"/>
            </g>
            <g transform="matrix(1.464218,0,0,1.789453,-566.398987,281.947275)">
                <path d="M1007.693,500.213L1011.039,500.213L1011.039,544.612L1008.967,543.243L1043.229,543.243L1043.229,545.851L1007.693,545.851L1007.693,500.213Z" style="fill-rule:nonzero;"/>
            </g>
            <g transform="matrix(1.464218,0,0,1.789453,-566.398987,281.947275)">
                <path d="M1056.934,500.213L1061.476,500.213L1074.941,523.423L1071.913,523.423L1085.379,500.213L1089.921,500.213L1092.391,545.851L1089.044,545.851L1086.734,500.93L1088.487,501.191L1074.623,524.662L1072.232,524.662L1058.368,501.191L1060.121,500.93L1057.81,545.851L1054.464,545.851L1056.934,500.213Z" style="fill-rule:nonzero;"/>
            </g>
            <g transform="matrix(1.464218,0,0,1.789453,-566.398987,281.947275)">
                <path d="M1106.414,500.213L1110.159,500.213L1140.596,543.373L1139.082,543.699L1139.082,500.213L1142.429,500.213L1142.429,545.851L1138.684,545.851L1108.247,502.69L1109.761,502.364L1109.761,545.851L1106.414,545.851L1106.414,500.213Z" style="fill-rule:nonzero;"/>
            </g>
            <g transform="matrix(1.464218,0,0,1.789453,-566.398987,281.947275)">
                <path d="M1174.699,546.503C1168.696,546.503 1164.181,544.623 1161.153,540.863C1158.125,537.103 1156.612,531.507 1156.612,524.075C1156.612,518.685 1157.342,514.165 1158.803,510.514C1160.264,506.863 1162.455,504.125 1165.376,502.299C1168.298,500.474 1171.91,499.561 1176.212,499.561C1182.162,499.561 1186.65,501.441 1189.678,505.201C1192.706,508.96 1194.22,514.556 1194.22,521.989C1194.22,527.378 1193.489,531.899 1192.029,535.55C1190.568,539.201 1188.39,541.939 1185.495,543.764C1182.6,545.59 1179.001,546.503 1174.699,546.503ZM1175.336,543.895C1178.948,543.895 1181.883,543.145 1184.14,541.646C1186.398,540.146 1188.071,537.842 1189.16,534.735C1190.249,531.627 1190.794,527.596 1190.794,522.641C1190.794,517.86 1190.262,513.969 1189.2,510.97C1188.138,507.971 1186.491,505.755 1184.26,504.32C1182.029,502.886 1179.134,502.169 1175.575,502.169C1171.963,502.169 1169.015,502.908 1166.731,504.386C1164.447,505.863 1162.76,508.167 1161.671,511.296C1160.582,514.426 1160.038,518.468 1160.038,523.423C1160.038,528.204 1160.569,532.094 1161.631,535.093C1162.694,538.092 1164.354,540.309 1166.611,541.743C1168.869,543.178 1171.777,543.895 1175.336,543.895Z" style="fill-rule:nonzero;"/>
            </g>
            <g transform="matrix(1.464218,0,0,1.789453,-566.398987,281.947275)">
                <path d="M1211.271,500.213L1227.525,500.213C1233.209,500.213 1237.512,501.321 1240.433,503.538C1243.355,505.755 1244.816,509.036 1244.816,513.383C1244.816,518.294 1243.249,522 1240.115,524.499C1236.981,526.998 1232.333,528.248 1226.171,528.248L1212.865,528.248L1212.865,525.64L1226.649,525.64C1231.748,525.64 1235.48,524.738 1237.844,522.934C1240.208,521.13 1241.389,518.251 1241.389,514.295C1241.389,510.297 1240.234,507.385 1237.923,505.559C1235.613,503.734 1231.987,502.821 1227.047,502.821L1212.865,502.821L1214.617,501.256L1214.617,545.851L1211.271,545.851L1211.271,500.213Z" style="fill-rule:nonzero;"/>
            </g>
            <g transform="matrix(1.464218,0,0,1.789453,-566.398987,281.947275)">
                <path d="M1296.607,554.457C1291.932,554.457 1288.519,553.707 1286.368,552.207C1284.217,550.708 1283.141,548.328 1283.141,545.068L1285.531,543.96C1285.531,546.742 1286.355,548.709 1288.001,549.86C1289.648,551.012 1292.516,551.588 1296.607,551.588L1296.607,554.457ZM1276.687,546.503C1270.685,546.503 1266.169,544.623 1263.142,540.863C1260.114,537.103 1258.6,531.507 1258.6,524.075C1258.6,518.685 1259.33,514.165 1260.791,510.514C1262.252,506.863 1264.443,504.125 1267.365,502.299C1270.286,500.474 1273.898,499.561 1278.201,499.561C1284.15,499.561 1288.639,501.441 1291.667,505.201C1294.694,508.96 1296.208,514.556 1296.208,521.989C1296.208,527.378 1295.478,531.899 1294.017,535.55C1292.556,539.201 1290.378,541.939 1287.483,543.764C1284.588,545.59 1280.99,546.503 1276.687,546.503ZM1277.324,543.895C1280.936,543.895 1283.871,543.145 1286.129,541.646C1288.386,540.146 1290.06,537.842 1291.149,534.735C1292.238,531.627 1292.782,527.596 1292.782,522.641C1292.782,517.86 1292.251,513.969 1291.188,510.97C1290.126,507.971 1288.479,505.755 1286.248,504.32C1284.017,502.886 1281.122,502.169 1277.563,502.169C1273.951,502.169 1271.003,502.908 1268.719,504.386C1266.435,505.863 1264.748,508.167 1263.66,511.296C1262.571,514.426 1262.026,518.468 1262.026,523.423C1262.026,528.204 1262.557,532.094 1263.62,535.093C1264.682,538.092 1266.342,540.309 1268.6,541.743C1270.857,543.178 1273.765,543.895 1277.324,543.895Z" style="fill-rule:nonzero;"/>
            </g>
            <g transform="matrix(1.464218,0,0,1.789453,-566.398987,281.947275)">
                <path d="M1312.861,500.213L1329.753,500.213C1335.065,500.213 1339.022,501.245 1341.625,503.31C1344.228,505.374 1345.529,508.493 1345.529,512.666C1345.529,517.186 1344.108,520.598 1341.266,522.901C1338.424,525.205 1334.135,526.357 1328.398,526.357L1314.694,526.357L1314.694,523.749L1328.876,523.749C1333.551,523.749 1336.924,522.891 1338.995,521.174C1341.067,519.457 1342.103,516.751 1342.103,513.057C1342.103,509.406 1341.107,506.787 1339.115,505.201C1337.123,503.614 1333.843,502.821 1329.275,502.821L1314.694,502.821L1316.207,500.93L1316.207,545.851L1312.861,545.851L1312.861,500.213ZM1330.071,525.379L1333.896,525.379L1346.804,545.851L1342.9,545.851L1330.071,525.379Z" style="fill-rule:nonzero;"/>
            </g>
            <g transform="matrix(1.464218,0,0,1.789453,-566.398987,281.947275)">
                <path d="M1362.899,541.026C1365.342,542.026 1367.839,542.754 1370.389,543.21C1372.938,543.667 1375.488,543.895 1378.038,543.895C1383.031,543.895 1386.723,543.102 1389.113,541.515C1391.504,539.929 1392.699,537.766 1392.699,535.028C1392.699,532.985 1392.088,531.323 1390.866,530.04C1389.644,528.758 1388.144,527.769 1386.364,527.074C1384.585,526.379 1382.128,525.596 1378.994,524.727C1375.435,523.727 1372.593,522.782 1370.468,521.891C1368.344,521 1366.538,519.696 1365.05,517.979C1363.563,516.262 1362.819,514.013 1362.819,511.231C1362.819,507.45 1364.307,504.559 1367.281,502.56C1370.256,500.561 1374.691,499.561 1380.588,499.561C1382.925,499.561 1385.116,499.735 1387.161,500.083C1389.206,500.43 1391.318,500.995 1393.496,501.778L1393.496,504.842C1391.211,503.842 1388.98,503.147 1386.803,502.756C1384.625,502.364 1382.394,502.169 1380.11,502.169C1375.329,502.169 1371.823,502.929 1369.592,504.451C1367.361,505.972 1366.245,508.167 1366.245,511.036C1366.245,513.383 1366.909,515.284 1368.237,516.74C1369.565,518.196 1371.199,519.305 1373.138,520.065C1375.077,520.826 1377.666,521.619 1380.906,522.445C1384.306,523.358 1387.002,524.216 1388.994,525.02C1390.986,525.824 1392.672,526.998 1394.053,528.541C1395.434,530.084 1396.125,532.116 1396.125,534.637C1396.125,538.331 1394.531,541.233 1391.344,543.341C1388.157,545.449 1383.562,546.503 1377.56,546.503C1375.063,546.503 1372.567,546.296 1370.07,545.883C1367.573,545.47 1365.183,544.873 1362.899,544.09L1362.899,541.026Z" style="fill-rule:nonzero;"/>
            </g>
            <g transform="matrix(1.464218,0,0,1.789453,-566.398987,281.947275)">
                <path d="M1428.713,501.517L1432.06,501.517L1432.06,545.851L1428.713,545.851L1428.713,501.517ZM1410.467,500.213L1450.306,500.213L1450.306,502.821L1410.467,502.821L1410.467,500.213Z" style="fill-rule:nonzero;"/>
            </g>
            <g transform="matrix(1.464218,0,0,1.789453,-566.398987,281.947275)">
                <path d="M1481.062,546.503C1475.272,546.503 1471.036,545.231 1468.353,542.689C1465.671,540.146 1464.33,536.158 1464.33,530.725L1464.33,500.213L1467.676,500.213L1467.676,530.073C1467.676,534.854 1468.765,538.353 1470.943,540.57C1473.121,542.786 1476.6,543.895 1481.381,543.895C1486.162,543.895 1489.641,542.776 1491.819,540.537C1493.997,538.299 1495.086,534.746 1495.086,529.877L1495.086,500.213L1498.432,500.213L1498.432,529.226C1498.432,535.267 1497.064,539.657 1494.329,542.395C1491.593,545.134 1487.171,546.503 1481.062,546.503Z" style="fill-rule:nonzero;"/>
            </g>
            <g transform="matrix(1.464218,0,0,1.789453,-566.398987,281.947275)">
                <path d="M1530.303,545.851C1526.904,539.809 1523.69,532.877 1520.662,525.053C1517.634,517.229 1514.793,508.949 1512.137,500.213L1515.643,500.213C1518.511,509.688 1521.26,517.892 1523.889,524.825C1526.519,531.757 1529.666,538.657 1533.331,545.525L1531.419,545.525C1535.084,538.657 1538.231,531.757 1540.861,524.825C1543.49,517.892 1546.239,509.688 1549.107,500.213L1552.613,500.213C1549.957,508.949 1547.116,517.229 1544.088,525.053C1541.06,532.877 1537.846,539.809 1534.447,545.851L1530.303,545.851Z" style="fill-rule:nonzero;"/>
            </g>
            <g transform="matrix(1.464218,0,0,1.789453,-566.398987,281.947275)">
                <path d="M1569.824,545.851C1567.752,537.81 1566.185,529.964 1565.123,522.315C1564.06,514.665 1563.529,507.298 1563.529,500.213L1566.876,500.213C1566.876,507.341 1567.367,514.698 1568.35,522.282C1569.332,529.867 1570.86,537.592 1572.931,545.46L1571.736,545.46L1582.254,511.948L1584.485,511.948L1595.002,545.46L1593.807,545.46C1595.879,537.592 1597.406,529.867 1598.389,522.282C1599.371,514.698 1599.863,507.341 1599.863,500.213L1603.209,500.213C1603.209,507.298 1602.678,514.665 1601.616,522.315C1600.553,529.964 1598.986,537.81 1596.915,545.851L1592.134,545.851L1582.493,514.556L1584.246,514.556L1574.605,545.851L1569.824,545.851Z" style="fill-rule:nonzero;"/>
            </g>
            <g transform="matrix(1.464218,0,0,1.789453,-566.398987,281.947275)">
                <path d="M1633.885,524.14L1633.885,521.272L1650.14,500.213L1653.725,500.213L1635.399,523.945L1635.399,521.467L1654.203,545.851L1650.618,545.851L1633.885,524.14ZM1633.328,521.467L1633.328,523.945L1615.001,500.213L1618.587,500.213L1634.841,521.272L1634.841,524.14L1618.109,545.851L1614.523,545.851L1633.328,521.467Z" style="fill-rule:nonzero;"/>
            </g>
            <g transform="matrix(1.464218,0,0,1.789453,-566.398987,281.947275)">
                <path d="M1683.684,527.922L1687.031,527.922L1687.031,545.851L1683.684,545.851L1683.684,527.922ZM1686.393,530.008L1684.322,530.008L1665.677,500.213L1669.342,500.213L1686.314,527.465L1684.401,527.465L1701.373,500.213L1705.038,500.213L1686.393,530.008Z" style="fill-rule:nonzero;"/>
            </g>
            <g transform="matrix(1.464218,0,0,1.789453,-566.398987,281.947275)">
                <path d="M1717.787,543.047L1752.048,501.517L1753.005,502.821L1718.424,502.821L1718.424,500.213L1754.279,500.213L1754.279,503.016L1720.018,544.547L1719.061,543.243L1754.917,543.243L1754.917,545.851L1717.787,545.851L1717.787,543.047Z" style="fill-rule:nonzero;"/>
            </g>
            <g transform="matrix(1.464218,0,0,1.789453,-566.398987,281.947275)">
                <path d="M473.529,611.672L473.529,597.915C473.529,595.742 473.13,593.992 472.333,592.667C471.537,591.341 470.288,590.352 468.589,589.7C466.889,589.048 464.658,588.722 461.896,588.722C459.186,588.722 456.597,589.037 454.127,589.668C451.657,590.298 449.253,591.243 446.916,592.504L446.916,589.765C451.909,587.375 457.088,586.18 462.453,586.18C467.181,586.18 470.74,587.136 473.13,589.048C475.521,590.961 476.716,593.829 476.716,597.654L476.716,614.54L476.078,608.738L479.265,622.69L476.078,622.69L473.529,611.672ZM457.194,623.342C453.211,623.342 450.01,622.505 447.593,620.832C445.176,619.158 443.968,616.844 443.968,613.888C443.968,609.672 446.438,606.564 451.378,604.565C456.318,602.566 463.781,601.566 473.768,601.566L473.768,603.913C464.897,603.913 458.257,604.696 453.848,606.26C449.439,607.825 447.235,610.237 447.235,613.497C447.235,615.714 448.204,617.485 450.143,618.811C452.082,620.136 454.645,620.799 457.832,620.799C461.656,620.799 464.883,619.854 467.513,617.963C470.142,616.072 472.413,613.41 474.325,609.976L474.803,614.019C472.891,616.713 470.554,618.941 467.792,620.701C465.03,622.462 461.497,623.342 457.194,623.342Z" style="fill:rgb(242,13,13);fill-rule:nonzero;"/>
            </g>
            <g transform="matrix(1.464218,0,0,1.789453,-566.398987,281.947275)">
                <path d="M497.273,574.444L500.46,574.444L500.46,596.481L499.424,595.894C501.549,592.808 503.926,590.417 506.555,588.722C509.185,587.027 512.359,586.18 516.077,586.18C520.911,586.18 524.602,587.657 527.152,590.613C529.702,593.569 530.977,597.828 530.977,603.392C530.977,609.955 529.184,614.921 525.598,618.289C522.013,621.658 516.635,623.342 509.464,623.342C507.445,623.342 505.387,623.233 503.288,623.016C501.19,622.798 499.185,622.473 497.273,622.038L497.273,574.444ZM497.91,619.365C501.894,620.321 505.851,620.799 509.782,620.799C513.819,620.799 517.166,620.169 519.822,618.908C522.478,617.648 524.456,615.757 525.758,613.236C527.059,610.715 527.71,607.564 527.71,603.783C527.71,598.654 526.581,594.862 524.324,592.406C522.066,589.95 518.998,588.722 515.121,588.722C512.252,588.722 509.596,589.537 507.153,591.167C504.709,592.797 502.186,595.546 499.583,599.415L500.46,596.872L500.46,621.581L497.91,619.365Z" style="fill:rgb(242,13,13);fill-rule:nonzero;"/>
            </g>
            <g transform="matrix(1.464218,0,0,1.789453,-566.398987,281.947275)">
                <path d="M564.92,623.342C558.917,623.342 554.429,621.875 551.454,618.941C548.479,616.007 546.992,611.606 546.992,605.739C546.992,599.089 548.519,594.166 551.574,590.972C554.628,587.777 559.183,586.18 565.238,586.18C568.532,586.18 571.334,586.69 573.644,587.712C575.955,588.733 577.708,590.254 578.903,592.276C580.098,594.297 580.696,596.807 580.696,599.806L577.429,599.806C577.429,595.937 576.407,593.123 574.362,591.363C572.317,589.602 569.116,588.722 564.76,588.722C561.308,588.722 558.519,589.287 556.394,590.417C554.269,591.547 552.716,593.297 551.733,595.666C550.75,598.035 550.259,601.131 550.259,604.956C550.259,610.476 551.427,614.497 553.765,617.018C556.102,619.539 559.873,620.799 565.079,620.799C567.788,620.799 570.311,620.473 572.649,619.821C574.986,619.169 577.296,618.126 579.581,616.692L579.581,619.691C575.172,622.125 570.285,623.342 564.92,623.342Z" style="fill-rule:nonzero;"/>
            </g>
            <g transform="matrix(1.464218,0,0,1.789453,-566.398987,281.947275)">
                <path d="M611.133,623.342C606.034,623.342 602.156,621.821 599.5,618.778C596.844,615.735 595.516,611.172 595.516,605.087C595.516,601.001 596.127,597.546 597.349,594.72C598.571,591.895 600.39,589.765 602.807,588.331C605.224,586.897 608.212,586.18 611.771,586.18C615.383,586.18 618.424,586.853 620.894,588.201C623.364,589.548 625.582,591.461 627.547,593.938L627.467,597.393C625.236,594.438 622.952,592.254 620.615,590.841C618.278,589.429 615.462,588.722 612.169,588.722C607.654,588.722 604.307,590.037 602.13,592.667C599.952,595.296 598.863,599.262 598.863,604.565C598.863,610.085 599.912,614.171 602.01,616.822C604.108,619.473 607.255,620.799 611.452,620.799C614.586,620.799 617.481,619.973 620.137,618.322C622.793,616.67 625.396,613.888 627.945,609.976L628.025,613.627C625.422,617.105 622.806,619.593 620.177,621.093C617.547,622.592 614.533,623.342 611.133,623.342ZM627.149,612.324L627.149,574.444L630.336,574.444L630.336,622.69L627.945,622.69L627.149,612.324Z" style="fill:rgb(242,13,13);fill-rule:nonzero;"/>
            </g>
            <g transform="matrix(1.464218,0,0,1.789453,-566.398987,281.947275)">
                <path d="M665.952,623.342C660.056,623.342 655.634,621.907 652.685,619.039C649.737,616.17 648.263,611.715 648.263,605.673C648.263,599.241 649.857,594.384 653.044,591.102C656.231,587.82 660.879,586.18 666.988,586.18C672.406,586.18 676.403,587.603 678.979,590.45C681.556,593.297 682.844,597.611 682.844,603.392C682.844,604.565 682.817,605.478 682.764,606.13L650.335,606.13L650.335,603.652L682.127,603.652L679.577,604.891C679.577,601.023 679.179,597.926 678.382,595.601C677.585,593.275 676.244,591.547 674.358,590.417C672.472,589.287 669.83,588.722 666.43,588.722C661.331,588.722 657.572,590.026 655.155,592.634C652.739,595.242 651.53,599.371 651.53,605.021C651.53,610.541 652.712,614.551 655.076,617.05C657.44,619.55 661.224,620.799 666.43,620.799C668.873,620.799 671.264,620.527 673.601,619.984C675.938,619.441 678.302,618.582 680.692,617.409L680.692,620.278C678.408,621.277 676.005,622.038 673.482,622.559C670.958,623.081 668.449,623.342 665.952,623.342Z" style="fill-rule:nonzero;"/>
            </g>
            <g transform="matrix(1.464218,0,0,1.789453,-566.398987,281.947275)">
                <path d="M710.811,587.744C710.811,584.311 711.661,581.572 713.361,579.53C715.06,577.487 717.783,576.009 721.528,575.096C725.273,574.183 730.332,573.727 736.706,573.727L736.706,576.204C730.863,576.204 726.308,576.552 723.042,577.248C719.775,577.943 717.451,579.095 716.07,580.703C714.689,582.311 713.998,584.528 713.998,587.353L713.998,622.69L710.811,622.69L710.811,587.744ZM697.425,586.832L736.308,586.832L736.308,589.309L697.425,589.309L697.425,586.832Z" style="fill-rule:nonzero;"/>
            </g>
            <g transform="matrix(1.464218,0,0,1.789453,-566.398987,281.947275)">
                <path d="M748.738,633.252C756.599,633.252 763.133,632.937 768.339,632.306C773.544,631.676 777.462,630.709 780.091,629.405C782.721,628.101 784.035,626.428 784.035,624.385C784.035,621.951 782.017,620.169 777.98,619.039C773.943,617.909 767.144,617.344 757.582,617.344L755.192,615.453L758.857,605.608L760.849,606.26L758.459,616.235L756.945,615.062C763.903,615.018 769.587,615.268 773.996,615.812C778.405,616.355 781.725,617.311 783.956,618.68C786.187,620.049 787.302,621.929 787.302,624.32C787.302,628.232 784.221,631.111 778.059,632.958C771.898,634.806 762.124,635.729 748.738,635.729L748.738,633.252ZM766.745,607.76C762.124,607.76 758.512,606.858 755.909,605.054C753.306,603.25 752.005,600.762 752.005,597.589C752.005,593.981 753.412,591.178 756.228,589.179C759.043,587.179 762.947,586.18 767.94,586.18C772.562,586.18 776.174,587.092 778.777,588.918C781.379,590.743 782.681,593.286 782.681,596.546C782.681,600.067 781.273,602.816 778.458,604.793C775.643,606.771 771.738,607.76 766.745,607.76ZM767.303,605.282C771.552,605.282 774.66,604.619 776.625,603.294C778.591,601.968 779.573,599.849 779.573,596.937C779.573,594.025 778.604,591.917 776.665,590.613C774.726,589.309 771.632,588.657 767.383,588.657C763.133,588.657 760.039,589.309 758.1,590.613C756.161,591.917 755.192,594.025 755.192,596.937C755.192,599.849 756.161,601.968 758.1,603.294C760.039,604.619 763.106,605.282 767.303,605.282ZM775.828,588.918L779.812,580.051L784.115,580.051L777.741,589.57L775.828,588.918Z" style="fill-rule:nonzero;"/>
            </g>
            <g transform="matrix(1.464218,0,0,1.789453,-566.398987,281.947275)">
                <path d="M817.102,635.99C811.471,635.99 806.943,635.034 803.517,633.121C800.091,631.209 798.377,628.623 798.377,625.363C798.377,623.45 799.028,621.505 800.33,619.528C801.631,617.55 803.742,615.714 806.664,614.019L809.612,615.127C807.062,616.431 805.097,617.941 803.716,619.658C802.335,621.375 801.644,623.146 801.644,624.972C801.644,627.536 803.039,629.59 805.827,631.133C808.616,632.676 812.64,633.447 817.899,633.447C821.67,633.447 824.857,633.034 827.46,632.209C830.063,631.383 831.988,630.285 833.237,628.916C834.485,627.547 835.109,626.058 835.109,624.45C835.109,622.625 834.392,621.245 832.958,620.31C831.524,619.376 829.784,618.756 827.739,618.452C825.694,618.148 822.945,617.887 819.492,617.67C816.146,617.452 813.49,617.202 811.524,616.92C809.559,616.637 807.899,616.061 806.544,615.192C805.19,614.323 804.513,613.062 804.513,611.411C804.513,610.237 804.738,609.183 805.19,608.249C805.641,607.314 806.398,606.173 807.461,604.826L809.373,605.869C807.992,607.825 807.301,609.564 807.301,611.085C807.301,612.171 807.846,612.997 808.935,613.562C810.024,614.127 811.392,614.518 813.038,614.736C814.685,614.953 816.969,615.17 819.891,615.388C823.821,615.649 827.009,615.985 829.452,616.398C831.896,616.811 833.994,617.615 835.747,618.811C837.5,620.006 838.376,621.755 838.376,624.059C838.376,626.189 837.539,628.166 835.866,629.992C834.193,631.817 831.749,633.273 828.536,634.36C825.322,635.447 821.511,635.99 817.102,635.99ZM817.739,607.76C812.799,607.76 808.935,606.858 806.146,605.054C803.357,603.25 801.963,600.762 801.963,597.589C801.963,593.981 803.464,591.178 806.465,589.179C809.466,587.179 813.623,586.18 818.934,586.18C823.875,586.18 827.739,587.092 830.528,588.918C833.316,590.743 834.711,593.286 834.711,596.546C834.711,600.067 833.21,602.816 830.209,604.793C827.208,606.771 823.051,607.76 817.739,607.76ZM818.297,605.217C822.706,605.217 826.013,604.533 828.217,603.163C830.421,601.794 831.524,599.741 831.524,597.002C831.524,594.264 830.421,592.199 828.217,590.809C826.013,589.418 822.732,588.722 818.377,588.722C814.021,588.722 810.741,589.407 808.536,590.776C806.332,592.145 805.23,594.177 805.23,596.872C805.23,599.654 806.332,601.74 808.536,603.131C810.741,604.522 813.994,605.217 818.297,605.217ZM827.619,588.918L831.603,580.051L835.906,580.051L829.532,589.57L827.619,588.918Z" style="fill-rule:nonzero;"/>
            </g>
            <g transform="matrix(1.464218,0,0,1.789453,-566.398987,281.947275)">
                <path d="M867.459,636.055C863.953,636.055 860.128,635.381 855.985,634.034L855.985,631.165C860.075,632.774 863.979,633.578 867.698,633.578C872.372,633.578 875.918,632.317 878.335,629.796C880.752,627.275 881.96,623.885 881.96,619.626L881.96,597.002L882.677,586.832L885.147,586.832L885.147,619.886C885.147,623.146 884.43,625.993 882.996,628.427C881.562,630.861 879.517,632.741 876.861,634.067C874.205,635.392 871.071,636.055 867.459,636.055ZM865.945,623.342C860.845,623.342 856.968,621.821 854.312,618.778C851.656,615.735 850.328,611.172 850.328,605.087C850.328,601.001 850.939,597.546 852.16,594.72C853.382,591.895 855.201,589.765 857.618,588.331C860.035,586.897 863.023,586.18 866.582,586.18C870.194,586.18 873.235,586.853 875.705,588.201C878.175,589.548 880.393,591.461 882.359,593.938L882.279,597.393C880.048,594.438 877.764,592.254 875.426,590.841C873.089,589.429 870.274,588.722 866.981,588.722C862.465,588.722 859.119,590.037 856.941,592.667C854.763,595.296 853.674,599.262 853.674,604.565C853.674,610.085 854.723,614.171 856.822,616.822C858.92,619.473 862.067,620.799 866.263,620.799C869.397,620.799 872.292,619.973 874.948,618.322C877.604,616.67 880.207,613.888 882.757,609.976L882.837,613.627C880.234,617.105 877.618,619.593 874.988,621.093C872.359,622.592 869.344,623.342 865.945,623.342Z" style="fill:rgb(242,13,13);fill-rule:nonzero;"/>
            </g>
            <g transform="matrix(1.464218,0,0,1.789453,-566.398987,281.947275)">
                <path d="M933.353,596.676C933.353,593.764 932.715,591.71 931.44,590.515C930.166,589.32 928.041,588.722 925.066,588.722C921.985,588.722 919.13,589.483 916.501,591.004C913.871,592.525 910.883,595.22 907.537,599.089L906.899,596.937C909.555,593.33 912.411,590.635 915.465,588.853C918.519,587.071 921.932,586.18 925.704,586.18C929.422,586.18 932.158,586.995 933.91,588.624C935.663,590.254 936.54,592.699 936.54,595.959L936.54,622.69L933.353,622.69L933.353,596.676ZM904.828,574.444L908.015,574.444L908.015,622.69L904.828,622.69L904.828,574.444Z" style="fill-rule:nonzero;"/>
            </g>
            <g transform="matrix(1.464218,0,0,1.789453,-566.398987,281.947275)">
                <path d="M972.395,587.614L974.785,589.309L959.408,589.309L959.408,586.832L975.582,586.832L975.582,621.451L972.395,621.451L972.395,587.614ZM957.017,620.212L987.295,620.212L987.295,622.69L957.017,622.69L957.017,620.212ZM970.483,573.075L977.495,573.075L977.495,579.334L970.483,579.334L970.483,573.075Z" style="fill-rule:nonzero;"/>
            </g>
            <g transform="matrix(1.464218,0,0,1.789453,-566.398987,281.947275)">
                <path d="M1023.788,587.614L1026.178,589.309L1010.003,589.309L1010.003,586.832L1026.975,586.832L1026.975,622.69L1023.788,622.69L1023.788,587.614ZM1021.875,573.075L1028.887,573.075L1028.887,579.334L1021.875,579.334L1021.875,573.075Z" style="fill-rule:nonzero;"/>
            </g>
            <g transform="matrix(1.464218,0,0,1.789453,-566.398987,281.947275)">
                <path d="M1058.766,633.252C1064.025,633.252 1068.354,632.611 1071.754,631.328C1075.154,630.046 1077.624,628.308 1079.164,626.113C1080.705,623.918 1081.475,621.429 1081.475,618.648L1081.475,587.94L1083.706,589.309L1058.766,589.309L1058.766,586.832L1084.662,586.832L1084.662,618.256C1084.662,621.734 1083.639,624.798 1081.594,627.449C1079.549,630.101 1076.575,632.143 1072.67,633.578C1068.766,635.012 1064.132,635.729 1058.766,635.729L1058.766,633.252ZM1078.766,573.075L1085.777,573.075L1085.777,579.334L1078.766,579.334L1078.766,573.075Z" style="fill-rule:nonzero;"/>
            </g>
            <g transform="matrix(1.464218,0,0,1.789453,-566.398987,281.947275)">
                <path d="M1123.067,603.978L1139.082,586.832L1142.827,586.832L1125.298,605.673L1125.298,602.544L1143.465,622.69L1139.72,622.69L1123.067,603.978ZM1111.115,602.87L1125.059,602.87L1125.059,605.347L1111.115,605.347L1111.115,602.87ZM1109.84,574.444L1113.027,574.444L1113.027,622.69L1109.84,622.69L1109.84,574.444Z" style="fill-rule:nonzero;"/>
            </g>
            <g transform="matrix(1.464218,0,0,1.789453,-566.398987,281.947275)">
                <path d="M1185.535,623.342C1180.914,623.342 1177.461,622.125 1175.177,619.691C1172.893,617.257 1171.75,613.497 1171.75,608.412L1171.75,575.357L1173.822,576.922L1154.221,576.922L1154.221,574.444L1174.938,574.444L1174.938,607.89C1174.938,612.41 1175.814,615.692 1177.567,617.735C1179.32,619.778 1182.135,620.799 1186.013,620.799C1188.031,620.799 1189.891,620.593 1191.59,620.18C1193.29,619.767 1194.963,619.104 1196.61,618.191L1196.61,620.93C1193.317,622.538 1189.625,623.342 1185.535,623.342Z" style="fill-rule:nonzero;"/>
            </g>
            <g transform="matrix(1.464218,0,0,1.789453,-566.398987,281.947275)">
                <path d="M1242.903,597.263C1242.903,594.307 1242.492,592.145 1241.668,590.776C1240.845,589.407 1239.53,588.722 1237.724,588.722C1235.865,588.722 1234.139,589.461 1232.545,590.939C1230.952,592.417 1229.358,594.786 1227.764,598.045L1227.127,595.568C1228.508,592.482 1230.128,590.146 1231.987,588.559C1233.847,586.973 1235.945,586.18 1238.282,586.18C1240.885,586.18 1242.837,587.071 1244.138,588.853C1245.44,590.635 1246.09,593.308 1246.09,596.872L1246.09,622.69L1242.903,622.69L1242.903,597.263ZM1206.889,586.832L1209.359,586.832L1210.076,596.481L1210.076,622.69L1206.889,622.69L1206.889,586.832ZM1224.896,597.263C1224.896,594.307 1224.484,592.145 1223.661,590.776C1222.838,589.407 1221.523,588.722 1219.717,588.722C1217.858,588.722 1216.131,589.461 1214.538,590.939C1212.944,592.417 1211.351,594.786 1209.757,598.045L1209.12,595.568C1210.501,592.482 1212.121,590.146 1213.98,588.559C1215.839,586.973 1217.937,586.18 1220.275,586.18C1222.877,586.18 1224.83,587.071 1226.131,588.853C1227.432,590.635 1228.083,593.308 1228.083,596.872L1228.083,622.69L1224.896,622.69L1224.896,597.263Z" style="fill-rule:nonzero;"/>
            </g>
            <g transform="matrix(1.464218,0,0,1.789453,-566.398987,281.947275)">
                <path d="M1290.312,596.676C1290.312,593.764 1289.675,591.71 1288.4,590.515C1287.125,589.32 1285,588.722 1282.025,588.722C1278.945,588.722 1276.089,589.483 1273.46,591.004C1270.831,592.525 1267.843,595.22 1264.496,599.089L1263.859,596.937C1266.515,593.33 1269.37,590.635 1272.424,588.853C1275.479,587.071 1278.891,586.18 1282.663,586.18C1286.381,586.18 1289.117,586.995 1290.87,588.624C1292.623,590.254 1293.499,592.699 1293.499,595.959L1293.499,622.69L1290.312,622.69L1290.312,596.676ZM1261.787,586.832L1264.257,586.832L1264.974,597.328L1264.974,622.69L1261.787,622.69L1261.787,586.832Z" style="fill-rule:nonzero;"/>
            </g>
            <g transform="matrix(1.464218,0,0,1.789453,-566.398987,281.947275)">
                <path d="M1327.601,623.342C1321.971,623.342 1317.708,621.821 1314.813,618.778C1311.918,615.735 1310.471,611.302 1310.471,605.478C1310.471,599.002 1312.038,594.166 1315.172,590.972C1318.306,587.777 1322.98,586.18 1329.195,586.18C1334.879,586.18 1339.168,587.701 1342.063,590.743C1344.958,593.786 1346.406,598.198 1346.406,603.978C1346.406,610.498 1344.839,615.355 1341.705,618.55C1338.571,621.744 1333.87,623.342 1327.601,623.342ZM1328.398,620.799C1331.851,620.799 1334.653,620.212 1336.804,619.039C1338.956,617.865 1340.549,616.072 1341.585,613.66C1342.621,611.248 1343.139,608.151 1343.139,604.37C1343.139,600.632 1342.621,597.622 1341.585,595.34C1340.549,593.058 1338.956,591.384 1336.804,590.32C1334.653,589.255 1331.851,588.722 1328.398,588.722C1324.999,588.722 1322.223,589.309 1320.072,590.483C1317.921,591.656 1316.327,593.449 1315.291,595.861C1314.255,598.274 1313.737,601.349 1313.737,605.087C1313.737,608.825 1314.255,611.845 1315.291,614.149C1316.327,616.453 1317.907,618.137 1320.032,619.202C1322.157,620.267 1324.946,620.799 1328.398,620.799Z" style="fill:rgb(242,13,13);fill-rule:nonzero;"/>
            </g>
            <g transform="matrix(1.464218,0,0,1.789453,-566.398987,281.947275)">
                <path d="M1382.739,586.18C1387.838,586.18 1391.716,587.701 1394.372,590.743C1397.028,593.786 1398.356,598.35 1398.356,604.435C1398.356,608.52 1397.745,611.976 1396.523,614.801C1395.302,617.626 1393.482,619.756 1391.065,621.19C1388.648,622.625 1385.66,623.342 1382.102,623.342C1378.489,623.342 1375.448,622.668 1372.978,621.321C1370.508,619.973 1368.291,618.061 1366.325,615.583L1366.405,612.128C1368.636,615.084 1370.92,617.268 1373.257,618.68C1375.594,620.093 1378.41,620.799 1381.703,620.799C1386.218,620.799 1389.565,619.484 1391.743,616.855C1393.92,614.225 1395.009,610.259 1395.009,604.956C1395.009,599.436 1393.96,595.351 1391.862,592.699C1389.764,590.048 1386.617,588.722 1382.42,588.722C1379.286,588.722 1376.391,589.548 1373.735,591.2C1371.079,592.851 1368.476,595.633 1365.927,599.545L1365.847,595.894C1368.45,592.417 1371.066,589.928 1373.695,588.429C1376.325,586.929 1379.339,586.18 1382.739,586.18ZM1366.724,597.198L1366.724,635.077L1363.536,635.077L1363.536,586.832L1365.927,586.832L1366.724,597.198Z" style="fill:rgb(242,13,13);fill-rule:nonzero;"/>
            </g>
            <g transform="matrix(1.464218,0,0,1.789453,-566.398987,281.947275)">
                <path d="M1445.605,635.077L1442.418,635.077L1442.418,613.041L1443.454,613.627C1441.329,616.713 1438.952,619.104 1436.323,620.799C1433.693,622.494 1430.519,623.342 1426.801,623.342C1421.967,623.342 1418.275,621.864 1415.726,618.908C1413.176,615.953 1411.901,611.693 1411.901,606.13C1411.901,599.567 1413.694,594.601 1417.28,591.232C1420.865,587.864 1426.243,586.18 1433.414,586.18C1435.433,586.18 1437.491,586.288 1439.589,586.506C1441.688,586.723 1443.693,587.049 1445.605,587.484L1445.605,635.077ZM1444.968,590.157C1440.984,589.2 1437.026,588.722 1433.096,588.722C1429.059,588.722 1425.712,589.353 1423.056,590.613C1420.4,591.873 1418.422,593.764 1417.12,596.285C1415.819,598.806 1415.168,601.957 1415.168,605.739C1415.168,610.867 1416.297,614.66 1418.554,617.115C1420.812,619.571 1423.88,620.799 1427.757,620.799C1430.626,620.799 1433.282,619.984 1435.725,618.354C1438.169,616.724 1440.692,613.975 1443.295,610.107L1442.418,612.65L1442.418,587.94L1444.968,590.157Z" style="fill:rgb(242,13,13);fill-rule:nonzero;"/>
            </g>
            <g transform="matrix(1.464218,0,0,1.789453,-566.398987,281.947275)">
                <path d="M1475.803,587.81L1477.397,589.309L1463.852,589.309L1463.852,586.832L1478.273,586.832L1478.99,596.35L1478.99,621.647L1475.803,621.647L1475.803,587.81ZM1462.099,620.212L1497.715,620.212L1497.715,622.69L1462.099,622.69L1462.099,620.212ZM1477.875,595.307C1479.415,593.395 1481.487,591.689 1484.09,590.189C1486.693,588.69 1489.561,587.505 1492.695,586.636C1495.829,585.767 1498.937,585.332 1502.018,585.332L1502.018,588.07C1497.821,588.07 1493.638,588.885 1489.468,590.515C1485.298,592.145 1481.726,594.329 1478.751,597.067L1477.875,595.307Z" style="fill-rule:nonzero;"/>
            </g>
            <g transform="matrix(1.464218,0,0,1.789453,-566.398987,281.947275)">
                <path d="M1524.806,587.81L1526.399,589.309L1512.854,589.309L1512.854,586.832L1527.276,586.832L1527.993,596.35L1527.993,622.69L1524.806,622.69L1524.806,587.81ZM1526.877,595.307C1528.418,593.395 1530.489,591.689 1533.092,590.189C1535.695,588.69 1538.563,587.505 1541.697,586.636C1544.831,585.767 1547.939,585.332 1551.02,585.332L1551.02,588.07C1546.823,588.07 1542.64,588.885 1538.47,590.515C1534.301,592.145 1530.728,594.329 1527.754,597.067L1526.877,595.307Z" style="fill-rule:nonzero;"/>
            </g>
            <g transform="matrix(1.464218,0,0,1.789453,-566.398987,281.947275)">
                <path d="M1567.593,617.344C1572.905,619.647 1578.084,620.799 1583.13,620.799C1587.486,620.799 1590.7,620.158 1592.771,618.876C1594.843,617.594 1595.879,615.909 1595.879,613.823C1595.879,612.215 1595.294,610.922 1594.126,609.944C1592.957,608.966 1591.523,608.216 1589.823,607.695C1588.123,607.173 1585.786,606.586 1582.811,605.934C1579.518,605.282 1576.862,604.63 1574.844,603.978C1572.825,603.326 1571.112,602.338 1569.704,601.012C1568.297,599.686 1567.593,597.937 1567.593,595.764C1567.593,592.938 1568.868,590.635 1571.417,588.853C1573.967,587.071 1578.031,586.18 1583.608,586.18C1586.158,586.18 1588.548,586.408 1590.779,586.864C1593.01,587.321 1595.215,588.027 1597.393,588.983L1597.393,591.787C1594.843,590.656 1592.373,589.863 1589.982,589.407C1587.592,588.95 1585.308,588.722 1583.13,588.722C1578.774,588.722 1575.64,589.331 1573.728,590.548C1571.816,591.765 1570.86,593.373 1570.86,595.372C1570.86,597.024 1571.457,598.371 1572.652,599.415C1573.848,600.458 1575.322,601.262 1577.075,601.827C1578.827,602.392 1581.165,602.979 1584.086,603.587C1587.327,604.239 1589.956,604.891 1591.974,605.543C1593.993,606.195 1595.693,607.173 1597.074,608.477C1598.455,609.781 1599.146,611.498 1599.146,613.627C1599.146,616.453 1597.857,618.778 1595.281,620.604C1592.705,622.429 1588.469,623.342 1582.572,623.342C1579.97,623.342 1577.486,623.103 1575.122,622.625C1572.759,622.147 1570.249,621.342 1567.593,620.212L1567.593,617.344Z" style="fill:rgb(242,13,13);fill-rule:nonzero;"/>
            </g>
            <g transform="matrix(1.464218,0,0,1.789453,-566.398987,281.947275)">
                <path d="M1640.658,623.342C1635.983,623.342 1632.557,622.364 1630.379,620.408C1628.202,618.452 1627.113,615.496 1627.113,611.541L1627.113,588.722L1628.627,589.309L1615.001,589.309L1615.001,587.549L1628.627,586.766L1626.953,588.07L1628.308,578.812L1630.3,578.812L1630.3,587.418L1628.786,586.832L1651.415,586.832L1651.415,589.309L1628.786,589.309L1630.3,588.722L1630.3,611.15C1630.3,614.671 1631.097,617.159 1632.69,618.615C1634.284,620.071 1636.993,620.799 1640.817,620.799C1644.376,620.799 1647.909,620.104 1651.415,618.713L1651.415,621.451C1649.662,622.06 1647.922,622.527 1646.196,622.853C1644.469,623.179 1642.623,623.342 1640.658,623.342Z" style="fill-rule:nonzero;"/>
            </g>
            <g transform="matrix(1.464218,0,0,1.789453,-566.398987,281.947275)">
                <path d="M1672.45,612.845C1672.45,615.757 1673.087,617.811 1674.362,619.006C1675.637,620.201 1677.762,620.799 1680.736,620.799C1683.817,620.799 1686.672,620.038 1689.302,618.517C1691.931,616.996 1694.919,614.301 1698.265,610.433L1698.903,612.584C1696.247,616.192 1693.392,618.887 1690.337,620.669C1687.283,622.451 1683.87,623.342 1680.099,623.342C1676.38,623.342 1673.645,622.527 1671.892,620.897C1670.139,619.267 1669.262,616.822 1669.262,613.562L1669.262,586.832L1672.45,586.832L1672.45,612.845ZM1700.975,622.69L1698.504,622.69L1697.787,612.193L1697.787,586.832L1700.975,586.832L1700.975,622.69Z" style="fill-rule:nonzero;"/>
            </g>
            <g transform="matrix(1.464218,0,0,1.789453,-566.398987,281.947275)">
                <path d="M1734.439,622.69C1730.827,616.605 1727.587,610.563 1724.719,604.565C1721.85,598.567 1719.407,592.656 1717.388,586.832L1720.894,586.832C1722.753,592.395 1725.024,598.056 1727.707,603.815C1730.389,609.574 1733.51,615.388 1737.069,621.255L1735.635,621.255C1739.194,615.388 1742.314,609.574 1744.997,603.815C1747.679,598.056 1749.95,592.395 1751.809,586.832L1755.315,586.832C1753.297,592.656 1750.853,598.567 1747.985,604.565C1745.116,610.563 1741.876,616.605 1738.264,622.69L1734.439,622.69Z" style="fill-rule:nonzero;"/>
            </g>
            <g transform="matrix(1.464218,0,0,1.789453,-566.398987,281.947275)">
                <path d="M1775.235,622.69C1773.322,617.039 1771.795,611.052 1770.653,604.728C1769.511,598.404 1768.834,592.439 1768.621,586.832L1771.809,586.832C1772.021,593.047 1772.566,598.73 1773.442,603.881C1774.318,609.031 1775.633,614.605 1777.386,620.604L1776.669,620.93L1786.549,596.741L1788.143,596.741L1798.023,620.93L1797.306,620.604C1799.059,614.605 1800.373,609.031 1801.25,603.881C1802.126,598.73 1802.671,593.047 1802.883,586.832L1806.07,586.832C1805.858,592.439 1805.181,598.404 1804.039,604.728C1802.896,611.052 1801.369,617.039 1799.457,622.69L1795.951,622.69L1786.868,600.327L1787.824,600.327L1778.741,622.69L1775.235,622.69Z" style="fill-rule:nonzero;"/>
            </g>
            <g transform="matrix(1.464218,0,0,1.789453,-566.398987,281.947275)">
                <path d="M1836.667,604.696L1852.284,586.832L1856.029,586.832L1839.217,606.13L1839.217,603.326L1856.666,622.69L1852.921,622.69L1836.667,604.696ZM1837.464,603.326L1837.464,606.13L1820.651,586.832L1824.396,586.832L1840.013,604.696L1823.759,622.69L1820.014,622.69L1837.464,603.326Z" style="fill-rule:nonzero;"/>
            </g>
            <g transform="matrix(1.464218,0,0,1.789453,-566.398987,281.947275)">
                <path d="M1872.681,633.252C1876.559,633.252 1879.773,632.382 1882.323,630.644C1884.872,628.905 1887.05,626.102 1888.856,622.233L1889.334,622.69L1886.944,622.69L1870.132,586.832L1873.558,586.832L1889.653,622.038L1888.936,622.038L1905.111,586.832L1908.537,586.832L1891.406,623.472C1889.494,627.601 1886.984,630.676 1883.876,632.698C1880.769,634.719 1877.037,635.729 1872.681,635.729L1872.681,633.252Z" style="fill-rule:nonzero;"/>
            </g>
            <g transform="matrix(1.464218,0,0,1.789453,-566.398987,281.947275)">
                <path d="M1923.915,619.691L1954.193,587.875L1955.069,589.309L1924.552,589.309L1924.552,586.832L1956.025,586.832L1956.025,589.831L1925.668,621.712L1924.871,620.212L1956.663,620.212L1956.663,622.69L1923.915,622.69L1923.915,619.691Z" style="fill-rule:nonzero;"/>
            </g>
        </g>
    </g>
</svg>
