<?xml version="1.0" encoding="UTF-8" standalone="no"?>
<!DOCTYPE svg PUBLIC "-//W3C//DTD SVG 1.1//EN" "http://www.w3.org/Graphics/SVG/1.1/DTD/svg11.dtd">
<svg width="100%" height="100%" viewBox="0 0 1580 291" version="1.1" xmlns="http://www.w3.org/2000/svg" xmlns:xlink="http://www.w3.org/1999/xlink" xml:space="preserve" xmlns:serif="http://www.serif.com/" fill="var(--icon-primary, currentColor)" style="fill-rule:evenodd;clip-rule:evenodd;stroke-linejoin:round;stroke-miterlimit:2;">
    <g transform="matrix(1,0,0,1,-83,-230.017855)">
        <g transform="matrix(1.067764,0,0,0.863789,-393.545282,-36.892926)">
            <g>
                <path d="M465.852,417.533C459.687,417.533 454.887,415.628 451.453,411.817C448.019,408.007 446.302,402.676 446.302,395.827C446.302,386.855 449.463,380.077 455.784,375.495C462.106,370.912 472.447,368.573 486.807,368.476L486.807,361.675C486.807,356.755 485.734,353.089 483.588,350.677C481.442,348.265 478.105,347.059 473.579,347.059C469.676,347.059 466.067,347.59 462.75,348.651C459.433,349.712 455.862,351.449 452.038,353.86L452.038,341.415C459.999,337.17 467.608,335.048 474.866,335.048C481.968,335.048 487.49,337.291 491.431,341.777C495.372,346.263 497.343,352.462 497.343,360.373L497.343,391.63L500.972,416.086L490.553,416.086L488.212,400.313C486.027,406.101 483.1,410.418 479.432,413.264C475.764,416.11 471.237,417.533 465.852,417.533ZM457.306,393.511C457.306,397.37 458.223,400.337 460.057,402.411C461.891,404.485 464.642,405.522 468.31,405.522C473.774,405.522 478.222,403.448 481.656,399.3C485.09,395.151 486.807,389.894 486.807,383.526L486.807,377.159C479.705,377.255 474.008,377.834 469.715,378.896C465.423,379.957 462.282,381.669 460.291,384.033C458.301,386.396 457.306,389.556 457.306,393.511Z" style="fill-rule:nonzero;"/>
                <path d="M552.599,335.048C560.169,335.048 566.003,338.521 570.1,345.467C574.198,352.413 576.246,362.206 576.246,374.844C576.246,388.543 573.359,399.083 567.583,406.463C561.808,413.843 553.418,417.533 542.414,417.533C536.014,417.533 529.576,416.569 523.098,414.639L523.098,309L533.634,309L533.634,348.506C535.663,344.165 538.297,340.836 541.536,338.521C544.775,336.206 548.462,335.048 552.599,335.048ZM549.789,346.625C544.17,346.625 540.073,348.964 537.497,353.643C534.922,358.322 533.634,365.727 533.634,375.857L533.634,405.233C536.444,405.908 539.448,406.246 542.648,406.246C550.687,406.246 556.462,403.858 559.974,399.083C563.486,394.307 565.242,386.469 565.242,375.567C565.242,365.148 564.032,357.719 561.613,353.282C559.194,348.844 555.252,346.625 549.789,346.625Z" style="fill-rule:nonzero;"/>
                <path d="M619.912,417.533C612.108,417.533 606.079,414.012 601.825,406.97C597.572,399.927 595.445,389.942 595.445,377.014C595.445,363.701 597.572,353.378 601.825,346.046C606.079,338.714 612.108,335.048 619.912,335.048C628.419,335.048 634.819,339.245 639.111,347.638L639.111,309L649.647,309L649.647,416.086L641.687,416.086L639.931,402.483C637.902,407.404 635.17,411.142 631.736,413.699C628.302,416.255 624.361,417.533 619.912,417.533ZM622.722,405.957C628.653,405.957 632.868,403.762 635.365,399.372C637.863,394.983 639.111,387.53 639.111,377.014C639.111,366.113 637.863,358.322 635.365,353.643C632.868,348.964 628.653,346.625 622.722,346.625C616.791,346.625 612.596,348.82 610.137,353.209C607.679,357.599 606.45,365.052 606.45,375.567C606.45,386.469 607.698,394.259 610.196,398.938C612.693,403.617 616.869,405.957 622.722,405.957Z" style="fill-rule:nonzero;"/>
                <path d="M701.625,335.048C709.43,335.048 715.458,338.569 719.712,345.612C723.965,352.655 726.092,362.64 726.092,375.567C726.092,388.881 723.965,399.203 719.712,406.535C715.458,413.867 709.43,417.533 701.625,417.533C693.118,417.533 686.719,413.337 682.426,404.944L682.426,443.581L671.89,443.581L671.89,336.495L679.851,336.495L681.607,350.098C683.636,345.178 686.367,341.439 689.801,338.883C693.235,336.326 697.177,335.048 701.625,335.048ZM698.815,346.625C692.884,346.625 688.67,348.82 686.172,353.209C683.675,357.599 682.426,365.052 682.426,375.567C682.426,386.469 683.675,394.259 686.172,398.938C688.67,403.617 692.884,405.957 698.815,405.957C704.747,405.957 708.942,403.762 711.4,399.372C713.859,394.983 715.088,387.53 715.088,377.014C715.088,366.113 713.839,358.322 711.342,353.643C708.844,348.964 704.669,346.625 698.815,346.625Z" style="fill-rule:nonzero;"/>
                <path d="M768.939,417.533C761.368,417.533 755.534,414.06 751.437,407.114C747.34,400.168 745.291,390.376 745.291,377.738C745.291,364.039 748.179,353.499 753.954,346.118C759.729,338.738 768.119,335.048 779.123,335.048C785.523,335.048 791.962,336.013 798.44,337.942L798.44,443.581L787.903,443.581L787.903,404.075C785.874,408.417 783.24,411.745 780.001,414.06C776.763,416.376 773.075,417.533 768.939,417.533ZM771.748,405.957C777.367,405.957 781.465,403.617 784.04,398.938C786.616,394.259 787.903,386.855 787.903,376.725L787.903,347.348C785.094,346.673 782.089,346.336 778.889,346.336C770.851,346.336 765.075,348.723 761.563,353.499C758.051,358.274 756.295,366.113 756.295,377.014C756.295,387.434 757.505,394.862 759.924,399.3C762.344,403.738 766.285,405.957 771.748,405.957Z" style="fill-rule:nonzero;"/>
                <path d="M912.346,417.533C906.258,417.533 901.615,415.266 898.415,410.732C895.215,406.198 893.615,399.348 893.615,390.183C893.615,379.378 895.273,369.803 898.59,361.458C901.907,353.113 906.648,346.625 912.814,341.994C918.98,337.363 926.199,335.048 934.471,335.048C940.871,335.048 947.193,336.013 953.436,337.942L945.827,390.907L945.827,416.086L935.408,416.086L935.408,400.892C932.598,406.294 929.242,410.418 925.34,413.264C921.438,416.11 917.106,417.533 912.346,417.533ZM916.56,405.957C921.867,405.957 926.355,403.255 930.023,397.853C933.691,392.45 936.149,385.408 937.398,376.725L941.612,347.348C938.647,346.673 935.759,346.336 932.95,346.336C926.784,346.336 921.574,348.144 917.321,351.762C913.068,355.38 909.868,360.373 907.722,366.74C905.575,373.107 904.502,380.391 904.502,388.591C904.502,400.168 908.522,405.957 916.56,405.957Z" style="fill-rule:nonzero;"/>
                <path d="M1007.638,335.048C1013.648,335.048 1018.252,337.339 1021.452,341.922C1024.652,346.504 1026.252,353.233 1026.252,362.109C1026.252,373.493 1024.613,383.333 1021.335,391.63C1018.057,399.927 1013.355,406.318 1007.229,410.804C1001.102,415.29 993.863,417.533 985.513,417.533C979.191,417.533 972.908,416.569 966.665,414.639L981.649,309L992.185,309L986.566,348.361C992.185,339.486 999.209,335.048 1007.638,335.048ZM1002.956,346.625C997.258,346.625 992.79,348.964 989.551,353.643C986.313,358.322 983.991,365.727 982.586,375.857L978.489,405.088C981.766,405.86 984.654,406.246 987.152,406.246C996.283,406.246 1003.248,402.459 1008.048,394.886C1012.848,387.313 1015.248,376.87 1015.248,363.556C1015.248,357.382 1014.292,353.016 1012.379,350.46C1010.467,347.903 1007.326,346.625 1002.956,346.625Z" style="fill-rule:nonzero;"/>
                <path d="M1063.83,417.533C1057.431,417.533 1052.533,415.146 1049.139,410.37C1045.744,405.595 1044.046,398.673 1044.046,389.604C1044.046,379.764 1045.392,370.671 1048.085,362.326C1050.777,353.981 1054.504,347.348 1059.265,342.428C1064.026,337.508 1069.411,335.048 1075.42,335.048C1079.634,335.048 1083.205,336.109 1086.132,338.232C1089.058,340.354 1091.302,343.441 1092.863,347.493L1098.365,309L1108.901,309L1093.565,416.086L1085.605,416.086L1085.839,402.628C1080.298,412.565 1072.962,417.533 1063.83,417.533ZM1068.045,405.957C1074.991,405.957 1080.337,402.122 1084.083,394.452C1087.829,386.782 1089.702,376.532 1089.702,363.701C1089.702,357.719 1088.668,353.378 1086.6,350.677C1084.532,347.976 1081.273,346.625 1076.825,346.625C1069.879,346.625 1064.533,350.436 1060.787,358.057C1057.041,365.679 1055.167,375.905 1055.167,388.736C1055.167,394.814 1056.202,399.203 1058.27,401.905C1060.338,404.606 1063.596,405.957 1068.045,405.957Z" style="fill-rule:nonzero;"/>
                <path d="M1143.436,417.533C1135.632,417.533 1129.642,414.977 1125.466,409.864C1121.291,404.751 1119.203,397.081 1119.203,386.855C1119.203,377.593 1120.862,369.007 1124.178,361.096C1127.495,353.185 1132.081,346.866 1137.934,342.139C1143.787,337.412 1150.382,335.048 1157.718,335.048C1164.664,335.048 1169.893,337.05 1173.405,341.054C1176.917,345.057 1178.673,350.629 1178.673,357.768C1178.673,366.45 1175.922,373.204 1170.42,378.027C1164.918,382.851 1157.406,385.263 1147.885,385.263C1144.763,385.263 1141.797,384.925 1138.987,384.25C1136.178,383.575 1133.29,382.417 1130.325,380.777C1130.246,381.838 1130.207,383.285 1130.207,385.118C1130.207,392.643 1131.398,397.925 1133.778,400.964C1136.158,404.003 1140.314,405.522 1146.246,405.522C1150.148,405.522 1153.894,404.895 1157.484,403.641C1161.074,402.387 1164.976,400.313 1169.191,397.419L1167.552,409.864C1159.747,414.977 1151.709,417.533 1143.436,417.533ZM1131.963,369.923C1137.27,372.818 1143.007,374.265 1149.172,374.265C1155.104,374.265 1159.689,372.962 1162.928,370.358C1166.167,367.753 1167.786,363.846 1167.786,358.636C1167.786,350.629 1163.845,346.625 1155.962,346.625C1149.875,346.625 1144.782,348.723 1140.685,352.92C1136.588,357.116 1133.68,362.784 1131.963,369.923Z" style="fill-rule:nonzero;"/>
                <path d="M1213.793,412.903C1207.238,412.903 1202.438,410.298 1199.394,405.088C1196.35,399.879 1194.828,393.511 1194.828,385.986C1194.828,375.953 1196.448,367.077 1199.687,359.36C1202.926,351.642 1207.608,345.66 1213.735,341.415C1219.861,337.17 1227.061,335.048 1235.334,335.048C1241.577,335.048 1247.821,336.013 1254.064,337.942L1243.762,409.574C1242.904,415.749 1240.894,421.585 1237.734,427.084C1234.573,432.583 1230.436,437.045 1225.324,440.47C1220.212,443.895 1214.379,445.607 1207.823,445.607C1202.516,445.607 1196.975,444.353 1191.199,441.845L1193.072,428.966C1199.004,431.956 1204.545,433.452 1209.696,433.452C1216.642,433.452 1222.066,431.064 1225.968,426.288C1229.871,421.513 1232.368,415.604 1233.461,408.561L1234.631,400.313C1232.056,404.365 1228.973,407.476 1225.383,409.647C1221.793,411.817 1217.93,412.903 1213.793,412.903ZM1218.125,401.326C1224.602,401.326 1229.305,398.817 1232.231,393.801C1235.158,388.784 1237.207,382.176 1238.377,373.975L1242.241,346.336C1239.743,345.66 1236.934,345.323 1233.812,345.323C1224.368,345.323 1217.344,348.723 1212.74,355.525C1208.135,362.326 1205.833,372.191 1205.833,385.118C1205.833,390.907 1206.828,395.055 1208.818,397.563C1210.808,400.072 1213.91,401.326 1218.125,401.326Z" style="fill-rule:nonzero;"/>
                <path d="M1306.627,335.048C1313.027,335.048 1317.924,337.436 1321.319,342.211C1324.714,346.987 1326.412,353.909 1326.412,362.977C1326.412,372.818 1325.066,381.91 1322.373,390.255C1319.68,398.6 1315.954,405.233 1311.193,410.153C1306.432,415.073 1301.047,417.533 1295.038,417.533C1290.823,417.533 1287.253,416.472 1284.326,414.35C1281.4,412.227 1279.156,409.14 1277.595,405.088L1272.093,443.581L1261.557,443.581L1276.892,336.495L1284.853,336.495L1284.619,349.953C1290.16,340.016 1297.496,335.048 1306.627,335.048ZM1302.413,346.625C1295.467,346.625 1290.121,350.46 1286.375,358.129C1282.629,365.799 1280.756,376.05 1280.756,388.881C1280.756,394.862 1281.79,399.203 1283.858,401.905C1285.926,404.606 1289.184,405.957 1293.633,405.957C1300.579,405.957 1305.925,402.146 1309.671,394.524C1313.417,386.903 1315.29,376.677 1315.29,363.846C1315.29,357.768 1314.256,353.378 1312.188,350.677C1310.12,347.976 1306.862,346.625 1302.413,346.625Z" style="fill-rule:nonzero;"/>
                <path d="M1362.82,417.533C1356.81,417.533 1352.206,415.242 1349.006,410.66C1345.806,406.077 1344.206,399.348 1344.206,390.472C1344.206,379.088 1345.845,369.248 1349.123,360.951C1352.401,352.655 1357.103,346.263 1363.229,341.777C1369.356,337.291 1376.595,335.048 1384.945,335.048C1391.267,335.048 1397.55,336.013 1403.793,337.942L1388.808,443.581L1378.272,443.581L1383.892,404.22C1378.272,413.096 1371.248,417.533 1362.82,417.533ZM1367.502,405.957C1373.2,405.957 1377.668,403.617 1380.906,398.938C1384.145,394.259 1386.467,386.855 1387.872,376.725L1391.969,347.493C1388.691,346.721 1385.804,346.336 1383.306,346.336C1374.175,346.336 1367.21,350.122 1362.41,357.695C1357.61,365.269 1355.21,375.712 1355.21,389.025C1355.21,395.2 1356.166,399.565 1358.078,402.122C1359.99,404.678 1363.132,405.957 1367.502,405.957Z" style="fill-rule:nonzero;"/>
                <path d="M1420.885,432.728C1432.67,432.728 1441.606,430.413 1447.693,425.782C1453.781,421.151 1457.371,414.832 1458.463,406.825L1460.688,391.485C1451.869,406.439 1442.347,413.916 1432.123,413.916C1427.753,413.916 1424.358,412.493 1421.938,409.647C1419.519,406.801 1418.309,402.532 1418.309,396.84C1418.309,394.91 1418.504,392.595 1418.895,389.894L1426.621,336.495L1437.157,336.495L1429.782,388.157C1429.47,390.665 1429.314,392.354 1429.314,393.222C1429.314,399.589 1431.928,402.773 1437.157,402.773C1440.669,402.773 1444.22,401.229 1447.81,398.142C1451.4,395.055 1456.161,389.604 1462.092,381.79L1468.531,336.495L1479.067,336.495L1469.234,405.088C1467.517,417.63 1462.249,427.422 1453.429,434.465C1444.61,441.507 1433.216,445.029 1419.246,445.029L1420.885,432.728Z" style="fill-rule:nonzero;"/>
                <path d="M1586.301,417.533C1580.213,417.533 1575.569,415.266 1572.37,410.732C1569.17,406.198 1567.57,399.396 1567.57,390.328C1567.57,379.426 1569.209,369.803 1572.487,361.458C1575.765,353.113 1580.486,346.625 1586.652,341.994C1592.817,337.363 1600.075,335.048 1608.426,335.048C1614.748,335.048 1621.03,336.013 1627.274,337.942L1618.494,400.168C1618.416,400.65 1618.377,401.326 1618.377,402.194C1618.377,403.448 1618.65,404.389 1619.196,405.016C1619.743,405.643 1620.679,405.957 1622.006,405.957C1623.567,405.957 1625.206,405.571 1626.923,404.799L1625.284,415.942C1622.864,417.003 1620.445,417.533 1618.026,417.533C1614.982,417.533 1612.641,416.617 1611.002,414.784C1609.363,412.951 1608.543,410.25 1608.543,406.68C1608.543,405.04 1608.621,403.786 1608.777,402.918L1609.012,401.76C1606.202,406.873 1602.866,410.78 1599.002,413.482C1595.139,416.183 1590.905,417.533 1586.301,417.533ZM1590.983,405.957C1601.831,405.957 1608.621,396.213 1611.353,376.725L1615.567,347.348C1612.602,346.673 1609.675,346.336 1606.787,346.336C1600.7,346.336 1595.529,348.241 1591.276,352.052C1587.022,355.862 1583.823,360.975 1581.676,367.391C1579.53,373.807 1578.457,380.922 1578.457,388.736C1578.457,394.814 1579.491,399.203 1581.559,401.905C1583.628,404.606 1586.769,405.957 1590.983,405.957Z" style="fill-rule:nonzero;"/>
                <path d="M1661.223,417.533C1655.136,417.533 1650.492,415.266 1647.292,410.732C1644.093,406.198 1642.493,399.396 1642.493,390.328C1642.493,379.426 1644.132,369.803 1647.41,361.458C1650.687,353.113 1655.429,346.625 1661.633,341.994C1667.838,337.363 1675.193,335.048 1683.7,335.048C1686.51,335.048 1689.281,335.241 1692.012,335.627L1695.875,309L1706.411,309L1693.417,400.168C1693.339,400.65 1693.3,401.326 1693.3,402.194C1693.3,403.448 1693.573,404.389 1694.119,405.016C1694.666,405.643 1695.602,405.957 1696.929,405.957C1698.568,405.957 1700.207,405.522 1701.846,404.654L1700.207,415.942C1697.787,417.003 1695.368,417.533 1692.949,417.533C1689.905,417.533 1687.564,416.593 1685.925,414.712C1684.286,412.83 1683.466,410.105 1683.466,406.535C1683.466,405.185 1683.583,403.738 1683.817,402.194L1683.934,401.326C1681.047,406.728 1677.671,410.78 1673.808,413.482C1669.945,416.183 1665.75,417.533 1661.223,417.533ZM1665.906,405.957C1671.525,405.957 1675.954,403.617 1679.193,398.938C1682.432,394.259 1684.793,386.855 1686.276,376.725L1690.373,347.348C1687.564,346.673 1684.676,346.336 1681.71,346.336C1672.579,346.336 1665.574,350.243 1660.697,358.057C1655.819,365.872 1653.38,376.098 1653.38,388.736C1653.38,395.103 1654.375,399.565 1656.365,402.122C1658.355,404.678 1661.536,405.957 1665.906,405.957Z" style="fill-rule:nonzero;"/>
                <path d="M1741.766,445.897C1734.117,445.897 1725.962,443.003 1717.299,437.214L1719.172,424.914C1728.537,430.992 1736.38,434.031 1742.702,434.031C1750.35,434.031 1754.877,429.4 1756.282,420.138L1758.974,401.471C1753.589,409.767 1746.643,413.916 1738.136,413.916C1731.971,413.916 1727.269,411.576 1724.03,406.897C1720.791,402.218 1719.172,395.489 1719.172,386.71C1719.172,376.677 1720.791,367.825 1724.03,360.155C1727.269,352.486 1731.951,346.553 1738.078,342.356C1744.204,338.159 1751.404,336.061 1759.677,336.061C1765.92,336.061 1772.164,337.026 1778.408,338.955L1766.701,421.441C1765.53,429.352 1762.721,435.405 1758.272,439.602C1753.823,443.799 1748.321,445.897 1741.766,445.897ZM1742.468,402.339C1749.024,402.339 1753.765,399.806 1756.692,394.741C1759.618,389.677 1761.667,383.092 1762.838,374.988L1766.701,347.348C1764.203,346.673 1761.355,346.336 1758.155,346.336C1748.868,346.336 1741.883,349.688 1737.2,356.393C1732.517,363.098 1730.176,373.011 1730.176,386.131C1730.176,391.92 1731.171,396.068 1733.161,398.576C1735.151,401.085 1738.254,402.339 1742.468,402.339Z" style="fill-rule:nonzero;"/>
                <path d="M1801.119,352.269L1797.021,349.23L1802.523,336.495L1811.186,336.495L1810.601,351.111C1813.489,345.805 1816.864,341.801 1820.727,339.1C1824.59,336.399 1828.785,335.048 1833.312,335.048C1839.399,335.048 1844.043,337.315 1847.243,341.849C1850.443,346.384 1852.043,353.185 1852.043,362.254C1852.043,373.155 1850.404,382.779 1847.126,391.124C1843.848,399.469 1839.087,405.957 1832.844,410.587C1826.6,415.218 1819.225,417.533 1810.718,417.533C1807.83,417.533 1805.099,417.341 1802.523,416.955L1798.66,443.581L1788.124,443.581L1801.119,352.269ZM1804.162,405.233C1806.972,405.908 1809.86,406.246 1812.825,406.246C1821.956,406.246 1828.961,402.339 1833.839,394.524C1838.717,386.71 1841.155,376.484 1841.155,363.846C1841.155,357.575 1840.141,353.137 1838.112,350.532C1836.083,347.927 1832.922,346.625 1828.629,346.625C1822.932,346.625 1818.464,348.964 1815.225,353.643C1811.986,358.322 1809.664,365.727 1808.26,375.857L1804.162,405.233Z" style="fill-rule:nonzero;"/>
                <path d="M1915.259,417.533C1905.269,417.533 1900.274,410.587 1900.274,396.695C1900.274,390.038 1901.504,382.682 1903.962,374.627C1906.42,366.571 1910.108,358.25 1915.025,349.664C1909.093,352.076 1903.006,353.619 1896.762,354.295C1896.06,361.627 1893.816,368.79 1890.031,375.784C1886.246,382.779 1881.602,388.905 1876.1,394.163C1870.598,399.42 1865.037,403.111 1859.418,405.233L1861.876,388.446C1877.095,380.825 1885.212,369.489 1886.226,354.439L1879.319,349.23L1884.939,336.495L1896.762,336.495L1897.231,342.428C1905.347,341.946 1913.347,340.692 1921.229,338.666L1925.678,347.348C1916.078,365.968 1911.279,381.066 1911.279,392.643C1911.279,397.274 1912.059,400.65 1913.62,402.773C1915.181,404.895 1917.171,405.957 1919.59,405.957C1921.463,405.957 1923.454,405.378 1925.561,404.22L1924.039,415.508C1921.229,416.858 1918.303,417.533 1915.259,417.533Z" style="fill-rule:nonzero;"/>
                <path d="M486.807,590.753L486.807,561.376C486.807,558.096 486.319,555.371 485.344,553.2C484.368,551.03 482.885,549.414 480.895,548.352C478.905,547.291 476.388,546.761 473.344,546.761C470.223,546.761 466.808,547.339 463.101,548.497C459.394,549.655 455.706,551.343 452.038,553.562L452.038,541.117C459.999,536.872 467.608,534.75 474.866,534.75C481.968,534.75 487.49,536.993 491.431,541.479C495.372,545.965 497.343,552.163 497.343,560.074L497.343,597.699L496.407,585.109L500.972,615.788L490.67,615.788L486.807,590.753ZM465.501,617.235C459.491,617.235 454.789,615.306 451.394,611.447C447.999,607.588 446.302,602.233 446.302,595.384C446.302,586.315 449.521,579.465 455.96,574.835C462.399,570.204 472.954,567.888 487.627,567.888L487.627,576.571C476.856,576.571 469.11,577.849 464.389,580.406C459.667,582.963 457.306,587.28 457.306,593.358C457.306,597.12 458.223,600.038 460.057,602.113C461.891,604.187 464.603,605.224 468.193,605.224C473.422,605.224 477.578,603.415 480.661,599.797C483.744,596.18 486.261,591.573 488.212,585.977L489.5,596.252C486.456,603.295 483.061,608.552 479.315,612.025C475.569,615.498 470.964,617.235 465.501,617.235Z" style="fill-rule:nonzero;"/>
                <path d="M523.098,508.702L533.634,508.702L533.634,555.299L531.644,553.273C533.595,547.195 536.346,542.588 539.897,539.453C543.448,536.317 547.682,534.75 552.599,534.75C560.013,534.75 565.808,538.247 569.983,545.241C574.159,552.236 576.246,562.004 576.246,574.545C576.246,588.148 573.359,598.664 567.583,606.092C561.808,613.521 553.496,617.235 542.648,617.235C539.604,617.235 536.365,616.994 532.931,616.511C529.498,616.029 526.22,615.306 523.098,614.341L523.098,508.702ZM529.654,603.777C534.024,605.224 538.356,605.948 542.648,605.948C547.955,605.948 552.248,604.886 555.525,602.764C558.803,600.641 561.242,597.337 562.842,592.851C564.442,588.365 565.242,582.504 565.242,575.269C565.242,565.332 563.974,558.096 561.437,553.562C558.901,549.028 555.252,546.761 550.492,546.761C545.965,546.761 542.355,548.425 539.663,551.753C536.97,555.082 534.375,559.881 531.878,566.152L533.634,558.048L533.634,610.289L529.654,603.777Z" style="fill-rule:nonzero;"/>
                <path d="M619.795,617.235C612.225,617.235 606.274,613.69 601.943,606.599C597.611,599.508 595.445,589.547 595.445,576.716C595.445,567.937 596.44,560.388 598.43,554.069C600.421,547.749 603.269,542.95 606.976,539.67C610.684,536.39 615.113,534.75 620.263,534.75C625.024,534.75 629.063,536.148 632.38,538.946C635.697,541.744 638.487,545.699 640.75,550.813L640.75,563.692C637.863,557.518 634.955,553.152 632.029,550.595C629.102,548.039 625.649,546.761 621.668,546.761C616.361,546.761 612.498,548.955 610.079,553.345C607.659,557.735 606.45,565.042 606.45,575.269C606.45,585.495 607.718,593.044 610.254,597.916C612.791,602.788 616.595,605.224 621.668,605.224C626.351,605.224 630.097,603.463 632.907,599.942C635.716,596.421 638.253,591.862 640.516,586.267L641.218,597.41C639.267,603.873 636.458,608.794 632.79,612.17C629.122,615.547 624.79,617.235 619.795,617.235ZM639.111,596.252L639.111,508.702L649.647,508.702L649.647,615.788L641.687,615.788L639.111,596.252Z" style="fill-rule:nonzero;"/>
                <path d="M701.742,534.75C709.312,534.75 715.263,538.295 719.595,545.386C723.926,552.477 726.092,562.438 726.092,575.269C726.092,584.048 725.097,591.597 723.107,597.916C721.117,604.235 718.268,609.035 714.561,612.315C710.854,615.595 706.425,617.235 701.274,617.235C696.513,617.235 692.474,615.836 689.157,613.038C685.841,610.241 683.05,606.285 680.787,601.172L680.787,588.293C683.675,594.467 686.582,598.833 689.509,601.389C692.435,603.946 695.889,605.224 699.869,605.224C705.176,605.224 709.039,603.029 711.459,598.64C713.878,594.25 715.088,586.942 715.088,576.716C715.088,566.49 713.82,558.94 711.283,554.069C708.747,549.197 704.942,546.761 699.869,546.761C695.186,546.761 691.44,548.521 688.631,552.043C685.821,555.564 683.285,560.122 681.021,565.718L680.319,554.575C682.27,548.111 685.08,543.191 688.748,539.814C692.416,536.438 696.747,534.75 701.742,534.75ZM682.426,555.733L682.426,643.283L671.89,643.283L671.89,536.197L679.851,536.197L682.426,555.733Z" style="fill-rule:nonzero;"/>
                <path d="M798.44,643.283L787.903,643.283L787.903,596.686L789.894,598.712C787.942,604.79 785.191,609.396 781.64,612.532C778.089,615.667 773.855,617.235 768.939,617.235C761.524,617.235 755.73,613.738 751.554,606.743C747.379,599.749 745.291,589.981 745.291,577.439C745.291,563.837 748.179,553.321 753.954,545.892C759.729,538.464 768.041,534.75 778.889,534.75C781.933,534.75 785.172,534.991 788.606,535.473C792.04,535.956 795.318,536.679 798.44,537.644L798.44,643.283ZM791.884,548.208C787.513,546.761 783.182,546.037 778.889,546.037C773.582,546.037 769.29,547.098 766.012,549.221C762.734,551.343 760.295,554.647 758.695,559.133C757.095,563.619 756.295,569.48 756.295,576.716C756.295,586.653 757.564,593.888 760.1,598.423C762.637,602.957 766.285,605.224 771.046,605.224C775.572,605.224 779.182,603.56 781.875,600.231C784.567,596.903 787.162,592.103 789.659,585.833L787.903,593.937L787.903,541.696L791.884,548.208Z" style="fill-rule:nonzero;"/>
                <path d="M912.58,617.235C906.492,617.235 901.81,614.871 898.532,610.144C895.254,605.417 893.615,598.664 893.615,589.885C893.615,580.43 895.039,571.506 897.888,563.113C900.737,554.72 905.224,547.894 911.351,542.636C917.477,537.379 925.145,534.75 934.354,534.75C937.398,534.75 940.598,534.991 943.954,535.473C947.31,535.956 950.471,536.679 953.436,537.644L945.007,596.831L945.827,584.82L945.827,615.788L935.408,615.788L935.408,594.371L937.164,596.541C934.432,603.102 930.998,608.191 926.862,611.808C922.726,615.426 917.965,617.235 912.58,617.235ZM916.443,605.224C920.814,605.224 924.599,603.584 927.799,600.304C930.998,597.024 934.198,592.441 937.398,586.556L934.588,595.962L942.315,541.117L944.773,548.063C940.949,546.712 936.93,546.037 932.715,546.037C927.252,546.037 922.433,547.484 918.258,550.378C914.082,553.273 910.804,557.831 908.424,564.054C906.044,570.276 904.853,578.211 904.853,587.859C904.853,593.84 905.848,598.23 907.839,601.027C909.829,603.825 912.697,605.224 916.443,605.224Z" style="fill-rule:nonzero;"/>
                <path d="M986.215,617.235C983.171,617.235 979.971,616.994 976.616,616.511C973.26,616.029 970.099,615.306 967.133,614.341L982.235,508.702L992.771,508.702L986.098,555.299L984.342,553.273C987.073,547.388 990.429,542.829 994.41,539.597C998.39,536.366 1002.917,534.75 1007.989,534.75C1014.077,534.75 1018.76,537.113 1022.038,541.84C1025.315,546.568 1026.954,553.321 1026.954,562.1C1026.954,571.554 1025.53,580.478 1022.681,588.872C1019.833,597.265 1015.345,604.09 1009.219,609.348C1003.092,614.606 995.424,617.235 986.215,617.235ZM975.211,603.777C977.24,604.452 979.328,604.983 981.474,605.369C983.62,605.755 985.747,605.948 987.854,605.948C993.317,605.948 998.136,604.5 1002.312,601.606C1006.487,598.712 1009.765,594.154 1012.145,587.931C1014.526,581.708 1015.716,573.773 1015.716,564.126C1015.716,558.145 1014.721,553.755 1012.731,550.957C1010.741,548.16 1007.872,546.761 1004.126,546.761C999.678,546.761 995.854,548.449 992.654,551.826C989.454,555.202 986.176,559.978 982.82,566.152L985.747,558.048L978.254,610.289L975.211,603.777Z" style="fill-rule:nonzero;"/>
                <path d="M1062.777,617.235C1056.689,617.235 1052.007,614.871 1048.729,610.144C1045.451,605.417 1043.812,598.664 1043.812,589.885C1043.812,580.43 1045.236,571.506 1048.085,563.113C1050.934,554.72 1055.421,547.894 1061.548,542.636C1067.674,537.379 1075.342,534.75 1084.551,534.75C1088.844,534.75 1093.136,535.184 1097.429,536.052L1095.556,548.208C1091.497,546.761 1087.283,546.037 1082.912,546.037C1077.449,546.037 1072.63,547.484 1068.455,550.378C1064.279,553.273 1061.001,557.831 1058.621,564.054C1056.241,570.276 1055.05,578.211 1055.05,587.859C1055.05,593.84 1056.045,598.23 1058.036,601.027C1060.026,603.825 1062.894,605.224 1066.64,605.224C1071.089,605.224 1074.913,603.536 1078.113,600.159C1081.312,596.782 1084.59,592.007 1087.946,585.833L1086.424,598.712C1083.693,604.597 1080.337,609.155 1076.357,612.387C1072.376,615.619 1067.85,617.235 1062.777,617.235ZM1084.668,596.252L1097.195,508.702L1107.731,508.702L1092.512,615.788L1084.668,615.788L1084.668,596.252Z" style="fill-rule:nonzero;"/>
                <path d="M1143.436,617.235C1135.632,617.235 1129.642,614.678 1125.466,609.565C1121.291,604.452 1119.203,596.782 1119.203,586.556C1119.203,577.295 1120.862,568.709 1124.178,560.798C1127.495,552.887 1132.081,546.568 1137.934,541.84C1143.787,537.113 1150.382,534.75 1157.718,534.75C1164.586,534.75 1169.796,536.607 1173.347,540.321C1176.898,544.035 1178.673,549.076 1178.673,555.443C1178.673,564.126 1175.434,570.734 1168.957,575.269C1162.479,579.803 1155.26,582.721 1147.299,584.024C1139.339,585.326 1131.651,585.977 1124.237,585.977L1124.237,575.558C1136.178,575.558 1146.421,574.376 1154.967,572.013C1163.513,569.649 1167.786,564.657 1167.786,557.035C1167.786,553.851 1166.849,551.271 1164.976,549.293C1163.103,547.315 1160.099,546.326 1155.962,546.326C1150.577,546.326 1145.933,548.015 1142.031,551.391C1138.129,554.768 1135.183,559.351 1133.193,565.139C1131.203,570.927 1130.207,577.488 1130.207,584.82C1130.207,592.345 1131.398,597.627 1133.778,600.666C1136.158,603.705 1140.314,605.224 1146.246,605.224C1150.148,605.224 1153.894,604.597 1157.484,603.343C1161.074,602.089 1164.976,600.014 1169.191,597.12L1167.552,609.565C1163.728,612.074 1159.747,613.979 1155.611,615.281C1151.475,616.584 1147.416,617.235 1143.436,617.235Z" style="fill-rule:nonzero;"/>
                <path d="M1213.208,612.604C1207.12,612.604 1202.438,610.385 1199.16,605.948C1195.882,601.51 1194.243,595.142 1194.243,586.846C1194.243,577.874 1195.667,569.432 1198.516,561.521C1201.365,553.61 1205.852,547.171 1211.979,542.202C1218.105,537.234 1225.773,534.75 1234.982,534.75C1238.026,534.75 1241.226,534.991 1244.582,535.473C1247.938,535.956 1251.099,536.679 1254.064,537.644L1243.762,609.276C1242.904,615.45 1240.894,621.287 1237.734,626.786C1234.573,632.285 1230.436,636.747 1225.324,640.172C1220.212,643.597 1214.379,645.309 1207.823,645.309C1202.516,645.309 1196.975,644.055 1191.199,641.547L1193.072,628.667C1199.004,631.658 1204.545,633.153 1209.696,633.153C1216.642,633.153 1222.047,630.766 1225.91,625.99C1229.773,621.215 1232.251,615.306 1233.343,608.263L1235.685,593.068L1236.738,595.528C1234.007,600.931 1230.651,605.128 1226.671,608.118C1222.69,611.109 1218.203,612.604 1213.208,612.604ZM1217.071,601.027C1221.598,601.027 1225.461,599.46 1228.661,596.324C1231.861,593.189 1235.099,588.727 1238.377,582.938L1235.451,593.937L1242.943,541.696L1245.987,548.063C1243.88,547.388 1241.772,546.881 1239.665,546.544C1237.558,546.206 1235.451,546.037 1233.343,546.037C1227.88,546.037 1223.061,547.388 1218.886,550.089C1214.71,552.79 1211.432,557.011 1209.052,562.751C1206.672,568.491 1205.482,575.848 1205.482,584.82C1205.482,590.415 1206.477,594.515 1208.467,597.12C1210.457,599.725 1213.325,601.027 1217.071,601.027Z" style="fill-rule:nonzero;"/>
                <path d="M1307.681,534.75C1313.769,534.75 1318.451,537.113 1321.729,541.84C1325.007,546.568 1326.646,553.321 1326.646,562.1C1326.646,571.554 1325.222,580.478 1322.373,588.872C1319.524,597.265 1315.037,604.09 1308.91,609.348C1302.784,614.606 1295.116,617.235 1285.907,617.235C1281.614,617.235 1277.322,616.801 1273.029,615.933L1274.902,603.777C1278.961,605.224 1283.175,605.948 1287.546,605.948C1293.009,605.948 1297.828,604.5 1302.003,601.606C1306.179,598.712 1309.457,594.154 1311.837,587.931C1314.217,581.708 1315.407,573.773 1315.407,564.126C1315.407,558.145 1314.412,553.755 1312.422,550.957C1310.432,548.16 1307.564,546.761 1303.818,546.761C1299.369,546.761 1295.545,548.449 1292.345,551.826C1289.145,555.202 1285.868,559.978 1282.512,566.152L1284.034,553.273C1286.765,547.388 1290.121,542.829 1294.101,539.597C1298.082,536.366 1302.608,534.75 1307.681,534.75ZM1285.79,555.733L1273.263,643.283L1262.727,643.283L1277.946,536.197L1285.79,536.197L1285.79,555.733Z" style="fill-rule:nonzero;"/>
                <path d="M1384.243,534.75C1387.287,534.75 1390.486,534.991 1393.842,535.473C1397.198,535.956 1400.359,536.679 1403.325,537.644L1388.223,643.283L1377.687,643.283L1384.36,596.686L1386.116,598.712C1383.384,604.597 1380.028,609.155 1376.048,612.387C1372.068,615.619 1367.541,617.235 1362.468,617.235C1356.381,617.235 1351.698,614.871 1348.42,610.144C1345.142,605.417 1343.504,598.664 1343.504,589.885C1343.504,580.43 1344.928,571.506 1347.777,563.113C1350.625,554.72 1355.113,547.894 1361.239,542.636C1367.366,537.379 1375.034,534.75 1384.243,534.75ZM1395.247,548.208C1393.218,547.532 1391.13,547.002 1388.984,546.616C1386.838,546.23 1384.711,546.037 1382.604,546.037C1377.141,546.037 1372.322,547.484 1368.146,550.378C1363.971,553.273 1360.693,557.831 1358.313,564.054C1355.932,570.276 1354.742,578.211 1354.742,587.859C1354.742,593.84 1355.737,598.23 1357.727,601.027C1359.717,603.825 1362.585,605.224 1366.332,605.224C1370.78,605.224 1374.604,603.536 1377.804,600.159C1381.004,596.782 1384.282,592.007 1387.638,585.833L1384.711,593.937L1392.203,541.696L1395.247,548.208Z" style="fill-rule:nonzero;"/>
                <path d="M1413.393,632.285C1420.417,632.285 1426.036,630.79 1430.25,627.799C1434.465,624.808 1437.743,620.129 1440.084,613.762L1443.596,615.788L1433.762,615.788L1423.109,536.197L1434.582,536.197L1443.362,613.762L1440.435,613.762L1471.575,536.197L1483.047,536.197L1448.981,617.524C1445.079,626.689 1440.064,633.467 1433.938,637.856C1427.811,642.246 1420.378,644.441 1411.637,644.441L1413.393,632.285Z" fill="var(--icon-secondary, currentColor)" style="fill-rule:nonzero;"/>
                <path d="M1586.418,617.235C1580.33,617.235 1575.647,614.871 1572.37,610.144C1569.092,605.417 1567.453,598.664 1567.453,589.885C1567.453,580.43 1568.877,571.506 1571.726,563.113C1574.574,554.72 1579.062,547.894 1585.188,542.636C1591.315,537.379 1598.983,534.75 1608.192,534.75C1611.236,534.75 1614.436,534.991 1617.792,535.473C1621.148,535.956 1624.308,536.679 1627.274,537.644L1618.494,599.87C1618.26,601.799 1618.377,603.246 1618.845,604.211C1619.313,605.176 1620.367,605.658 1622.006,605.658C1623.567,605.658 1625.206,605.272 1626.923,604.5L1625.284,615.643C1622.864,616.704 1620.445,617.235 1618.026,617.235C1614.514,617.235 1611.919,615.981 1610.241,613.473C1608.563,610.964 1608.075,607.346 1608.777,602.619L1609.714,594.805L1610.768,596.975C1608.036,603.439 1604.622,608.432 1600.524,611.953C1596.427,615.474 1591.725,617.235 1586.418,617.235ZM1590.281,605.224C1594.651,605.224 1598.437,603.584 1601.636,600.304C1604.836,597.024 1608.036,592.441 1611.236,586.556L1608.426,595.962L1616.153,541.117L1618.611,548.063C1616.66,547.388 1614.67,546.881 1612.641,546.544C1610.611,546.206 1608.582,546.037 1606.553,546.037C1601.09,546.037 1596.271,547.484 1592.095,550.378C1587.92,553.273 1584.642,557.831 1582.262,564.054C1579.881,570.276 1578.691,578.211 1578.691,587.859C1578.691,593.84 1579.686,598.23 1581.676,601.027C1583.667,603.825 1586.535,605.224 1590.281,605.224Z" style="fill-rule:nonzero;"/>
                <path d="M1661.458,617.235C1655.37,617.235 1650.687,614.871 1647.41,610.144C1644.132,605.417 1642.493,598.664 1642.493,589.885C1642.493,580.43 1643.917,571.506 1646.766,563.113C1649.614,554.72 1654.102,547.894 1660.228,542.636C1666.355,537.379 1674.023,534.75 1683.232,534.75C1685.339,534.75 1687.388,534.846 1689.378,535.039C1691.368,535.232 1693.378,535.521 1695.407,535.907L1691.193,541.262L1695.875,508.702L1706.411,508.702L1693.417,599.87C1693.183,601.799 1693.3,603.246 1693.768,604.211C1694.236,605.176 1695.29,605.658 1696.929,605.658C1698.568,605.658 1700.207,605.224 1701.846,604.356L1700.207,615.643C1697.787,616.704 1695.368,617.235 1692.949,617.235C1689.359,617.235 1686.744,615.933 1685.105,613.328C1683.466,610.723 1683.037,606.912 1683.817,601.896L1684.754,595.094L1685.808,597.12C1682.998,603.584 1679.564,608.552 1675.506,612.025C1671.447,615.498 1666.765,617.235 1661.458,617.235ZM1665.321,605.224C1669.691,605.224 1673.457,603.608 1676.618,600.376C1679.779,597.144 1682.959,592.586 1686.159,586.701L1683.349,596.107L1691.193,541.117L1693.885,548.063C1692.168,547.484 1690.529,547.05 1688.968,546.761C1686.081,546.278 1683.622,546.037 1681.593,546.037C1676.13,546.037 1671.311,547.484 1667.135,550.378C1662.96,553.273 1659.682,557.831 1657.302,564.054C1654.921,570.276 1653.731,578.211 1653.731,587.859C1653.731,593.84 1654.726,598.23 1656.716,601.027C1658.707,603.825 1661.575,605.224 1665.321,605.224Z" style="fill-rule:nonzero;"/>
                <path d="M1737.668,612.604C1731.581,612.604 1726.898,610.385 1723.62,605.948C1720.342,601.51 1718.703,595.142 1718.703,586.846C1718.703,577.874 1720.128,569.432 1722.976,561.521C1725.825,553.61 1730.313,547.171 1736.439,542.202C1742.566,537.234 1750.233,534.75 1759.443,534.75C1762.486,534.75 1765.686,534.991 1769.042,535.473C1772.398,535.956 1775.559,536.679 1778.525,537.644L1766.701,621.142C1765.53,629.053 1762.721,635.107 1758.272,639.303C1753.823,643.5 1748.321,645.598 1741.766,645.598C1734.117,645.598 1725.962,642.704 1717.299,636.916L1719.172,624.615C1723.932,627.702 1728.303,629.994 1732.283,631.489C1736.263,632.984 1739.736,633.732 1742.702,633.732C1746.604,633.732 1749.668,632.526 1751.892,630.114C1754.116,627.702 1755.579,624.278 1756.282,619.84L1760.145,592.924L1761.316,595.384C1758.506,600.786 1755.111,605.007 1751.131,608.046C1747.151,611.085 1742.663,612.604 1737.668,612.604ZM1741.531,601.027C1746.058,601.027 1749.921,599.46 1753.121,596.324C1756.321,593.189 1759.56,588.727 1762.838,582.938L1759.911,593.937L1767.403,541.696L1770.447,548.063C1768.34,547.388 1766.233,546.881 1764.125,546.544C1762.018,546.206 1759.911,546.037 1757.804,546.037C1752.341,546.037 1747.521,547.388 1743.346,550.089C1739.171,552.79 1735.893,557.011 1733.512,562.751C1731.132,568.491 1729.942,575.848 1729.942,584.82C1729.942,590.415 1730.937,594.515 1732.927,597.12C1734.917,599.725 1737.785,601.027 1741.531,601.027Z" style="fill-rule:nonzero;"/>
                <path d="M1801.821,545.458L1804.865,555.009L1796.787,548.931L1802.289,536.197L1810.952,536.197L1810.133,557.035L1808.494,554.864C1811.303,548.401 1814.737,543.432 1818.796,539.959C1822.854,536.486 1827.537,534.75 1832.844,534.75C1838.931,534.75 1843.614,537.113 1846.892,541.84C1850.17,546.568 1851.809,553.321 1851.809,562.1C1851.809,571.554 1850.384,580.478 1847.536,588.872C1844.687,597.265 1840.199,604.09 1834.073,609.348C1827.946,614.606 1820.279,617.235 1811.069,617.235C1808.962,617.235 1806.913,617.139 1804.923,616.946C1802.933,616.753 1800.923,616.463 1798.894,616.077L1803.109,610.723L1798.426,643.283L1787.89,643.283L1801.821,545.458ZM1800.416,603.922C1802.211,604.5 1803.85,604.935 1805.333,605.224C1808.221,605.706 1810.679,605.948 1812.708,605.948C1818.171,605.948 1822.991,604.5 1827.166,601.606C1831.341,598.712 1834.619,594.154 1837,587.931C1839.38,581.708 1840.57,573.773 1840.57,564.126C1840.57,558.145 1839.575,553.755 1837.585,550.957C1835.595,548.16 1832.727,546.761 1828.981,546.761C1824.61,546.761 1820.844,548.377 1817.684,551.608C1814.523,554.84 1811.342,559.399 1808.143,565.284L1810.952,555.877L1803.109,610.868L1800.416,603.922Z" style="fill-rule:nonzero;"/>
                <path d="M1915.259,617.235C1910.03,617.235 1906.225,615.426 1903.845,611.808C1901.464,608.191 1900.274,603.053 1900.274,596.397C1900.274,589.354 1901.601,581.588 1904.255,573.098C1906.908,564.608 1910.966,555.877 1916.43,546.905L1918.069,547.918C1914.478,550.234 1910.323,552.187 1905.601,553.779C1900.879,555.371 1895.943,556.167 1890.792,556.167L1894.772,549.655C1893.758,558.338 1891.085,566.538 1886.753,574.256C1882.422,581.974 1876.237,588.582 1868.198,594.081L1870.656,576.716C1874.09,574.786 1877.232,571.169 1880.08,565.863C1882.929,560.556 1884.548,555.154 1884.939,549.655L1887.748,555.299L1879.319,548.931L1884.939,536.197L1894.421,536.197L1895.123,545.458L1892.08,542.275C1896.684,542.275 1901.425,541.937 1906.303,541.262C1911.181,540.586 1916.156,539.622 1921.229,538.367L1925.678,547.05C1920.449,557.18 1916.742,565.959 1914.556,573.388C1912.371,580.816 1911.279,587.135 1911.279,592.345C1911.279,596.975 1912.059,600.352 1913.62,602.474C1915.181,604.597 1917.171,605.658 1919.59,605.658C1921.541,605.658 1923.571,605.079 1925.678,603.922L1924.039,615.209C1921.229,616.56 1918.303,617.235 1915.259,617.235Z" style="fill-rule:nonzero;"/>
                <g transform="matrix(0.716175,0,0,0.885293,404.15777,-4.959018)">
                    <circle cx="119" cy="675" r="17" fill="var(--icon-secondary, currentColor)" style="fill-opacity:0.5;"/>
                </g>
                <g transform="matrix(0.716175,0,0,0.885293,555.876631,-1.485948)">
                    <circle cx="119" cy="675" r="17" fill="var(--icon-secondary, currentColor)" style="fill-opacity:0.5;"/>
                </g>
                <g transform="matrix(0.716175,0,0,0.885293,555.876631,-44.320486)">
                    <circle cx="119" cy="675" r="17" fill="var(--icon-secondary, currentColor)" style="fill-opacity:0.5;"/>
                </g>
                <g transform="matrix(0.716175,0,0,0.885293,595.211151,-1.485948)">
                    <circle cx="119" cy="675" r="17" fill="var(--icon-secondary, currentColor)" style="fill-opacity:0.5;"/>
                </g>
                <g transform="matrix(0.716175,0,0,0.885293,595.211151,-44.320486)">
                    <circle cx="119" cy="675" r="17" fill="var(--icon-secondary, currentColor)" style="fill-opacity:0.5;"/>
                </g>
                <g transform="matrix(0.716175,0,0,0.885293,704.785884,-1.485948)">
                    <circle cx="119" cy="675" r="17" fill="var(--icon-secondary, currentColor)" style="fill-opacity:0.5;"/>
                </g>
                <g transform="matrix(0.716175,0,0,0.885293,851.822064,-1.485948)">
                    <circle cx="119" cy="675" r="17" fill="var(--icon-secondary, currentColor)" style="fill-opacity:0.5;"/>
                </g>
                <g transform="matrix(0.716175,0,0,0.885293,1525.191578,-1.485948)">
                    <circle cx="119" cy="675" r="17" fill="var(--icon-secondary, currentColor)" style="fill-opacity:0.5;"/>
                </g>
                <g transform="matrix(0.716175,0,0,0.885293,1600.114472,-1.485948)">
                    <circle cx="119" cy="675" r="17" fill="var(--icon-secondary, currentColor)" style="fill-opacity:0.5;"/>
                </g>
                <g transform="matrix(0.716175,0,0,0.885293,1676.910439,-1.485948)">
                    <circle cx="119" cy="675" r="17" fill="var(--icon-secondary, currentColor)" style="fill-opacity:0.5;"/>
                </g>
                <g transform="matrix(0.716175,0,0,0.885293,899.585409,-44.320486)">
                    <circle cx="119" cy="675" r="17" fill="var(--icon-secondary, currentColor)" style="fill-opacity:0.5;"/>
                </g>
                <g transform="matrix(0.716175,0,0,0.885293,1041.002372,-16.53592)">
                    <circle cx="119" cy="675" r="17" fill="var(--icon-secondary, currentColor)" style="fill-opacity:0.5;"/>
                </g>
                <g transform="matrix(0.716175,0,0,0.885293,1001.667853,-1.485948)">
                    <circle cx="119" cy="675" r="17" fill="var(--icon-secondary, currentColor)" style="fill-opacity:0.5;"/>
                </g>
                <g transform="matrix(0.716175,0,0,0.885293,1301.359431,-1.485948)">
                    <circle cx="119" cy="675" r="17" fill="var(--icon-secondary, currentColor)" style="fill-opacity:0.5;"/>
                </g>
                <g transform="matrix(0.716175,0,0,0.885293,1152.450178,-4.959018)">
                    <circle cx="119" cy="675" r="17" fill="var(--icon-secondary, currentColor)" style="fill-opacity:0.5;"/>
                </g>
                <g transform="matrix(0.716175,0,0,0.885293,1009.160142,-55.897388)">
                    <circle cx="119" cy="675" r="17" fill="var(--icon-secondary, currentColor)" style="fill-opacity:0.5;"/>
                </g>
                <g transform="matrix(0.716175,0,0,0.885293,1191.784698,10.090955)">
                    <circle cx="119" cy="675" r="17" fill="var(--icon-secondary, currentColor)" style="fill-opacity:0.5;"/>
                </g>
                <g transform="matrix(0.716175,0,0,0.885293,1199.276987,-44.320486)">
                    <circle cx="119" cy="675" r="17" fill="var(--icon-secondary, currentColor)" style="fill-opacity:0.5;"/>
                </g>
                <g transform="matrix(0.716175,0,0,0.885293,1724.673784,-44.320486)">
                    <circle cx="119" cy="675" r="17" fill="var(--icon-secondary, currentColor)" style="fill-opacity:0.5;"/>
                </g>
                <g transform="matrix(0.716175,0,0,0.885293,1784.6121,-14.22054)">
                    <circle cx="119" cy="675" r="17" fill="var(--icon-secondary, currentColor)" style="fill-opacity:0.5;"/>
                </g>
                <g transform="matrix(0.716175,0,0,0.885293,1804.279359,-51.44752)">
                    <circle cx="119" cy="675" r="17" fill="var(--icon-secondary, currentColor)" style="fill-opacity:0.5;"/>
                </g>
                <g transform="matrix(0.716175,0,0,0.885293,446.301898,-44.320486)">
                    <circle cx="119" cy="675" r="17" fill="var(--icon-secondary, currentColor)" style="fill-opacity:0.5;"/>
                </g>
            </g>
        </g>
    </g>
</svg>
