<?xml version="1.0" encoding="UTF-8" standalone="no"?>
<!DOCTYPE svg PUBLIC "-//W3C//DTD SVG 1.1//EN" "http://www.w3.org/Graphics/SVG/1.1/DTD/svg11.dtd">
<svg width="100%" height="100%" viewBox="0 0 2315 195" version="1.1" xmlns="http://www.w3.org/2000/svg" xmlns:xlink="http://www.w3.org/1999/xlink" xml:space="preserve" xmlns:serif="http://www.serif.com/" fill="var(--icon-primary, currentColor)" style="fill-rule:evenodd;clip-rule:evenodd;stroke-linejoin:round;stroke-miterlimit:1.5;">
    <g transform="matrix(1,0,0,1,-93.83035,-2477.904607)">
        <g transform="matrix(0.855705,0,0,0.855705,13.539279,357.700301)">
            <g transform="matrix(0.623109,0,0,0.623109,-110.585879,957.31226)">
                <path d="M358.042,2505.351L395.092,2505.351L433.811,2591.468L472.53,2505.351L509.914,2505.351L520.928,2739L491.222,2739L483.545,2539.731L441.154,2634.526L426.801,2634.526L384.077,2539.731L376.4,2739L347.027,2739L358.042,2505.351Z" fill="var(--icon-secondary, currentColor)" style="fill-rule:nonzero;"/>
                <path d="M644.095,2742.338C619.617,2742.338 600.758,2734.494 587.518,2718.806C574.278,2703.118 567.658,2680.922 567.658,2652.216C567.658,2620.173 574.89,2595.473 589.354,2578.116C603.818,2560.759 624.29,2552.081 650.77,2552.081C675.47,2552.081 694.44,2559.869 707.68,2575.446C720.92,2591.023 727.541,2613.164 727.541,2641.869C727.541,2674.135 720.309,2698.946 705.845,2716.303C691.381,2733.659 670.797,2742.338 644.095,2742.338ZM647.432,2715.969C665.679,2715.969 678.697,2710.684 686.485,2700.114C694.273,2689.544 698.168,2671.687 698.168,2646.542C698.168,2629.63 696.499,2616.279 693.161,2606.488C689.823,2596.697 684.482,2589.576 677.139,2585.126C669.796,2580.675 659.894,2578.45 647.432,2578.45C629.408,2578.45 616.502,2583.735 608.714,2594.305C600.925,2604.875 597.031,2622.621 597.031,2647.543C597.031,2664.455 598.7,2677.862 602.038,2687.764C605.376,2697.666 610.716,2704.843 618.059,2709.293C625.403,2713.744 635.194,2715.969 647.432,2715.969Z" fill="var(--icon-secondary, currentColor)" style="fill-rule:nonzero;"/>
                <path d="M907.45,2610.827C907.45,2599.256 905.002,2590.633 900.107,2584.959C895.211,2579.284 887.534,2576.447 877.076,2576.447C867.062,2576.447 857.549,2579.618 848.537,2585.96C839.525,2592.302 828.9,2603.373 816.661,2619.172L816.661,2739L788.289,2739L788.289,2555.419L809.651,2555.419L814.992,2598.143C834.351,2567.435 858.05,2552.081 886.088,2552.081C901.887,2552.081 914.126,2556.698 922.804,2565.933C931.482,2575.168 935.822,2588.797 935.822,2606.822L935.822,2739L907.45,2739L907.45,2610.827Z" fill="var(--icon-secondary, currentColor)" style="fill-rule:nonzero;"/>
                <path d="M1071.338,2742.338C1046.86,2742.338 1028.002,2734.494 1014.761,2718.806C1001.521,2703.118 994.901,2680.922 994.901,2652.216C994.901,2620.173 1002.133,2595.473 1016.597,2578.116C1031.061,2560.759 1051.533,2552.081 1078.014,2552.081C1102.714,2552.081 1121.684,2559.869 1134.924,2575.446C1148.164,2591.023 1154.784,2613.164 1154.784,2641.869C1154.784,2674.135 1147.552,2698.946 1133.088,2716.303C1118.624,2733.659 1098.041,2742.338 1071.338,2742.338ZM1074.676,2715.969C1092.923,2715.969 1105.94,2710.684 1113.728,2700.114C1121.517,2689.544 1125.411,2671.687 1125.411,2646.542C1125.411,2629.63 1123.742,2616.279 1120.404,2606.488C1117.066,2596.697 1111.726,2589.576 1104.382,2585.126C1097.039,2580.675 1087.137,2578.45 1074.676,2578.45C1056.651,2578.45 1043.745,2583.735 1035.957,2594.305C1028.168,2604.875 1024.274,2622.621 1024.274,2647.543C1024.274,2664.455 1025.943,2677.862 1029.281,2687.764C1032.619,2697.666 1037.959,2704.843 1045.303,2709.293C1052.646,2713.744 1062.437,2715.969 1074.676,2715.969Z" fill="var(--icon-secondary, currentColor)" style="fill-rule:nonzero;"/>
                <path d="M1219.538,2700.949C1240.9,2710.962 1262.151,2715.969 1283.291,2715.969C1313.109,2715.969 1328.018,2707.513 1328.018,2690.601C1328.018,2684.371 1326.015,2679.364 1322.009,2675.581C1318.004,2671.798 1313.053,2668.85 1307.156,2666.736C1301.259,2664.622 1292.97,2662.341 1282.289,2659.893C1268.715,2656.778 1257.756,2653.607 1249.411,2650.38C1241.067,2647.154 1233.946,2642.036 1228.049,2635.026C1222.152,2628.017 1219.204,2618.615 1219.204,2606.822C1219.204,2590.355 1225.045,2577.115 1236.728,2567.101C1248.41,2557.088 1265.489,2552.081 1287.964,2552.081C1298.2,2552.081 1308.658,2553.138 1319.339,2555.252C1330.02,2557.366 1340.145,2560.426 1349.714,2564.431L1349.714,2591.134C1338.81,2586.238 1328.852,2582.9 1319.84,2581.12C1310.828,2579.34 1301.537,2578.45 1291.969,2578.45C1262.818,2578.45 1248.243,2587.017 1248.243,2604.151C1248.243,2610.827 1250.357,2616.223 1254.585,2620.34C1258.813,2624.457 1264.042,2627.627 1270.273,2629.853C1276.504,2632.078 1284.959,2634.414 1295.641,2636.862C1308.769,2639.755 1319.506,2642.815 1327.851,2646.041C1336.195,2649.268 1343.26,2654.275 1349.046,2661.061C1354.832,2667.848 1357.724,2677.027 1357.724,2688.599C1357.724,2704.843 1351.605,2717.86 1339.366,2727.651C1327.127,2737.442 1309.214,2742.338 1285.627,2742.338C1260.482,2742.338 1238.452,2737.665 1219.538,2728.319L1219.538,2700.949Z" fill="var(--icon-secondary, currentColor)" style="fill-rule:nonzero;"/>
                <path d="M1512.266,2552.081C1534.073,2552.081 1551.041,2560.203 1563.168,2576.447C1575.296,2592.691 1581.359,2615.723 1581.359,2645.541C1581.359,2676.249 1575.129,2700.059 1562.668,2716.97C1550.206,2733.882 1532.961,2742.338 1510.931,2742.338C1498.692,2742.338 1488.123,2739.779 1479.222,2734.661C1470.321,2729.543 1462.644,2722.2 1456.191,2712.631L1456.191,2802.419L1427.819,2802.419L1427.819,2555.419L1449.181,2555.419L1454.188,2589.131C1467.094,2564.431 1486.454,2552.081 1512.266,2552.081ZM1456.191,2683.592C1463.534,2695.163 1471.211,2703.452 1479.222,2708.459C1487.232,2713.466 1496.467,2715.969 1506.926,2715.969C1522.502,2715.969 1533.851,2710.74 1540.972,2700.281C1548.092,2689.823 1551.653,2672.688 1551.653,2648.878C1551.653,2624.623 1547.925,2606.822 1540.471,2595.473C1533.016,2584.124 1521.946,2578.45 1507.259,2578.45C1495.466,2578.45 1485.564,2581.843 1477.553,2588.63C1469.542,2595.417 1462.421,2604.374 1456.191,2615.5L1456.191,2683.592Z" fill="var(--icon-secondary, currentColor)" style="fill-rule:nonzero;"/>
                <path d="M1758.599,2700.615C1750.365,2714.411 1741.131,2724.814 1730.895,2731.824C1720.659,2738.833 1708.086,2742.338 1693.177,2742.338C1676.043,2742.338 1662.636,2737.887 1652.956,2728.986C1643.276,2720.086 1638.436,2707.847 1638.436,2692.27C1638.436,2671.576 1647.616,2655.888 1665.974,2645.207C1684.332,2634.526 1713.983,2629.074 1754.927,2628.851L1754.927,2613.497C1754.927,2601.704 1751.7,2592.914 1745.247,2587.128C1738.794,2581.343 1728.892,2578.45 1715.541,2578.45C1706.195,2578.45 1696.292,2579.785 1685.834,2582.455C1675.375,2585.126 1664.917,2589.131 1654.458,2594.472L1654.458,2567.101C1676.933,2557.088 1698.629,2552.081 1719.546,2552.081C1739.795,2552.081 1755.483,2557.199 1766.609,2567.435C1777.736,2577.671 1783.299,2592.024 1783.299,2610.493L1783.299,2682.591L1793.646,2739L1765.942,2739L1758.599,2700.615ZM1668.143,2687.597C1668.143,2696.721 1670.869,2703.73 1676.321,2708.626C1681.773,2713.521 1689.839,2715.969 1700.52,2715.969C1724.108,2715.969 1742.243,2703.619 1754.927,2678.919L1754.927,2647.877C1724.219,2648.1 1702.078,2651.27 1688.504,2657.39C1674.93,2663.509 1668.143,2673.578 1668.143,2687.597Z" fill="var(--icon-secondary, currentColor)" style="fill-rule:nonzero;"/>
                <path d="M1933.835,2742.338C1908.245,2742.338 1888.274,2734.494 1873.921,2718.806C1859.568,2703.118 1852.392,2680.922 1852.392,2652.216C1852.392,2620.173 1859.68,2595.473 1874.255,2578.116C1888.83,2560.759 1909.246,2552.081 1935.504,2552.081C1957.534,2552.081 1975.28,2558.367 1988.743,2570.94C2002.205,2583.512 2008.936,2600.48 2008.936,2621.842L1979.897,2621.842C1979.897,2606.043 1976.337,2594.694 1969.216,2587.796C1962.095,2580.898 1950.636,2577.449 1934.836,2577.449C1921.708,2577.449 1911.305,2579.785 1903.628,2584.458C1895.951,2589.131 1890.388,2596.53 1886.939,2606.655C1883.489,2616.78 1881.765,2630.409 1881.765,2647.543C1881.765,2672.243 1885.993,2689.823 1894.449,2700.281C1902.905,2710.74 1917.257,2715.969 1937.507,2715.969C1949.078,2715.969 1959.648,2714.467 1969.216,2711.463C1978.785,2708.459 1988.798,2703.396 1999.257,2696.276L1999.257,2723.98C1979.452,2736.218 1957.645,2742.338 1933.835,2742.338Z" fill="var(--icon-secondary, currentColor)" style="fill-rule:nonzero;"/>
                <path d="M2144.453,2742.338C2118.64,2742.338 2098.613,2734.661 2084.372,2719.307C2070.13,2703.953 2063.009,2681.812 2063.009,2652.884C2063.009,2621.731 2070.464,2597.142 2085.373,2579.118C2100.282,2561.093 2121.199,2552.081 2148.124,2552.081C2172.602,2552.081 2191.238,2559.758 2204.033,2575.112C2216.828,2590.466 2223.226,2612.607 2223.226,2641.535L2222.892,2658.224L2092.382,2658.224C2093.495,2678.474 2098.557,2693.16 2107.57,2702.284C2116.582,2711.407 2129.877,2715.969 2147.457,2715.969C2169.486,2715.969 2190.292,2709.85 2209.874,2697.611L2209.874,2724.981C2189.847,2736.552 2168.04,2742.338 2144.453,2742.338ZM2193.853,2633.858C2192.74,2613.831 2188.623,2599.59 2181.503,2591.134C2174.382,2582.678 2162.477,2578.45 2145.788,2578.45C2128.431,2578.45 2115.58,2582.678 2107.236,2591.134C2098.891,2599.59 2093.94,2613.831 2092.382,2633.858L2193.853,2633.858Z" fill="var(--icon-secondary, currentColor)" style="fill-rule:nonzero;"/>
                <path d="M2346.058,2742.338C2324.473,2742.338 2307.562,2734.216 2295.323,2717.972C2283.084,2701.727 2276.965,2678.696 2276.965,2648.878C2276.965,2618.17 2283.195,2594.36 2295.657,2577.449C2308.118,2560.537 2325.364,2552.081 2347.393,2552.081C2359.632,2552.081 2370.202,2554.64 2379.103,2559.758C2388.004,2564.876 2395.681,2572.219 2402.134,2581.788L2402.134,2492L2430.505,2492L2430.505,2739L2409.143,2739L2404.136,2705.288C2391.23,2729.988 2371.871,2742.338 2346.058,2742.338ZM2306.672,2645.541C2306.672,2669.795 2310.399,2687.597 2317.853,2698.946C2325.308,2710.295 2336.378,2715.969 2351.065,2715.969C2362.859,2715.969 2372.761,2712.575 2380.772,2705.789C2388.782,2699.002 2395.903,2690.045 2402.134,2678.919L2402.134,2610.827C2394.791,2599.256 2387.114,2590.967 2379.103,2585.96C2371.092,2580.953 2361.857,2578.45 2351.399,2578.45C2335.822,2578.45 2324.473,2583.679 2317.353,2594.138C2310.232,2604.596 2306.672,2621.731 2306.672,2645.541Z" fill="var(--icon-secondary, currentColor)" style="fill-rule:nonzero;"/>
            </g>
            <g transform="matrix(9.786765,0,0,0.435411,-4594.029945,1440.055788)">
                <path d="M615,2386L615,2903L479,2903L479,2386L615,2386ZM614.751,2391.592L479.249,2391.592L479.249,2897.408L614.751,2897.408L614.751,2391.592Z"/>
            </g>
            <g transform="matrix(1,0,0,0.776233,-302,530.602463)">
                <path d="M528,2510L528,2800" stroke="var(--icon-secondary, currentColor)" style="fill:none;stroke-width:2.72px;"/>
            </g>
            <g transform="matrix(1,0,0,0.776233,-168.875,530.602463)">
                <path d="M528,2510L528,2800" stroke="var(--icon-secondary, currentColor)" style="fill:none;stroke-width:2.72px;"/>
            </g>
            <g transform="matrix(1,0,0,0.776233,-35.75,530.602463)">
                <path d="M528,2510L528,2800" stroke="var(--icon-secondary, currentColor)" style="fill:none;stroke-width:2.72px;"/>
            </g>
            <g transform="matrix(1,0,0,0.776233,97.375,530.602463)">
                <path d="M528,2510L528,2800" stroke="var(--icon-secondary, currentColor)" style="fill:none;stroke-width:2.72px;"/>
            </g>
            <g transform="matrix(1,0,0,0.776233,230.5,530.602463)">
                <path d="M528,2510L528,2800" stroke="var(--icon-secondary, currentColor)" style="fill:none;stroke-width:2.72px;"/>
            </g>
            <g transform="matrix(1,0,0,0.776233,363.625,530.602463)">
                <path d="M528,2510L528,2800" stroke="var(--icon-secondary, currentColor)" style="fill:none;stroke-width:2.72px;"/>
            </g>
            <g transform="matrix(1,0,0,0.776233,496.75,530.602463)">
                <path d="M528,2510L528,2800" stroke="var(--icon-secondary, currentColor)" style="fill:none;stroke-width:2.72px;"/>
            </g>
            <g transform="matrix(1,0,0,0.776233,629.875,530.602463)">
                <path d="M528,2510L528,2800" stroke="var(--icon-secondary, currentColor)" style="fill:none;stroke-width:2.72px;"/>
            </g>
            <g transform="matrix(1,0,0,0.776233,763,530.602463)">
                <path d="M528,2510L528,2800" stroke="var(--icon-secondary, currentColor)" style="fill:none;stroke-width:2.72px;"/>
            </g>
        </g>
        <g transform="matrix(0.855705,0,0,0.855705,33.539279,357.700301)">
            <g transform="matrix(0.623109,0,0,0.623109,1272.586438,956.842552)">
                <path d="M360.712,2505.351L438.818,2505.351C464.853,2505.351 484.88,2511.526 498.899,2523.876C512.918,2536.226 519.927,2554.195 519.927,2577.782C519.927,2603.595 512.194,2623.678 496.729,2638.03C481.264,2652.383 459.623,2659.559 431.808,2659.559L390.419,2659.559L390.419,2739L360.712,2739L360.712,2505.351ZM435.146,2633.524C454.728,2633.524 468.636,2629.63 476.869,2621.842C485.102,2614.054 489.219,2600.925 489.219,2582.455C489.219,2564.209 485.102,2551.247 476.869,2543.57C468.636,2535.893 454.95,2532.054 435.814,2532.054L390.419,2532.054L390.419,2633.524L435.146,2633.524Z" fill="var(--icon-secondary, currentColor)" style="fill-rule:nonzero;"/>
                <path d="M566.657,2555.419L587.685,2555.419L593.693,2591.801C603.262,2578.895 615.167,2568.27 629.408,2559.925C643.65,2551.58 657.78,2547.297 671.799,2547.074L671.799,2578.116C658.002,2579.006 644.428,2582.4 631.077,2588.297C617.726,2594.193 605.709,2602.149 595.028,2612.162L595.028,2739L566.657,2739L566.657,2555.419Z" fill="var(--icon-secondary, currentColor)" style="fill-rule:nonzero;"/>
                <path d="M778.609,2742.338C753.687,2742.338 734.494,2734.494 721.032,2718.806C707.569,2703.118 700.838,2680.922 700.838,2652.216C700.838,2620.173 708.181,2595.473 722.868,2578.116C737.554,2560.759 758.36,2552.081 785.285,2552.081C810.43,2552.081 829.79,2559.869 843.364,2575.446C856.937,2591.023 863.724,2613.164 863.724,2641.869C863.724,2673.912 856.325,2698.668 841.528,2716.136C826.73,2733.604 805.757,2742.338 778.609,2742.338ZM781.947,2715.969C800.862,2715.969 814.269,2710.684 822.168,2700.114C830.068,2689.544 834.018,2671.687 834.018,2646.542C834.018,2629.63 832.293,2616.279 828.844,2606.488C825.395,2596.697 819.887,2589.576 812.322,2585.126C804.756,2580.675 794.631,2578.45 781.947,2578.45C763.255,2578.45 749.96,2583.735 742.06,2594.305C734.161,2604.875 730.211,2622.621 730.211,2647.543C730.211,2664.455 731.935,2677.862 735.384,2687.764C738.834,2697.666 744.285,2704.843 751.74,2709.293C759.194,2713.744 769.264,2715.969 781.947,2715.969Z" fill="var(--icon-secondary, currentColor)" style="fill-rule:nonzero;"/>
                <path d="M1000.242,2552.081C1022.717,2552.081 1040.24,2560.203 1052.813,2576.447C1065.385,2592.691 1071.672,2615.723 1071.672,2645.541C1071.672,2676.249 1065.274,2700.059 1052.479,2716.97C1039.684,2733.882 1021.827,2742.338 998.907,2742.338C974.652,2742.338 955.737,2732.213 942.164,2711.964L942.164,2802.419L913.792,2802.419L913.792,2555.419L935.488,2555.419L940.495,2589.465C953.401,2564.542 973.317,2552.081 1000.242,2552.081ZM942.164,2683.592C949.952,2695.163 958.018,2703.452 966.363,2708.459C974.707,2713.466 984.332,2715.969 995.235,2715.969C1011.479,2715.969 1023.384,2710.74 1030.95,2700.281C1038.516,2689.823 1042.299,2672.688 1042.299,2648.878C1042.299,2624.846 1038.405,2607.1 1030.616,2595.64C1022.828,2584.18 1011.145,2578.45 995.569,2578.45C983.108,2578.45 972.705,2581.955 964.36,2588.964C956.016,2595.974 948.617,2605.153 942.164,2616.501L942.164,2683.592Z" fill="var(--icon-secondary, currentColor)" style="fill-rule:nonzero;"/>
                <path d="M1189.497,2742.338C1164.575,2742.338 1145.382,2734.494 1131.92,2718.806C1118.457,2703.118 1111.726,2680.922 1111.726,2652.216C1111.726,2620.173 1119.069,2595.473 1133.755,2578.116C1148.442,2560.759 1169.248,2552.081 1196.173,2552.081C1221.318,2552.081 1240.677,2559.869 1254.251,2575.446C1267.825,2591.023 1274.612,2613.164 1274.612,2641.869C1274.612,2673.912 1267.213,2698.668 1252.416,2716.136C1237.618,2733.604 1216.645,2742.338 1189.497,2742.338ZM1192.835,2715.969C1211.75,2715.969 1225.157,2710.684 1233.056,2700.114C1240.956,2689.544 1244.905,2671.687 1244.905,2646.542C1244.905,2629.63 1243.181,2616.279 1239.732,2606.488C1236.283,2596.697 1230.775,2589.576 1223.209,2585.126C1215.644,2580.675 1205.519,2578.45 1192.835,2578.45C1174.143,2578.45 1160.848,2583.735 1152.948,2594.305C1145.048,2604.875 1141.099,2622.621 1141.099,2647.543C1141.099,2664.455 1142.823,2677.862 1146.272,2687.764C1149.721,2697.666 1155.173,2704.843 1162.628,2709.293C1170.082,2713.744 1180.151,2715.969 1192.835,2715.969Z" fill="var(--icon-secondary, currentColor)" style="fill-rule:nonzero;"/>
                <path d="M1324.68,2555.419L1345.708,2555.419L1351.716,2591.801C1361.285,2578.895 1373.19,2568.27 1387.431,2559.925C1401.673,2551.58 1415.803,2547.297 1429.822,2547.074L1429.822,2578.116C1416.025,2579.006 1402.451,2582.4 1389.1,2588.297C1375.749,2594.193 1363.732,2602.149 1353.051,2612.162L1353.051,2739L1324.68,2739L1324.68,2555.419Z" fill="var(--icon-secondary, currentColor)" style="fill-rule:nonzero;"/>
                <path d="M1544.309,2742.338C1527.843,2742.338 1515.159,2736.83 1506.258,2725.816C1497.357,2714.801 1492.907,2698.39 1492.907,2676.582L1492.907,2580.786L1451.851,2580.786L1451.851,2562.428L1492.907,2555.419L1499.916,2514.364L1521.278,2514.364L1521.278,2555.419L1582.695,2555.419L1582.695,2580.786L1521.278,2580.786L1521.278,2674.914C1521.278,2688.932 1523.67,2699.28 1528.455,2705.955C1533.239,2712.631 1540.86,2715.969 1551.319,2715.969C1562.223,2715.969 1572.681,2712.631 1582.695,2705.955L1582.695,2732.324C1570.456,2739 1557.661,2742.338 1544.309,2742.338Z" fill="var(--icon-secondary, currentColor)" style="fill-rule:nonzero;"/>
                <path d="M1629.758,2555.419L1658.13,2555.419L1658.13,2739L1629.758,2739L1629.758,2555.419ZM1626.42,2481.653L1661.801,2481.653L1661.801,2518.369L1626.42,2518.369L1626.42,2481.653Z" fill="var(--icon-secondary, currentColor)" style="fill-rule:nonzero;"/>
                <path d="M1786.303,2742.338C1761.38,2742.338 1742.188,2734.494 1728.725,2718.806C1715.262,2703.118 1708.531,2680.922 1708.531,2652.216C1708.531,2620.173 1715.874,2595.473 1730.561,2578.116C1745.247,2560.759 1766.053,2552.081 1792.978,2552.081C1818.123,2552.081 1837.483,2559.869 1851.057,2575.446C1864.631,2591.023 1871.418,2613.164 1871.418,2641.869C1871.418,2673.912 1864.019,2698.668 1849.221,2716.136C1834.423,2733.604 1813.45,2742.338 1786.303,2742.338ZM1789.641,2715.969C1808.555,2715.969 1821.962,2710.684 1829.861,2700.114C1837.761,2689.544 1841.711,2671.687 1841.711,2646.542C1841.711,2629.63 1839.986,2616.279 1836.537,2606.488C1833.088,2596.697 1827.581,2589.576 1820.015,2585.126C1812.449,2580.675 1802.324,2578.45 1789.641,2578.45C1770.949,2578.45 1757.653,2583.735 1749.753,2594.305C1741.854,2604.875 1737.904,2622.621 1737.904,2647.543C1737.904,2664.455 1739.629,2677.862 1743.078,2687.764C1746.527,2697.666 1751.979,2704.843 1759.433,2709.293C1766.888,2713.744 1776.957,2715.969 1789.641,2715.969Z" fill="var(--icon-secondary, currentColor)" style="fill-rule:nonzero;"/>
                <path d="M2042.315,2610.827C2042.315,2599.256 2039.923,2590.633 2035.139,2584.959C2030.354,2579.284 2022.51,2576.447 2011.607,2576.447C2001.371,2576.447 1991.635,2579.618 1982.401,2585.96C1973.166,2592.302 1962.318,2603.373 1949.857,2619.172L1949.857,2739L1921.485,2739L1921.485,2555.419L1942.847,2555.419L1948.855,2595.139C1968.437,2566.434 1992.247,2552.081 2020.285,2552.081C2036.529,2552.081 2048.991,2556.698 2057.669,2565.933C2066.347,2575.168 2070.686,2588.797 2070.686,2606.822L2070.686,2739L2042.315,2739L2042.315,2610.827Z" fill="var(--icon-secondary, currentColor)" style="fill-rule:nonzero;"/>
                <path d="M2242.251,2700.281C2233.795,2714.3 2224.283,2724.814 2213.713,2731.824C2203.143,2738.833 2190.292,2742.338 2175.161,2742.338C2158.027,2742.338 2144.62,2737.943 2134.94,2729.153C2125.26,2720.364 2120.42,2708.069 2120.42,2692.27C2120.42,2671.576 2129.766,2655.888 2148.458,2645.207C2167.15,2634.526 2197.191,2629.074 2238.58,2628.851L2238.58,2613.497C2238.58,2601.704 2235.242,2592.914 2228.566,2587.128C2221.891,2581.343 2211.766,2578.45 2198.192,2578.45C2188.623,2578.45 2178.554,2579.785 2167.984,2582.455C2157.415,2585.126 2146.9,2589.131 2136.442,2594.472L2136.442,2567.101C2159.139,2557.088 2181.058,2552.081 2202.197,2552.081C2222.892,2552.081 2238.858,2557.199 2250.095,2567.435C2261.333,2577.671 2266.951,2592.024 2266.951,2610.493L2266.951,2682.591L2277.299,2739L2249.595,2739L2242.251,2700.281ZM2148.792,2687.597C2148.792,2696.721 2151.629,2703.73 2157.303,2708.626C2162.978,2713.521 2171.378,2715.969 2182.504,2715.969C2196.078,2715.969 2207.315,2712.575 2216.216,2705.789C2225.117,2699.002 2232.572,2689.934 2238.58,2678.585L2238.58,2647.877C2206.759,2648.1 2183.839,2651.27 2169.82,2657.39C2155.801,2663.509 2148.792,2673.578 2148.792,2687.597Z" fill="var(--icon-secondary, currentColor)" style="fill-rule:nonzero;"/>
                <path d="M2369.089,2742.338C2355.738,2742.338 2345.446,2738.166 2338.214,2729.821C2330.982,2721.476 2327.366,2709.182 2327.366,2692.938L2327.366,2492L2355.738,2492L2355.738,2692.27C2355.738,2700.504 2357.351,2706.512 2360.578,2710.295C2363.804,2714.077 2369.089,2715.969 2376.432,2715.969C2385.333,2715.969 2393.122,2713.632 2399.797,2708.959L2399.797,2733.993C2390.674,2739.556 2380.438,2742.338 2369.089,2742.338Z" fill="var(--icon-secondary, currentColor)" style="fill-rule:nonzero;"/>
            </g>
            <g transform="matrix(9.566176,0,0,0.435411,-3107.36818,1440.055788)">
                <path d="M615,2386L615,2903L479,2903L479,2386L615,2386ZM614.745,2391.592L479.255,2391.592L479.255,2897.408L614.745,2897.408L614.745,2391.592Z"/>
            </g>
            <g transform="matrix(1,0,0,0.776233,1078,530.602463)">
                <path d="M528,2510L528,2800" stroke="var(--icon-secondary, currentColor)" style="fill:none;stroke-width:2.72px;"/>
            </g>
            <g transform="matrix(1,0,0,0.776233,1169.125,530.602463)">
                <path d="M528,2510L528,2800" stroke="var(--icon-secondary, currentColor)" style="fill:none;stroke-width:2.72px;"/>
            </g>
            <g transform="matrix(1,0,0,0.776233,1294.25,530.602463)">
                <path d="M528,2510L528,2800" stroke="var(--icon-secondary, currentColor)" style="fill:none;stroke-width:2.72px;"/>
            </g>
            <g transform="matrix(1,0,0,0.776233,1423.375,530.602463)">
                <path d="M528,2510L528,2800" stroke="var(--icon-secondary, currentColor)" style="fill:none;stroke-width:2.72px;"/>
            </g>
            <g transform="matrix(1,0,0,0.776233,1549.5,530.602463)">
                <path d="M528,2510L528,2800" stroke="var(--icon-secondary, currentColor)" style="fill:none;stroke-width:2.72px;"/>
            </g>
            <g transform="matrix(1,0,0,0.776233,1642.5,530.602463)">
                <path d="M528,2510L528,2800" stroke="var(--icon-secondary, currentColor)" style="fill:none;stroke-width:2.72px;"/>
            </g>
            <g transform="matrix(1,0,0,0.776233,1740.625,530.602463)">
                <path d="M528,2510L528,2800" stroke="var(--icon-secondary, currentColor)" style="fill:none;stroke-width:2.72px;"/>
            </g>
            <g transform="matrix(1,0,0,0.776233,1796.625,530.602463)">
                <path d="M528,2510L528,2800" stroke="var(--icon-secondary, currentColor)" style="fill:none;stroke-width:2.72px;"/>
            </g>
            <g transform="matrix(1,0,0,0.776233,1922.75,530.602463)">
                <path d="M528,2510L528,2800" stroke="var(--icon-secondary, currentColor)" style="fill:none;stroke-width:2.72px;"/>
            </g>
            <g transform="matrix(1,0,0,0.776233,2051.875,530.602463)">
                <path d="M528,2510L528,2800" stroke="var(--icon-secondary, currentColor)" style="fill:none;stroke-width:2.72px;"/>
            </g>
            <g transform="matrix(1,0,0,0.776233,2176,530.602463)">
                <path d="M528,2510L528,2800" stroke="var(--icon-secondary, currentColor)" style="fill:none;stroke-width:2.72px;"/>
            </g>
        </g>
    </g>
</svg>
