<?xml version="1.0" encoding="UTF-8" standalone="no"?>
<!DOCTYPE svg PUBLIC "-//W3C//DTD SVG 1.1//EN" "http://www.w3.org/Graphics/SVG/1.1/DTD/svg11.dtd">
<svg width="100%" height="100%" viewBox="0 0 467 581" version="1.1" xmlns="http://www.w3.org/2000/svg" xmlns:xlink="http://www.w3.org/1999/xlink" xml:space="preserve" xmlns:serif="http://www.serif.com/" style="fill-rule:evenodd;clip-rule:evenodd;stroke-linecap:round;stroke-linejoin:round;stroke-miterlimit:1.5;">
    <g transform="matrix(1,0,0,1,-733.913683,-1701.974079)">
        <g>
            <g transform="matrix(0.071564,0,0,0.165863,687.628323,1761.042816)">
                <path d="M1077.899,487.309C1077.899,469.96 1083.763,452.33 1095.491,434.418C1107.219,416.507 1124.252,398.917 1146.59,381.649C1168.929,364.38 1195.735,348.035 1227.009,332.614L1238.178,338.638L987.429,338.638L987.429,318.638L1261.075,318.638L1261.075,341.77C1214.909,365.705 1182.053,388.757 1162.507,410.925C1142.96,433.093 1133.187,458.554 1133.187,487.309L1077.899,487.309Z" style="fill-rule:nonzero;"/>
                <path d="M1440.342,385.384L1517.41,385.384L1517.41,420.322L1440.342,420.322L1440.342,385.384ZM1473.291,489.718C1429.359,489.718 1395.386,482.57 1371.372,468.273C1347.358,453.976 1335.351,433.816 1335.351,407.793C1335.351,388.355 1341.215,371.81 1352.942,358.155C1364.67,344.501 1381.703,334.1 1404.042,326.951C1426.38,319.803 1453.559,316.229 1485.577,316.229C1529.137,316.229 1562.831,323.337 1586.659,337.553C1610.487,351.77 1622.401,371.89 1622.401,397.913C1622.401,417.351 1616.63,433.937 1605.088,447.671C1593.547,461.406 1576.607,471.847 1554.268,478.996C1531.93,486.144 1504.937,489.718 1473.291,489.718ZM1478.876,468.755C1501.959,468.755 1520.016,466.667 1533.047,462.49C1546.077,458.313 1555.478,451.446 1561.249,441.888C1567.02,432.33 1569.905,419.198 1569.905,402.492C1569.905,385.946 1567.02,372.974 1561.249,363.577C1555.478,354.18 1546.077,347.393 1533.047,343.216C1520.016,339.039 1502.145,336.951 1479.434,336.951C1456.351,336.951 1438.294,339.039 1425.263,343.216C1412.233,347.393 1402.832,354.26 1397.061,363.818C1391.29,373.376 1388.405,386.508 1388.405,403.214C1388.405,419.76 1391.29,432.772 1397.061,442.25C1402.832,451.727 1412.233,458.514 1425.263,462.61C1438.294,466.707 1456.165,468.755 1478.876,468.755Z" style="fill-rule:nonzero;"/>
                <path d="M1797.758,385.384L1874.826,385.384L1874.826,420.322L1797.758,420.322L1797.758,385.384ZM1830.707,489.718C1786.775,489.718 1752.802,482.57 1728.788,468.273C1704.774,453.976 1692.767,433.816 1692.767,407.793C1692.767,388.355 1698.631,371.81 1710.359,358.155C1722.086,344.501 1739.119,334.1 1761.458,326.951C1783.796,319.803 1810.975,316.229 1842.993,316.229C1886.554,316.229 1920.247,323.337 1944.075,337.553C1967.903,351.77 1979.817,371.89 1979.817,397.913C1979.817,417.351 1974.046,433.937 1962.505,447.671C1950.963,461.406 1934.023,471.847 1911.684,478.996C1889.346,486.144 1862.354,489.718 1830.707,489.718ZM1836.292,468.755C1859.375,468.755 1877.432,466.667 1890.463,462.49C1903.494,458.313 1912.894,451.446 1918.665,441.888C1924.436,432.33 1927.321,419.198 1927.321,402.492C1927.321,385.946 1924.436,372.974 1918.665,363.577C1912.894,354.18 1903.494,347.393 1890.463,343.216C1877.432,339.039 1859.561,336.951 1836.85,336.951C1813.767,336.951 1795.71,339.039 1782.679,343.216C1769.649,347.393 1760.248,354.26 1754.477,363.818C1748.706,373.376 1745.821,386.508 1745.821,403.214C1745.821,419.76 1748.706,432.772 1754.477,442.25C1760.248,451.727 1769.649,458.514 1782.679,462.61C1795.71,466.707 1813.581,468.755 1836.292,468.755Z" style="fill-rule:nonzero;"/>
            </g>
            <g transform="matrix(0.071564,0,0,0.113232,687.628323,2090.234034)">
                <path d="M1797.758,558.699L1874.826,558.699L1874.826,609.878L1797.758,609.878L1797.758,558.699ZM1830.707,711.53C1786.775,711.53 1752.802,701.058 1728.788,680.116C1704.774,659.174 1692.767,629.643 1692.767,591.524C1692.767,563.052 1698.631,538.815 1710.359,518.815C1722.086,498.814 1739.119,483.578 1761.458,473.106C1783.796,462.635 1810.975,457.4 1842.993,457.4C1886.554,457.4 1920.247,467.812 1944.075,488.637C1967.903,509.461 1979.817,538.933 1979.817,577.053C1979.817,605.525 1974.046,629.82 1962.505,649.938C1950.963,670.057 1934.023,685.352 1911.684,695.823C1889.346,706.294 1862.354,711.53 1830.707,711.53ZM1836.292,680.822C1859.375,680.822 1877.432,677.763 1890.463,671.645C1903.494,665.527 1912.894,655.468 1918.665,641.467C1924.436,627.467 1927.321,608.231 1927.321,583.759C1927.321,559.522 1924.436,540.521 1918.665,526.756C1912.894,512.991 1903.494,503.049 1890.463,496.931C1877.432,490.813 1859.561,487.754 1836.85,487.754C1813.767,487.754 1795.71,490.813 1782.679,496.931C1769.649,503.049 1760.248,513.108 1754.477,527.109C1748.706,541.11 1745.821,560.346 1745.821,584.818C1745.821,609.054 1748.706,628.114 1754.477,641.997C1760.248,655.88 1769.649,665.822 1782.679,671.822C1795.71,677.822 1813.581,680.822 1836.292,680.822Z" style="fill-rule:nonzero;"/>
            </g>
            <g transform="matrix(0.071564,0,0,0.125763,687.628323,2177.959876)">
                <rect x="646.766" y="593.278" width="234.554" height="25.423" style="fill-rule:nonzero;"/>
                <path d="M1108.056,501.12L1127.044,506.522L999.156,558.639L999.156,521.14L1100.238,485.548L1160.552,485.548L1160.552,696.56L1108.056,696.56L1108.056,501.12ZM999.156,681.306L1258.841,681.306L1258.841,708L999.156,708L999.156,681.306Z" style="fill-rule:nonzero;"/>
                <path d="M1392.872,682.895C1434.199,682.895 1467.334,679.823 1492.279,673.679C1517.224,667.535 1535.746,657.26 1547.846,642.853C1559.946,628.447 1565.996,608.638 1565.996,583.427C1565.624,560.334 1559.201,542.273 1546.729,529.244C1534.257,516.215 1510.522,509.7 1475.525,509.7C1449.836,509.7 1429.452,513.619 1414.373,521.458C1399.295,529.297 1391.756,540.42 1391.756,554.826C1391.756,569.232 1399.202,580.408 1414.094,588.353C1428.986,596.297 1449.65,600.27 1476.083,600.27C1500.656,600.27 1521.598,597.039 1538.91,590.577C1556.223,584.115 1568.23,575.906 1574.931,565.949L1574.931,590.101C1565.996,601.541 1551.941,610.545 1532.767,617.113C1513.594,623.68 1491.162,626.964 1465.473,626.964C1441.273,626.964 1419.586,623.998 1400.412,618.066C1381.238,612.134 1366.066,603.712 1354.897,592.802C1343.728,581.891 1338.143,569.126 1338.143,554.508C1338.143,532.263 1350.429,514.679 1375.002,501.755C1399.574,488.832 1433.082,482.37 1475.525,482.37C1521.691,482.37 1557.061,490.951 1581.633,508.111C1606.205,525.272 1618.491,550.271 1618.491,583.109C1618.491,610.863 1610.021,634.273 1593.081,653.34C1576.141,672.408 1550.917,686.814 1517.41,696.56C1483.902,706.305 1442.39,711.178 1392.872,711.178L1392.872,682.895Z" style="fill-rule:nonzero;"/>
                <path d="M1797.758,573.576L1874.826,573.576L1874.826,619.655L1797.758,619.655L1797.758,573.576ZM1830.707,711.178C1786.775,711.178 1752.802,701.75 1728.788,682.895C1704.774,664.039 1692.767,637.451 1692.767,603.13C1692.767,577.495 1698.631,555.673 1710.359,537.665C1722.086,519.657 1739.119,505.94 1761.458,496.512C1783.796,487.084 1810.975,482.37 1842.993,482.37C1886.554,482.37 1920.247,491.745 1944.075,510.495C1967.903,529.244 1979.817,555.779 1979.817,590.101C1979.817,615.735 1974.046,637.61 1962.505,655.724C1950.963,673.838 1934.023,687.609 1911.684,697.036C1889.346,706.464 1862.354,711.178 1830.707,711.178ZM1836.292,683.53C1859.375,683.53 1877.432,680.776 1890.463,675.268C1903.494,669.759 1912.894,660.702 1918.665,648.097C1924.436,635.491 1927.321,618.172 1927.321,596.138C1927.321,574.317 1924.436,557.209 1918.665,544.816C1912.894,532.422 1903.494,523.471 1890.463,517.963C1877.432,512.454 1859.561,509.7 1836.85,509.7C1813.767,509.7 1795.71,512.454 1782.679,517.963C1769.649,523.471 1760.248,532.528 1754.477,545.133C1748.706,557.739 1745.821,575.059 1745.821,597.092C1745.821,618.913 1748.706,636.074 1754.477,648.574C1760.248,661.073 1769.649,670.024 1782.679,675.427C1795.71,680.829 1813.581,683.53 1836.292,683.53Z" style="fill-rule:nonzero;"/>
            </g>
            <g transform="matrix(0.071564,0,0,0.165863,687.628323,1665.74829)">
                <path d="M1116.992,489.718C1071.943,489.718 1037.039,485.702 1012.28,477.67C987.522,469.638 975.142,458.474 975.142,444.177C975.142,434.539 980.634,426.266 991.617,419.359C1002.6,412.451 1016.282,406.989 1032.664,402.973C1049.046,398.958 1066.358,396.146 1084.601,394.54L1123.693,403.455C1092.047,406.026 1068.406,410.242 1052.769,416.106C1037.132,421.969 1029.313,429.88 1029.313,439.84C1029.313,449.8 1036.852,457.149 1051.931,461.888C1067.009,466.626 1090.558,468.996 1122.577,468.996C1153.85,468.996 1176.84,466.787 1191.547,462.37C1206.253,457.952 1213.606,451.326 1213.606,442.491C1213.606,435.262 1209.045,429.358 1199.924,424.78C1190.802,420.202 1179.633,416.708 1166.416,414.298C1153.199,411.889 1135.049,409.158 1111.966,406.106C1086.276,402.893 1065.799,399.801 1050.535,396.829C1035.27,393.857 1022.239,389.44 1011.442,383.576C1000.645,377.713 995.247,369.962 995.247,360.324C995.247,346.348 1006.695,335.505 1029.592,327.795C1052.489,320.084 1084.601,316.229 1125.927,316.229C1164.647,316.229 1194.711,319.843 1216.119,327.072C1237.527,334.301 1248.231,344.421 1248.231,357.432C1248.231,366.268 1243.484,373.818 1233.99,380.082C1224.496,386.347 1212.582,391.207 1198.248,394.66C1183.914,398.114 1168.743,400.323 1152.733,401.287L1114.758,393.817C1139.33,393.014 1158.69,389.721 1172.838,383.938C1186.986,378.155 1194.06,370.444 1194.06,360.806C1194.06,352.453 1188.196,346.389 1176.468,342.614C1164.74,338.839 1146.404,336.951 1121.46,336.951C1096.887,336.951 1078.737,338.798 1067.009,342.493C1055.282,346.188 1049.418,351.81 1049.418,359.36C1049.418,366.107 1053.793,371.609 1062.542,375.866C1071.291,380.123 1082.181,383.456 1095.212,385.865C1108.243,388.275 1125.927,390.926 1148.266,393.817C1174.327,397.19 1195.27,400.403 1211.093,403.455C1226.916,406.508 1240.319,411.046 1251.302,417.069C1262.285,423.093 1267.777,431.005 1267.777,440.804C1267.777,456.064 1254.56,468.032 1228.126,476.707C1201.692,485.381 1164.647,489.718 1116.992,489.718Z" style="fill-rule:nonzero;"/>
                <path d="M1392.872,468.273C1434.199,468.273 1467.334,465.944 1492.279,461.285C1517.224,456.627 1535.746,448.836 1547.846,437.912C1559.946,426.989 1565.996,411.969 1565.996,392.853C1565.624,375.344 1559.201,361.649 1546.729,351.77C1534.257,341.891 1510.522,336.951 1475.525,336.951C1449.836,336.951 1429.452,339.923 1414.373,345.867C1399.295,351.81 1391.756,360.244 1391.756,371.167C1391.756,382.09 1399.202,390.564 1414.094,396.588C1428.986,402.612 1449.65,405.624 1476.083,405.624C1500.656,405.624 1521.598,403.174 1538.91,398.275C1556.223,393.375 1568.23,387.151 1574.931,379.601L1574.931,397.913C1565.996,406.588 1551.941,413.415 1532.767,418.395C1513.594,423.375 1491.162,425.864 1465.473,425.864C1441.273,425.864 1419.586,423.616 1400.412,419.118C1381.238,414.62 1366.066,408.234 1354.897,399.962C1343.728,391.689 1338.143,382.01 1338.143,370.926C1338.143,354.059 1350.429,340.726 1375.002,330.927C1399.574,321.128 1433.082,316.229 1475.525,316.229C1521.691,316.229 1557.061,322.735 1581.633,335.746C1606.205,348.758 1618.491,367.713 1618.491,392.612C1618.491,413.656 1610.021,431.406 1593.081,445.864C1576.141,460.321 1550.917,471.245 1517.41,478.634C1483.902,486.024 1442.39,489.718 1392.872,489.718L1392.872,468.273Z" style="fill-rule:nonzero;"/>
                <path d="M1797.758,385.384L1874.826,385.384L1874.826,420.322L1797.758,420.322L1797.758,385.384ZM1830.707,489.718C1786.775,489.718 1752.802,482.57 1728.788,468.273C1704.774,453.976 1692.767,433.816 1692.767,407.793C1692.767,388.355 1698.631,371.81 1710.359,358.155C1722.086,344.501 1739.119,334.1 1761.458,326.951C1783.796,319.803 1810.975,316.229 1842.993,316.229C1886.554,316.229 1920.247,323.337 1944.075,337.553C1967.903,351.77 1979.817,371.89 1979.817,397.913C1979.817,417.351 1974.046,433.937 1962.505,447.671C1950.963,461.406 1934.023,471.847 1911.684,478.996C1889.346,486.144 1862.354,489.718 1830.707,489.718ZM1836.292,468.755C1859.375,468.755 1877.432,466.667 1890.463,462.49C1903.494,458.313 1912.894,451.446 1918.665,441.888C1924.436,432.33 1927.321,419.198 1927.321,402.492C1927.321,385.946 1924.436,372.974 1918.665,363.577C1912.894,354.18 1903.494,347.393 1890.463,343.216C1877.432,339.039 1859.561,336.951 1836.85,336.951C1813.767,336.951 1795.71,339.039 1782.679,343.216C1769.649,347.393 1760.248,354.26 1754.477,363.818C1748.706,373.376 1745.821,386.508 1745.821,403.214C1745.821,419.76 1748.706,432.772 1754.477,442.25C1760.248,451.727 1769.649,458.514 1782.679,462.61C1795.71,466.707 1813.581,468.755 1836.292,468.755Z" style="fill-rule:nonzero;"/>
            </g>
            <g transform="matrix(2.595588,0,0,1.06383,-395.456415,-821.297872)">
                <path d="M615,2386L615,2903L479,2903L479,2386L615,2386ZM614.197,2387.958L479.803,2387.958L479.803,2901.042L614.197,2901.042L614.197,2387.958Z"/>
            </g>
            <g transform="matrix(2.595588,0,0,0.692664,-395.456415,160.249212)">
                <path d="M615,2386L615,2903L479,2903L479,2386L615,2386ZM614.197,2389.008L479.803,2389.008L479.803,2899.992L614.197,2899.992L614.197,2389.008Z"/>
            </g>
            <g transform="matrix(0.441913,0,0,0.441913,864.355923,712.717705)">
                <path d="M414.793,2356.89L417.87,2358.429L397.142,2373.273L397.142,2362.592L413.525,2352.455L423.301,2352.455L423.301,2412.557L414.793,2412.557L414.793,2356.89ZM397.142,2408.212L439.232,2408.212L439.232,2415.815L397.142,2415.815L397.142,2408.212Z" style="fill:rgb(242,13,13);fill-rule:nonzero;"/>
                <path d="M460.955,2408.665C467.654,2408.665 473.024,2407.79 477.067,2406.04C481.11,2404.29 484.112,2401.363 486.074,2397.26C488.035,2393.156 489.015,2387.514 489.015,2380.333C488.955,2373.756 487.914,2368.612 485.892,2364.9C483.871,2361.189 480.024,2359.334 474.352,2359.334C470.188,2359.334 466.884,2360.45 464.44,2362.683C461.996,2364.916 460.774,2368.084 460.774,2372.187C460.774,2376.29 461.981,2379.473 464.395,2381.736C466.809,2383.999 470.158,2385.131 474.442,2385.131C478.425,2385.131 481.819,2384.21 484.625,2382.37C487.431,2380.529 489.377,2378.191 490.464,2375.355L490.464,2382.234C489.015,2385.493 486.737,2388.057 483.63,2389.928C480.522,2391.799 476.886,2392.734 472.722,2392.734C468.8,2392.734 465.285,2391.889 462.177,2390.2C459.07,2388.51 456.611,2386.111 454.8,2383.004C452.99,2379.896 452.085,2376.26 452.085,2372.096C452.085,2365.76 454.076,2360.752 458.059,2357.071C462.042,2353.39 467.473,2351.549 474.352,2351.549C481.834,2351.549 487.567,2353.993 491.55,2358.881C495.532,2363.769 497.524,2370.89 497.524,2380.243C497.524,2388.148 496.151,2394.816 493.405,2400.247C490.66,2405.678 486.571,2409.781 481.14,2412.557C475.709,2415.333 468.981,2416.721 460.955,2416.721L460.955,2408.665Z" style="fill:rgb(242,13,13);fill-rule:nonzero;"/>
                <path d="M526.579,2377.527L539.07,2377.527L539.07,2390.652L526.579,2390.652L526.579,2377.527ZM531.92,2416.721C524.799,2416.721 519.293,2414.035 515.401,2408.665C511.508,2403.294 509.562,2395.721 509.562,2385.945C509.562,2378.644 510.513,2372.428 512.414,2367.299C514.314,2362.17 517.075,2358.263 520.696,2355.577C524.316,2352.892 528.721,2351.549 533.911,2351.549C540.971,2351.549 546.432,2354.22 550.294,2359.56C554.156,2364.9 556.087,2372.459 556.087,2382.234C556.087,2389.536 555.152,2395.766 553.281,2400.926C551.411,2406.085 548.665,2410.007 545.044,2412.693C541.424,2415.378 537.049,2416.721 531.92,2416.721ZM532.825,2408.846C536.566,2408.846 539.493,2408.061 541.605,2406.492C543.717,2404.923 545.24,2402.344 546.176,2398.753C547.111,2395.163 547.579,2390.23 547.579,2383.954C547.579,2377.739 547.111,2372.866 546.176,2369.336C545.24,2365.806 543.717,2363.256 541.605,2361.687C539.493,2360.118 536.596,2359.334 532.915,2359.334C529.174,2359.334 526.247,2360.118 524.135,2361.687C522.023,2363.256 520.5,2365.836 519.564,2369.426C518.629,2373.017 518.161,2377.95 518.161,2384.226C518.161,2390.441 518.629,2395.329 519.564,2398.889C520.5,2402.449 522.023,2404.999 524.135,2406.538C526.247,2408.076 529.144,2408.846 532.825,2408.846Z" style="fill:rgb(242,13,13);fill-rule:nonzero;"/>
            </g>
            <g transform="matrix(0.441913,0,0,0.441913,864.355923,1164.119683)">
                <path d="M414.793,2356.89L417.87,2358.429L397.142,2373.273L397.142,2362.592L413.525,2352.455L423.301,2352.455L423.301,2412.557L414.793,2412.557L414.793,2356.89ZM397.142,2408.212L439.232,2408.212L439.232,2415.815L397.142,2415.815L397.142,2408.212Z" style="fill:rgb(242,13,13);fill-rule:nonzero;"/>
                <path d="M460.955,2408.665C467.654,2408.665 473.024,2407.79 477.067,2406.04C481.11,2404.29 484.112,2401.363 486.074,2397.26C488.035,2393.156 489.015,2387.514 489.015,2380.333C488.955,2373.756 487.914,2368.612 485.892,2364.9C483.871,2361.189 480.024,2359.334 474.352,2359.334C470.188,2359.334 466.884,2360.45 464.44,2362.683C461.996,2364.916 460.774,2368.084 460.774,2372.187C460.774,2376.29 461.981,2379.473 464.395,2381.736C466.809,2383.999 470.158,2385.131 474.442,2385.131C478.425,2385.131 481.819,2384.21 484.625,2382.37C487.431,2380.529 489.377,2378.191 490.464,2375.355L490.464,2382.234C489.015,2385.493 486.737,2388.057 483.63,2389.928C480.522,2391.799 476.886,2392.734 472.722,2392.734C468.8,2392.734 465.285,2391.889 462.177,2390.2C459.07,2388.51 456.611,2386.111 454.8,2383.004C452.99,2379.896 452.085,2376.26 452.085,2372.096C452.085,2365.76 454.076,2360.752 458.059,2357.071C462.042,2353.39 467.473,2351.549 474.352,2351.549C481.834,2351.549 487.567,2353.993 491.55,2358.881C495.532,2363.769 497.524,2370.89 497.524,2380.243C497.524,2388.148 496.151,2394.816 493.405,2400.247C490.66,2405.678 486.571,2409.781 481.14,2412.557C475.709,2415.333 468.981,2416.721 460.955,2416.721L460.955,2408.665Z" style="fill:rgb(242,13,13);fill-rule:nonzero;"/>
                <path d="M526.579,2377.527L539.07,2377.527L539.07,2390.652L526.579,2390.652L526.579,2377.527ZM531.92,2416.721C524.799,2416.721 519.293,2414.035 515.401,2408.665C511.508,2403.294 509.562,2395.721 509.562,2385.945C509.562,2378.644 510.513,2372.428 512.414,2367.299C514.314,2362.17 517.075,2358.263 520.696,2355.577C524.316,2352.892 528.721,2351.549 533.911,2351.549C540.971,2351.549 546.432,2354.22 550.294,2359.56C554.156,2364.9 556.087,2372.459 556.087,2382.234C556.087,2389.536 555.152,2395.766 553.281,2400.926C551.411,2406.085 548.665,2410.007 545.044,2412.693C541.424,2415.378 537.049,2416.721 531.92,2416.721ZM532.825,2408.846C536.566,2408.846 539.493,2408.061 541.605,2406.492C543.717,2404.923 545.24,2402.344 546.176,2398.753C547.111,2395.163 547.579,2390.23 547.579,2383.954C547.579,2377.739 547.111,2372.866 546.176,2369.336C545.24,2365.806 543.717,2363.256 541.605,2361.687C539.493,2360.118 536.596,2359.334 532.915,2359.334C529.174,2359.334 526.247,2360.118 524.135,2361.687C522.023,2363.256 520.5,2365.836 519.564,2369.426C518.629,2373.017 518.161,2377.95 518.161,2384.226C518.161,2390.441 518.629,2395.329 519.564,2398.889C520.5,2402.449 522.023,2404.999 524.135,2406.538C526.247,2408.076 529.144,2408.846 532.825,2408.846Z" style="fill:rgb(242,13,13);fill-rule:nonzero;"/>
            </g>
        </g>
        <g transform="matrix(0.543147,0,0,1.797439,610.510821,1237.074234)">
            <path d="M904.117,427.97L619.668,427.97L619.668,519.617L531.13,519.617L531.13,320.385L619.668,320.385L619.668,404.347L904.117,404.347L904.117,320.385L992.654,320.385L992.654,519.617L904.117,519.617L904.117,427.97Z" style="fill-rule:nonzero;"/>
        </g>
        <g transform="matrix(1,0,0,1.554909,-35,-2013.684175)">
            <g transform="matrix(1,-0,-0,0.643125,768.913683,2389.631057)">
                <path d="M398.336,30.178L392.086,17.678L385.836,30.178L398.336,30.178Z" fill="currentColor" />
                <path d="M398.336,98.472L392.086,110.972L385.836,98.472L398.336,98.472Z" fill="currentColor" />
                <path d="M392.086,27.678L392.086,100.972" stroke="currentColor" style="fill:none;stroke-width:2.08px;" />
            </g>
        </g>
        <g transform="matrix(1,0,0,1.554909,-36,-1562.282197)">
            <g transform="matrix(1,-0,-0,0.643125,769.913683,2099.323361)">
                <path d="M397.336,481.58L391.086,469.08L384.836,481.58L397.336,481.58Z" fill="currentColor" />
                <path d="M397.336,549.874L391.086,562.374L384.836,549.874L397.336,549.874Z" fill="currentColor" />
                <path d="M391.086,479.08L391.086,552.374" stroke="currentColor" style="fill:none;stroke-width:2.08px;" />
            </g>
        </g>
    </g>
</svg>
